<svg width="24" height="24" viewBox="0 0 24 24" fill="none" xmlns="http://www.w3.org/2000/svg">
<path d="M2.25 20.25H15.75" stroke="white" stroke-width="2" stroke-linecap="round" stroke-linejoin="round"/>
<path d="M1.58455 13.1622L5.11893 16.4715C5.5902 16.9133 6.19147 17.1912 6.83334 17.2638C7.4752 17.3364 8.12336 17.2 8.68143 16.8747L22.8752 8.62466L21.1314 6.48716C20.6778 5.93316 20.041 5.55966 19.3361 5.43415C18.6312 5.30864 17.9046 5.43939 17.2877 5.80278L13.1252 8.24966L7.50018 6.37466L5.9533 7.04028C5.83758 7.08988 5.7362 7.16781 5.65851 7.2669C5.58083 7.36598 5.52934 7.48303 5.50879 7.60725C5.48824 7.73147 5.4993 7.85886 5.54094 7.97769C5.58258 8.09651 5.65346 8.20294 5.74705 8.28716L8.62518 10.8747L6.00018 12.3747L3.37518 11.2497L1.80018 11.9247C1.68559 11.9739 1.58509 12.0509 1.50776 12.1487C1.43044 12.2466 1.37873 12.3622 1.35732 12.485C1.33592 12.6079 1.34548 12.7341 1.38516 12.8524C1.42484 12.9706 1.49337 13.0771 1.58455 13.1622V13.1622Z" stroke="white" stroke-width="2" stroke-linecap="round" stroke-linejoin="round"/>
</svg>
