<svg width="22" height="10" viewBox="0 0 22 10" fill="none" xmlns="http://www.w3.org/2000/svg">
<path d="M5.46181 9.96448C5.61458 9.89932 5.7037 9.75598 5.7037 9.58658V6.66765H21.5926C21.8218 6.66765 22 6.48522 22 6.25066V3.74872C22 3.51416 21.8218 3.33173 21.5926 3.33173H5.7037V0.412801C5.7037 0.243399 5.60185 0.100059 5.46181 0.0349043C5.30903 -0.0302504 5.14352 -0.00418852 5.0162 0.11309L0.127315 4.72604C0.0509259 4.80423 0 4.92151 0 5.03878C0 5.15606 0.0509259 5.26031 0.127315 5.3385L5.0162 9.89932C5.14352 10.0036 5.30903 10.0296 5.46181 9.96448Z" fill="#4A4A4A"/>
</svg>
