<svg width="24" height="24" viewBox="0 0 24 24" fill="none" xmlns="http://www.w3.org/2000/svg">
<path d="M22.78 18.9826L21.0563 16.7036C20.1789 15.5379 19.7033 14.1229 19.7 12.6682V8.72764C19.6978 6.89282 19.0297 5.12011 17.8177 3.73382C16.6058 2.34753 14.9311 1.44035 13.1 1.17823V1.09096C13.1 0.801616 12.9841 0.524127 12.7778 0.319533C12.5715 0.11494 12.2917 0 12 0C11.7083 0 11.4285 0.11494 11.2222 0.319533C11.0159 0.524127 10.9 0.801616 10.9 1.09096V1.17823C9.06894 1.44035 7.39425 2.34753 6.1823 3.73382C4.97035 5.12011 4.30217 6.89282 4.3 8.72764V12.6682C4.29686 14.1231 3.8217 15.5384 2.9448 16.7047L1.22 18.9826C1.09743 19.1447 1.02279 19.3374 1.00445 19.5392C0.9861 19.741 1.02477 19.9439 1.11613 20.1251C1.20749 20.3063 1.34792 20.4587 1.5217 20.5652C1.69547 20.6717 1.89572 20.7282 2.1 20.7282H7.7562C7.9963 21.6637 8.54386 22.4933 9.31239 23.0858C10.0809 23.6783 11.0266 24 12 24C12.9734 24 13.9191 23.6783 14.6876 23.0858C15.4561 22.4933 16.0037 21.6637 16.2438 20.7282H21.9C22.1043 20.7282 22.3045 20.6717 22.4783 20.5652C22.6521 20.4587 22.7925 20.3063 22.8839 20.1251C22.9752 19.9439 23.0139 19.741 22.9956 19.5392C22.9772 19.3374 22.9026 19.1447 22.78 18.9826ZM12 21.8191C11.6155 21.818 11.2381 21.7166 10.9057 21.5251C10.5732 21.3336 10.2974 21.0588 10.1058 20.7282H13.8942C13.7026 21.0588 13.4268 21.3336 13.0943 21.5251C12.7619 21.7166 12.3845 21.818 12 21.8191ZM4.3 18.5462L4.7048 18.0117C5.86601 16.4678 6.49544 14.5943 6.5 12.6682V8.72764C6.5 7.28095 7.07946 5.8935 8.11091 4.87053C9.14236 3.84756 10.5413 3.27287 12 3.27287C13.4587 3.27287 14.8576 3.84756 15.8891 4.87053C16.9205 5.8935 17.5 7.28095 17.5 8.72764V12.6682C17.5039 14.5952 18.1338 16.4697 19.2963 18.0139L19.7 18.5462H4.3Z" fill="#3030AD"/>
</svg>
