<svg width="26" height="26" viewBox="0 0 26 26" fill="none" xmlns="http://www.w3.org/2000/svg">
<path fill-rule="evenodd" clip-rule="evenodd" d="M24.7941 11.8033L23.4261 10.4349C23.0545 10.0632 22.5421 9.88568 21.9761 9.91968C21.9586 9.92019 21.9411 9.92094 21.9238 9.92277C21.7828 9.93445 21.6387 9.95887 21.4927 9.99699C21.2516 10.0601 20.9924 9.98987 20.8165 9.81394C20.5423 9.5397 20.5423 9.09346 20.8165 8.81926C21.091 8.54459 21.091 8.09925 20.8165 7.82458L15.8443 2.85108C13.3769 0.382949 9.36208 0.382996 6.89463 2.85108C6.69353 3.05223 6.63339 3.35475 6.74219 3.61761C6.85103 3.88041 7.10744 4.05179 7.39183 4.05179C10.1989 4.05179 12.4997 6.26129 12.6475 9.03293L9.89819 11.7829L2.42659 18.1296C0.647684 19.5767 0.513012 22.2483 2.13198 23.8677C3.75587 25.4921 6.43117 25.3488 7.87389 23.5662L7.88463 23.5526L13.8878 15.7498L16.8377 12.7991L16.8379 12.7989L16.838 12.7988L16.8385 12.7984L16.8388 12.798C17.113 12.5238 17.5591 12.5238 17.8332 12.798C18.0091 12.974 18.0792 13.2332 18.0162 13.4745C17.978 13.6207 17.9536 13.765 17.942 13.9062C17.9404 13.9221 17.9397 13.938 17.9391 13.954C17.904 14.5219 18.0815 15.0359 18.454 15.4084L19.822 16.7768C20.0966 17.0515 20.5419 17.0515 20.8164 16.7768L24.7941 12.798C25.0686 12.5233 25.0686 12.078 24.7941 11.8033ZM6.77571 22.6873C5.85241 23.8209 4.15867 23.9055 3.12639 22.8729C2.09219 21.8384 2.17886 20.14 3.3182 19.2174L3.33091 19.2069L10.3362 13.2563L12.4244 15.3452L6.77571 22.6873ZM11.3695 12.3006L13.3583 14.29L15.3471 12.3006L13.3583 10.3112L11.3695 12.3006ZM18.8276 11.8033C18.1791 11.1547 17.2104 11.0177 16.4268 11.3912L14.055 9.01872C13.9262 6.10389 11.9188 3.6689 9.2171 2.89905C11.0518 2.00893 13.329 2.32444 14.85 3.84581L19.41 8.40717C19.0365 9.19137 19.1738 10.1603 19.822 10.8086C19.9936 10.9803 20.1919 11.1177 20.4057 11.2194L19.2383 12.3872C19.1366 12.1733 18.9992 11.975 18.8276 11.8033ZM19.3729 14.2994C19.4047 14.3875 19.4908 14.456 20.3192 15.2847L23.3025 12.3006C22.4738 11.4717 22.4054 11.3858 22.3174 11.354C22.3041 11.3491 22.2902 11.3456 22.2732 11.3408L19.3597 14.2551C19.3644 14.2721 19.368 14.286 19.3729 14.2994Z" fill="#EBEBF9"/>
<path d="M23.4261 10.4349L23.2492 10.6117L23.4261 10.4349ZM24.7941 11.8033L24.9709 11.6266L24.7941 11.8033ZM21.9761 9.91968L21.9835 10.1697L21.9911 10.1692L21.9761 9.91968ZM21.9238 9.92277L21.9444 10.172L21.9499 10.1714L21.9238 9.92277ZM21.4927 9.99699L21.4296 9.75511L21.4295 9.75513L21.4927 9.99699ZM20.8165 9.81394L20.6397 9.9907L20.6397 9.99072L20.8165 9.81394ZM20.8165 8.81926L20.9933 8.99603L20.9933 8.996L20.8165 8.81926ZM20.8165 7.82458L20.9933 7.64784L20.9933 7.64783L20.8165 7.82458ZM15.8443 2.85108L15.6675 3.02783L15.6675 3.02784L15.8443 2.85108ZM6.89463 2.85108L6.71783 2.67433L6.71783 2.67433L6.89463 2.85108ZM6.74219 3.61761L6.5112 3.71322L6.51122 3.71327L6.74219 3.61761ZM12.6475 9.03293L12.8243 9.20969L12.903 9.13089L12.8971 9.01962L12.6475 9.03293ZM9.89819 11.7829L10.06 11.9734L10.0678 11.9669L10.075 11.9597L9.89819 11.7829ZM2.42659 18.1296L2.58439 18.3236L2.58844 18.3202L2.42659 18.1296ZM2.13198 23.8677L2.30879 23.6909L2.30878 23.6909L2.13198 23.8677ZM7.87389 23.5662L8.06824 23.7235L8.07012 23.7211L7.87389 23.5662ZM7.88463 23.5526L8.08087 23.7075L8.08277 23.7051L7.88463 23.5526ZM13.8878 15.7498L13.711 15.573L13.6996 15.5845L13.6897 15.5973L13.8878 15.7498ZM16.8377 12.7991L16.6815 12.6039L16.6707 12.6126L16.6609 12.6224L16.8377 12.7991ZM16.8379 12.7989L16.9941 12.9941L17.0049 12.9855L17.0147 12.9757L16.8379 12.7989ZM16.8385 12.7984L17.0152 12.9751L17.0155 12.9749L16.8385 12.7984ZM16.8388 12.798L16.662 12.6213L16.6618 12.6215L16.8388 12.798ZM17.8332 12.798L18.01 12.6213L18.01 12.6213L17.8332 12.798ZM18.0162 13.4745L17.7743 13.4114V13.4114L18.0162 13.4745ZM17.942 13.9062L18.1907 13.9319L18.1912 13.9267L17.942 13.9062ZM17.9391 13.954L18.1887 13.9694L18.189 13.9635L17.9391 13.954ZM18.454 15.4084L18.2772 15.5852L18.454 15.4084ZM19.822 16.7768L19.9988 16.6001L19.9988 16.6001L19.822 16.7768ZM20.8164 16.7768L20.6396 16.6001L20.6396 16.6001L20.8164 16.7768ZM24.7941 12.798L24.9709 12.9748L24.9709 12.9747L24.7941 12.798ZM3.12639 22.8729L3.30319 22.6961H3.30319L3.12639 22.8729ZM6.77571 22.6873L6.96962 22.8453L6.97385 22.8398L6.77571 22.6873ZM3.3182 19.2174L3.47554 19.4117L3.47792 19.4097L3.3182 19.2174ZM3.33091 19.2069L3.49064 19.3992L3.49276 19.3974L3.33091 19.2069ZM10.3362 13.2563L10.513 13.0796L10.35 12.9165L10.1743 13.0658L10.3362 13.2563ZM12.4244 15.3452L12.6226 15.4976L12.7564 15.3237L12.6012 15.1684L12.4244 15.3452ZM13.3583 14.29L13.1815 14.4667L13.3583 14.6436L13.5351 14.4667L13.3583 14.29ZM11.3695 12.3006L11.1927 12.1238L11.016 12.3006L11.1927 12.4774L11.3695 12.3006ZM15.3471 12.3006L15.5239 12.4774L15.7006 12.3006L15.5239 12.1238L15.3471 12.3006ZM13.3583 10.3112L13.5351 10.1345L13.3583 9.95764L13.1815 10.1345L13.3583 10.3112ZM16.4268 11.3912L16.25 11.568L16.3749 11.6929L16.5344 11.6169L16.4268 11.3912ZM18.8276 11.8033L19.0044 11.6266L19.0044 11.6265L18.8276 11.8033ZM14.055 9.01872L13.8052 9.02976L13.8095 9.12679L13.8782 9.19548L14.055 9.01872ZM9.2171 2.89905L9.10797 2.67412L8.51873 2.96L9.14859 3.13948L9.2171 2.89905ZM14.85 3.84581L15.0268 3.66906L15.0268 3.66906L14.85 3.84581ZM19.41 8.40717L19.6357 8.51468L19.7117 8.35528L19.5868 8.23041L19.41 8.40717ZM19.822 10.8086L19.9988 10.6319L19.822 10.8086ZM20.4057 11.2194L20.5826 11.3962L20.8329 11.1457L20.5131 10.9936L20.4057 11.2194ZM19.2383 12.3872L19.0125 12.4945L19.1646 12.8145L19.4151 12.564L19.2383 12.3872ZM20.3192 15.2847L20.1424 15.4614L20.3192 15.6383L20.496 15.4614L20.3192 15.2847ZM19.3729 14.2994L19.1377 14.3843L19.1377 14.3843L19.3729 14.2994ZM23.3025 12.3006L23.4793 12.4774L23.656 12.3007L23.4793 12.1239L23.3025 12.3006ZM22.3174 11.354L22.2325 11.5891L22.2325 11.5891L22.3174 11.354ZM22.2732 11.3408L22.3404 11.1L22.1997 11.0607L22.0964 11.1641L22.2732 11.3408ZM19.3597 14.2551L19.1829 14.0784L19.0797 14.1816L19.1189 14.3223L19.3597 14.2551ZM23.2492 10.6117L24.6172 11.9801L24.9709 11.6266L23.6029 10.2582L23.2492 10.6117ZM21.9911 10.1692C22.4945 10.139 22.9341 10.2965 23.2492 10.6117L23.6029 10.2582C23.1748 9.83002 22.5898 9.63237 21.9611 9.67013L21.9911 10.1692ZM21.9499 10.1714C21.9577 10.1706 21.9676 10.17 21.9835 10.1696L21.9687 9.66979C21.9497 9.67035 21.9246 9.6713 21.8976 9.67414L21.9499 10.1714ZM21.5559 10.2389C21.6882 10.2043 21.818 10.1824 21.9444 10.1719L21.9031 9.67362C21.7475 9.68651 21.5892 9.71342 21.4296 9.75511L21.5559 10.2389ZM20.6397 9.99072C20.8785 10.2295 21.2291 10.3243 21.556 10.2389L21.4295 9.75513C21.274 9.79577 21.1063 9.7502 20.9932 9.63717L20.6397 9.99072ZM20.6397 8.6425C20.2679 9.01433 20.2679 9.61883 20.6397 9.9907L20.9933 9.63719C20.8167 9.46056 20.8167 9.17259 20.9933 8.99603L20.6397 8.6425ZM20.6397 8.00132C20.8166 8.17837 20.8166 8.46548 20.6397 8.64253L20.9933 8.996C21.3654 8.62371 21.3654 8.02014 20.9933 7.64784L20.6397 8.00132ZM15.6675 3.02784L20.6397 8.00133L20.9933 7.64783L16.0211 2.67433L15.6675 3.02784ZM7.07143 3.02784C9.44125 0.657408 13.2978 0.657368 15.6675 3.02783L16.0211 2.67433C13.4561 0.108529 9.28292 0.108583 6.71783 2.67433L7.07143 3.02784ZM6.97318 3.522C6.90303 3.35249 6.94183 3.15747 7.07143 3.02784L6.71783 2.67433C6.44523 2.947 6.36376 3.35701 6.5112 3.71322L6.97318 3.522ZM7.39183 3.80179C7.2086 3.80179 7.04333 3.69137 6.97316 3.52195L6.51122 3.71327C6.65874 4.06946 7.00628 4.30179 7.39183 4.30179V3.80179ZM12.8971 9.01962C12.7423 6.11612 10.3327 3.80179 7.39183 3.80179V4.30179C10.0652 4.30179 12.2571 6.40647 12.3978 9.04624L12.8971 9.01962ZM10.075 11.9597L12.8243 9.20969L12.4707 8.85618L9.72139 11.6062L10.075 11.9597ZM2.58844 18.3202L10.06 11.9734L9.73634 11.5924L2.26474 17.9391L2.58844 18.3202ZM2.30878 23.6909C0.794462 22.1762 0.920515 19.677 2.58435 18.3236L2.26883 17.9357C0.374854 19.4763 0.231563 22.3203 1.95518 24.0444L2.30878 23.6909ZM7.67957 23.4089C6.33012 25.0763 3.82759 25.2102 2.30879 23.6909L1.95518 24.0444C3.68415 25.7739 6.53222 25.6213 8.06822 23.7235L7.67957 23.4089ZM7.6884 23.3977L7.67767 23.4113L8.07012 23.7211L8.08085 23.7075L7.6884 23.3977ZM13.6897 15.5973L7.68648 23.4002L8.08277 23.7051L14.086 15.9022L13.6897 15.5973ZM16.6609 12.6224L13.711 15.573L14.0646 15.9265L17.0145 12.9759L16.6609 12.6224ZM16.6817 12.6037L16.6815 12.6039L16.9938 12.9943L16.9941 12.9941L16.6817 12.6037ZM16.6612 12.6221L16.6611 12.6221L17.0147 12.9757L17.0148 12.9756L16.6612 12.6221ZM16.6617 12.6216L16.6612 12.6221L17.0148 12.9756L17.0152 12.9751L16.6617 12.6216ZM16.6618 12.6215L16.6614 12.6218L17.0155 12.9749L17.0158 12.9746L16.6618 12.6215ZM18.01 12.6213C17.6382 12.2494 17.0338 12.2494 16.662 12.6213L17.0156 12.9748C17.1921 12.7982 17.4799 12.7983 17.6564 12.9748L18.01 12.6213ZM18.2581 13.5377C18.3434 13.2107 18.2488 12.8602 18.01 12.6213L17.6564 12.9748C17.7693 13.0878 17.815 13.2556 17.7743 13.4114L18.2581 13.5377ZM18.1912 13.9267C18.2016 13.8002 18.2235 13.6702 18.2581 13.5377L17.7743 13.4114C17.7326 13.5713 17.7057 13.7298 17.6928 13.8857L18.1912 13.9267ZM18.189 13.9635C18.1896 13.9462 18.19 13.9384 18.1907 13.9318L17.6933 13.8805C17.6907 13.9058 17.6899 13.9298 17.6893 13.9445L18.189 13.9635ZM18.6308 15.2317C18.3149 14.9157 18.1574 14.4746 18.1887 13.9694L17.6896 13.9386C17.6506 14.5692 17.8482 15.156 18.2772 15.5852L18.6308 15.2317ZM19.9988 16.6001L18.6308 15.2317L18.2772 15.5852L19.6452 16.9536L19.9988 16.6001ZM20.6396 16.6001C20.4627 16.7771 20.1757 16.7771 19.9988 16.6001L19.6452 16.9535C20.0174 17.3259 20.621 17.3259 20.9932 16.9535L20.6396 16.6001ZM24.6173 12.6213L20.6396 16.6001L20.9932 16.9536L24.9709 12.9748L24.6173 12.6213ZM24.6172 11.9801C24.7942 12.1571 24.7943 12.4442 24.6173 12.6213L24.9709 12.9747C25.343 12.6024 25.3431 11.9989 24.9709 11.6266L24.6172 11.9801ZM2.94959 23.0496C4.08648 24.1869 5.95258 24.0938 6.96954 22.8452L6.58187 22.5294C5.75223 23.548 4.23086 23.6241 3.30319 22.6961L2.94959 23.0496ZM3.16087 19.0231C1.90602 20.0393 1.81063 21.9104 2.94959 23.0496L3.30319 22.6961C2.37374 21.7664 2.45169 20.2408 3.47553 19.4117L3.16087 19.0231ZM3.17119 19.0145L3.15848 19.0251L3.47792 19.4097L3.49063 19.3992L3.17119 19.0145ZM10.1743 13.0658L3.16906 19.0163L3.49276 19.3974L10.498 13.4469L10.1743 13.0658ZM12.6012 15.1684L10.513 13.0796L10.1594 13.4331L12.2476 15.5219L12.6012 15.1684ZM6.97385 22.8398L12.6226 15.4976L12.2263 15.1927L6.57756 22.5349L6.97385 22.8398ZM13.5351 14.1132L11.5463 12.1238L11.1927 12.4774L13.1815 14.4667L13.5351 14.1132ZM15.1703 12.1238L13.1815 14.1132L13.5351 14.4667L15.5239 12.4774L15.1703 12.1238ZM13.1815 10.488L15.1703 12.4774L15.5239 12.1238L13.5351 10.1345L13.1815 10.488ZM11.5463 12.4774L13.5351 10.488L13.1815 10.1345L11.1927 12.1238L11.5463 12.4774ZM16.5344 11.6169C17.2257 11.2873 18.0797 11.4088 18.6508 11.9801L19.0044 11.6265C18.2785 10.9005 17.1952 10.748 16.3192 11.1655L16.5344 11.6169ZM13.8782 9.19548L16.25 11.568L16.6036 11.2145L14.2318 8.84197L13.8782 9.19548ZM9.14859 3.13948C11.7493 3.88054 13.6813 6.22495 13.8052 9.02976L14.3047 9.00769C14.1711 5.98283 12.0884 3.45727 9.28561 2.65862L9.14859 3.13948ZM15.0268 3.66906C13.428 2.06986 11.0353 1.73906 9.10797 2.67412L9.32622 3.12398C11.0683 2.27879 13.23 2.57902 14.6732 4.02257L15.0268 3.66906ZM19.5868 8.23041L15.0268 3.66906L14.6732 4.02256L19.2332 8.58392L19.5868 8.23041ZM19.9988 10.6319C19.428 10.0609 19.3061 9.20658 19.6357 8.51468L19.1843 8.29965C18.7668 9.17615 18.9197 10.2596 19.6452 10.9854L19.9988 10.6319ZM20.5131 10.9936C20.324 10.9037 20.1495 10.7826 19.9988 10.6319L19.6452 10.9854C19.8378 11.178 20.0597 11.3317 20.2984 11.4452L20.5131 10.9936ZM19.4151 12.564L20.5826 11.3962L20.2289 11.0427L19.0615 12.2105L19.4151 12.564ZM18.6508 11.9801C18.8015 12.1308 18.9226 12.3053 19.0125 12.4945L19.4641 12.2799C19.3506 12.0412 19.197 11.8192 19.0044 11.6266L18.6508 11.9801ZM20.496 15.1079C20.0789 14.6907 19.854 14.4701 19.7259 14.3394C19.5871 14.1977 19.6019 14.1976 19.608 14.2144L19.1377 14.3843C19.1756 14.4892 19.2494 14.5674 19.3687 14.6893C19.4987 14.822 19.731 15.05 20.1424 15.4614L20.496 15.1079ZM23.1257 12.1239L20.1424 15.1079L20.496 15.4614L23.4793 12.4774L23.1257 12.1239ZM22.2325 11.5891C22.2156 11.583 22.2156 11.5681 22.3572 11.7069C22.4879 11.835 22.7085 12.0601 23.1257 12.4774L23.4793 12.1239C23.0678 11.7123 22.8399 11.4799 22.7072 11.3499C22.5854 11.2305 22.5073 11.1568 22.4024 11.1189L22.2325 11.5891ZM22.206 11.5816C22.2106 11.5829 22.2154 11.5842 22.2187 11.5851C22.2224 11.5861 22.2251 11.5869 22.2274 11.5876C22.232 11.5889 22.233 11.5893 22.2325 11.5891L22.4024 11.1189C22.3777 11.1099 22.3507 11.1029 22.3404 11.1L22.206 11.5816ZM19.5365 14.4319L22.45 11.5176L22.0964 11.1641L19.1829 14.0784L19.5365 14.4319ZM19.608 14.2144C19.6082 14.2149 19.6078 14.2139 19.6064 14.2093C19.6058 14.207 19.605 14.2043 19.604 14.2007C19.6031 14.1974 19.6018 14.1925 19.6005 14.188L19.1189 14.3223C19.1218 14.3327 19.1288 14.3595 19.1377 14.3843L19.608 14.2144Z" fill="#EBEBF9"/>
</svg>
