<?xml version="1.0" encoding="UTF-8"?>
<svg width="16px" height="16px" viewBox="0 0 16 16" version="1.1" xmlns="http://www.w3.org/2000/svg" xmlns:xlink="http://www.w3.org/1999/xlink">
    <title>4BADDDF6-2442-4FD5-9C1E-9C5C58B579FA</title>
    <defs>
        <filter id="filter-1">
            <feColorMatrix in="SourceGraphic" type="matrix" values="0 0 0 0 0.607892 0 0 0 0 0.607803 0 0 0 0 0.607923 0 0 0 1.000000 0"></feColorMatrix>
        </filter>
    </defs>
    <g id="Wireframes-2.0" stroke="none" stroke-width="1" fill="none" fill-rule="evenodd">
        <g id="6.0-Components" transform="translate(-439.000000, -145.000000)">
            <g id="hammer" transform="translate(439.000000, 141.000000)" filter="url(#filter-1)">
                <g transform="translate(0.000000, 4.000000)">
                    <path d="M15.8626991,7.20220416 L14.9506982,6.28995219 C14.7029793,6.042165 14.3614164,5.92378855 13.9840723,5.94645106 C13.9724161,5.94679491 13.9607598,5.94729504 13.949166,5.94851413 C13.855166,5.95629753 13.7591346,5.97258328 13.661822,5.99799655 C13.5010406,6.04003941 13.3282592,5.99324524 13.2109779,5.87596284 C13.0281964,5.69313109 13.0281964,5.39564267 13.2109779,5.21284218 C13.3940093,5.0297291 13.3940093,4.7328346 13.2109779,4.54972152 L9.89622476,1.2340557 C8.25128572,-0.41136753 5.57472071,-0.411336271 3.92975042,1.2340557 C3.7956878,1.36815524 3.75559401,1.56983595 3.82812533,1.74507185 C3.90068789,1.92027649 4.07162555,2.0345268 4.26121948,2.0345268 C6.13262748,2.0345268 7.66644142,3.50752741 7.76497276,5.35528778 L5.9321273,7.18860666 L0.951060133,11.4197441 C-0.234878477,12.384448 -0.324659811,14.1655025 0.754653699,15.2451132 C1.83724846,16.3280373 3.62078138,16.2325422 4.58259478,15.0441514 C4.58503228,15.0411506 4.58740729,15.0381498 4.58975104,15.0350864 L8.59187978,9.83318086 L10.5584441,7.86607503 C10.5584754,7.86604377 10.5585379,7.86601251 10.5586004,7.86595 C10.5586004,7.86595 10.5586316,7.86591874 10.5586629,7.86588748 C10.5587566,7.8657937 10.5588816,7.86566867 10.5589754,7.86557489 C10.5590691,7.86551237 10.5591316,7.86544986 10.5591941,7.86535608 C10.7419755,7.68255559 11.0393821,7.68255559 11.2221322,7.86535608 C11.3393824,7.98263848 11.3861324,8.1554362 11.3441324,8.31635565 C11.3186948,8.41382007 11.3024136,8.51000289 11.2946636,8.60412264 C11.2935698,8.61471931 11.2931636,8.62534725 11.2927573,8.63600644 C11.269351,9.01457976 11.3876949,9.3572369 11.6360076,9.60561801 L12.5480085,10.51787 C12.7310399,10.7009831 13.0279152,10.7009831 13.2109466,10.51787 L15.8627303,7.86535608 C16.0457618,7.68218049 16.0457618,7.38531724 15.8626991,7.20220416 Z M3.8504691,14.4582083 C3.23493727,15.2139171 2.10577996,15.2703077 1.41759182,14.58193 C0.728122424,13.8922708 0.785903728,12.7600205 1.54546694,12.1449444 C1.54831069,12.1426313 1.55115444,12.1402869 1.5539357,12.1379112 L6.22412757,8.17087797 L7.61628512,9.56345011 L3.8504691,14.4582083 Z M8.23887945,8.85997455 L6.91300321,7.53373323 L8.23887945,6.20749191 C8.3908796,6.35953391 9.42197431,7.39091254 9.5647557,7.53373323 L8.23887945,8.85997455 Z M11.8850704,7.20220416 C11.4527262,6.76977222 10.8069444,6.67843449 10.2845376,6.92747203 C10.1200375,6.76292658 8.95425512,5.5968545 8.70331739,5.34581641 C8.61744231,3.40259217 7.27922231,1.7792688 5.47806437,1.26603328 C6.70119052,0.672619378 8.21931694,0.882958726 9.23331789,1.89720762 L12.273352,4.93811005 C12.0243205,5.4609107 12.1158831,6.10683911 12.5480085,6.5390835 C12.6624148,6.65352136 12.7945712,6.74514042 12.9371651,6.81294039 L12.1588519,7.59146793 C12.0910706,7.44883478 11.9994767,7.31664202 11.8850704,7.20220416 Z M12.8794775,9.52312647 C12.2432582,8.88673195 12.2637895,8.92280441 12.2397894,8.83674939 L14.182135,6.893869 C14.2681351,6.91787563 14.2318851,6.8971199 14.8683232,7.53376449 L12.8794775,9.52312647 Z" id="Shape" fill="#000000" fill-rule="nonzero"></path>
                </g>
            </g>
        </g>
    </g>
</svg>