<svg width="16" height="16" viewBox="0 0 16 16" fill="none" xmlns="http://www.w3.org/2000/svg">
<path d="M15.2727 1.45455H13.0909V0.727273C13.0909 0.534388 13.0143 0.349403 12.8779 0.213013C12.7415 0.0766231 12.5565 0 12.3636 0C12.1708 0 11.9858 0.0766231 11.8494 0.213013C11.713 0.349403 11.6364 0.534388 11.6364 0.727273V1.45455H8.72727V0.727273C8.72727 0.534388 8.65065 0.349403 8.51426 0.213013C8.37787 0.0766231 8.19289 0 8 0C7.80712 0 7.62213 0.0766231 7.48574 0.213013C7.34935 0.349403 7.27273 0.534388 7.27273 0.727273V1.45455H4.36364V0.727273C4.36364 0.534388 4.28701 0.349403 4.15062 0.213013C4.01423 0.0766231 3.82925 0 3.63636 0C3.44348 0 3.25849 0.0766231 3.1221 0.213013C2.98571 0.349403 2.90909 0.534388 2.90909 0.727273V1.45455H0.727273C0.534388 1.45455 0.349403 1.53117 0.213013 1.66756C0.0766231 1.80395 0 1.98893 0 2.18182V15.2727C0 15.4656 0.0766231 15.6506 0.213013 15.787C0.349403 15.9234 0.534388 16 0.727273 16H15.2727C15.4656 16 15.6506 15.9234 15.787 15.787C15.9234 15.6506 16 15.4656 16 15.2727V2.18182C16 1.98893 15.9234 1.80395 15.787 1.66756C15.6506 1.53117 15.4656 1.45455 15.2727 1.45455ZM1.45455 2.90909H2.90909V3.63636C2.90909 3.82925 2.98571 4.01423 3.1221 4.15062C3.25849 4.28701 3.44348 4.36364 3.63636 4.36364C3.82925 4.36364 4.01423 4.28701 4.15062 4.15062C4.28701 4.01423 4.36364 3.82925 4.36364 3.63636V2.90909H7.27273V3.63636C7.27273 3.82925 7.34935 4.01423 7.48574 4.15062C7.62213 4.28701 7.80712 4.36364 8 4.36364C8.19289 4.36364 8.37787 4.28701 8.51426 4.15062C8.65065 4.01423 8.72727 3.82925 8.72727 3.63636V2.90909H11.6364V3.63636C11.6364 3.82925 11.713 4.01423 11.8494 4.15062C11.9858 4.28701 12.1708 4.36364 12.3636 4.36364C12.5565 4.36364 12.7415 4.28701 12.8779 4.15062C13.0143 4.01423 13.0909 3.82925 13.0909 3.63636V2.90909H14.5455V5.81818H1.45455V2.90909ZM1.45455 14.5455V7.27273H14.5455V14.5455H1.45455Z" fill="#3030AD"/>
</svg>
