<svg width="20" height="20" viewBox="0 0 20 20" fill="none" xmlns="http://www.w3.org/2000/svg">
<path fill-rule="evenodd" clip-rule="evenodd" d="M18.7841 12.6885C19.6904 8.28114 17.1503 3.89434 12.8823 2.49572C12.6757 1.06365 11.4509 0.000976562 10.0071 0.000976562C8.56318 0.000976562 7.33842 1.06365 7.13182 2.49572C3.49395 3.72647 1.04589 7.14681 1.04888 10.9946C1.05493 11.5628 1.1156 12.1292 1.23005 12.6858C0.0379347 13.5603 -0.310654 15.1915 0.419516 16.4785C1.14969 17.7656 2.72666 18.2997 4.08627 17.7205C7.46491 20.723 12.5492 20.723 15.9279 17.7205C17.286 18.2964 18.8592 17.7623 19.5885 16.4778C20.3177 15.1933 19.972 13.5651 18.7841 12.6894V12.6885ZM10.0071 1.81578C10.6184 1.81678 11.1135 2.31341 11.114 2.92602C11.1123 2.97342 11.1081 3.02069 11.1014 3.06764C11.0317 3.62157 10.5606 4.03637 10.0035 4.03429C9.44633 4.03221 8.97831 3.61391 8.91277 3.05947C8.90568 3.0153 8.90144 2.97073 8.90009 2.92602C8.90058 2.31341 9.39576 1.81678 10.0071 1.81578ZM2.55534 13.9958C2.13409 14.1661 1.85717 14.5745 1.8542 15.0297C1.8552 15.6418 2.35037 16.1377 2.96118 16.1382C3.20945 16.1406 3.45099 16.0573 3.64511 15.9021C4.01589 15.6097 4.16112 15.1139 4.00695 14.667C3.85278 14.2201 3.43305 13.9201 2.96118 13.9195C2.82251 13.9212 2.6852 13.947 2.55534 13.9958ZM5.45776 16.5131C6.00443 15.6139 6.02114 14.4882 5.50139 13.573C4.98165 12.6579 4.00731 12.0975 2.95665 12.1093C2.40124 8.77101 4.28084 5.50552 7.44253 4.31586C7.95055 5.26102 8.93534 5.85038 10.0066 5.85038C11.0779 5.85038 12.0627 5.26102 12.5707 4.31586C15.3324 5.37502 17.1554 8.03216 17.1535 10.9955C17.151 11.3675 17.1192 11.7387 17.0584 12.1057H17.053C16.0036 12.0996 15.0329 12.6624 14.515 13.577C13.9972 14.4916 14.013 15.6153 14.5564 16.5149C11.9175 18.7057 8.09667 18.7057 5.45776 16.5149V16.5131ZM16.3627 15.8958C16.5576 16.0547 16.8017 16.1404 17.053 16.1382C17.6638 16.1377 18.1589 15.6418 18.1599 15.0297C18.1553 14.5681 17.8703 14.1559 17.4407 13.9894C17.3163 13.9442 17.1852 13.9205 17.053 13.9195C16.5827 13.9197 16.1639 14.2175 16.0085 14.6623C15.8531 15.1071 15.9952 15.6018 16.3627 15.8958Z" fill="#4A4A4A"/>
</svg>
