<svg width="32" height="32" viewBox="0 0 32 32" fill="none" xmlns="http://www.w3.org/2000/svg">
<g id="add">
<path id="Shape" fill-rule="evenodd" clip-rule="evenodd" d="M0 15.9773C0 7.15328 7.15328 0 15.9773 0C24.797 0.0104049 31.9442 7.1576 31.9546 15.9773C31.9546 24.8013 24.8013 31.9546 15.9773 31.9546C7.15328 31.9546 0 24.8013 0 15.9773ZM2.90496 15.9773C2.90496 23.197 8.75765 29.0496 15.9773 29.0496C23.1933 29.0408 29.0408 23.1933 29.0496 15.9773C29.0496 8.75765 23.197 2.90496 15.9773 2.90496C8.75765 2.90496 2.90496 8.75765 2.90496 15.9773Z" fill="currentcolor"/>
<path id="Path" d="M23.2395 14.528H17.4296V8.71811C17.4296 7.91592 16.7793 7.26562 15.9771 7.26562C15.1749 7.26562 14.5246 7.91592 14.5246 8.71811V14.528H8.71469C7.91251 14.528 7.26221 15.1783 7.26221 15.9805C7.26221 16.7827 7.91251 17.433 8.71469 17.433H14.5246V23.2429C14.5246 24.0451 15.1749 24.6954 15.9771 24.6954C16.7793 24.6954 17.4296 24.0451 17.4296 23.2429V17.433H23.2395C24.0417 17.433 24.692 16.7827 24.692 15.9805C24.692 15.1783 24.0417 14.528 23.2395 14.528Z" fill="currentcolor"/>
</g>
</svg>
