<svg width="16" height="16" viewBox="0 0 16 16" fill="none" xmlns="http://www.w3.org/2000/svg">
<path d="M8 1C6.61553 1 5.26216 1.41054 4.11101 2.17971C2.95987 2.94888 2.06266 4.04213 1.53285 5.32122C1.00303 6.6003 0.86441 8.00776 1.13451 9.36563C1.4046 10.7235 2.07129 11.9708 3.05026 12.9497C4.02922 13.9287 5.2765 14.5954 6.63437 14.8655C7.99224 15.1356 9.3997 14.997 10.6788 14.4672C11.9579 13.9373 13.0511 13.0401 13.8203 11.889C14.5895 10.7378 15 9.38447 15 8C14.9978 6.14416 14.2596 4.36495 12.9473 3.05267C11.6351 1.74039 9.85585 1.00219 8 1ZM8 13.7273C6.86725 13.7273 5.75995 13.3914 4.8181 12.7621C3.87626 12.1327 3.14218 11.2383 2.70869 10.1917C2.27521 9.14521 2.16179 7.99365 2.38278 6.88266C2.60377 5.77168 3.14924 4.75118 3.95021 3.95021C4.75118 3.14923 5.77169 2.60376 6.88267 2.38277C7.99365 2.16179 9.14521 2.27521 10.1917 2.70869C11.2383 3.14217 12.1327 3.87625 12.7621 4.8181C13.3914 5.75994 13.7273 6.86725 13.7273 8C13.7254 9.5184 13.1214 10.9741 12.0478 12.0477C10.9741 13.1214 9.5184 13.7254 8 13.7273Z" fill="#0B0B28"/>
<path d="M8.63656 7.73656V4.18183C8.63656 4.01306 8.56951 3.8512 8.45017 3.73186C8.33083 3.61252 8.16897 3.54547 8.00019 3.54547C7.83142 3.54547 7.66956 3.61252 7.55022 3.73186C7.43088 3.8512 7.36383 4.01306 7.36383 4.18183V8.00002C7.36387 8.16878 7.43094 8.33061 7.55029 8.44992L9.45938 10.359C9.5794 10.4749 9.74014 10.5391 9.90699 10.5376C10.0738 10.5362 10.2335 10.4693 10.3514 10.3513C10.4694 10.2333 10.5364 10.0737 10.5378 9.90682C10.5393 9.73996 10.4751 9.57922 10.3592 9.4592L8.63656 7.73656Z" fill="#0B0B28"/>
</svg>
