<svg width="24" height="24" viewBox="0 0 24 24" fill="none" xmlns="http://www.w3.org/2000/svg">
<path d="M12 0C9.62663 0 7.30655 0.703787 5.33316 2.02236C3.35977 3.34094 1.8217 5.21508 0.913451 7.4078C0.00519945 9.60051 -0.232441 12.0133 0.230582 14.3411C0.693605 16.6689 1.83649 18.807 3.51472 20.4853C5.19295 22.1635 7.33115 23.3064 9.65892 23.7694C11.9867 24.2324 14.3995 23.9948 16.5922 23.0865C18.7849 22.1783 20.6591 20.6402 21.9776 18.6668C23.2962 16.6935 24 14.3734 24 12C23.9962 8.81855 22.7308 5.76849 20.4811 3.51886C18.2315 1.26924 15.1814 0.00375324 12 0ZM12 21.8182C10.0582 21.8182 8.15991 21.2424 6.54531 20.1635C4.93072 19.0847 3.6723 17.5513 2.92919 15.7573C2.18607 13.9632 1.99164 11.9891 2.37048 10.0846C2.74931 8.18003 3.6844 6.43059 5.0575 5.0575C6.4306 3.6844 8.18003 2.74931 10.0846 2.37047C11.9891 1.99163 13.9632 2.18607 15.7573 2.92918C17.5513 3.6723 19.0847 4.93072 20.1635 6.54531C21.2424 8.1599 21.8182 10.0581 21.8182 12C21.8153 14.6031 20.78 17.0987 18.9393 18.9393C17.0987 20.78 14.6031 21.8153 12 21.8182Z" fill="#0B0B28"/>
<path d="M16.6274 7.37137C16.4228 7.16686 16.1454 7.05197 15.8561 7.05197C15.5668 7.05197 15.2894 7.16686 15.0848 7.37137L11.9997 10.4576L8.91465 7.37137C8.81402 7.26718 8.69364 7.18407 8.56054 7.1269C8.42745 7.06972 8.2843 7.03963 8.13945 7.03837C7.9946 7.03711 7.85095 7.06471 7.71688 7.11957C7.58281 7.17442 7.46101 7.25542 7.35858 7.35785C7.25615 7.46028 7.17515 7.58208 7.1203 7.71615C7.06545 7.85022 7.03784 7.99387 7.0391 8.13872C7.04036 8.28357 7.07046 8.42672 7.12763 8.55981C7.1848 8.69291 7.26791 8.81328 7.3721 8.91392L10.4572 12.0001L7.3721 15.0863C7.26791 15.1869 7.1848 15.3073 7.12763 15.4404C7.07046 15.5735 7.04036 15.7166 7.0391 15.8615C7.03784 16.0063 7.06545 16.15 7.1203 16.284C7.17515 16.4181 7.25615 16.5399 7.35858 16.6423C7.46101 16.7448 7.58281 16.8258 7.71688 16.8806C7.85095 16.9355 7.9946 16.9631 8.13945 16.9618C8.2843 16.9606 8.42745 16.9305 8.56054 16.8733C8.69364 16.8161 8.81402 16.733 8.91465 16.6288L11.9997 13.5426L15.0848 16.6288C15.1855 16.733 15.3058 16.8161 15.4389 16.8733C15.572 16.9305 15.7152 16.9606 15.86 16.9618C16.0049 16.9631 16.1485 16.9355 16.2826 16.8806C16.4167 16.8258 16.5385 16.7448 16.6409 16.6423C16.7433 16.5399 16.8243 16.4181 16.8792 16.284C16.934 16.15 16.9616 16.0063 16.9604 15.8615C16.9591 15.7166 16.929 15.5735 16.8718 15.4404C16.8147 15.3073 16.7316 15.1869 16.6274 15.0863L13.5423 12.0001L16.6274 8.91392C16.8319 8.70934 16.9468 8.43191 16.9468 8.14264C16.9468 7.85337 16.8319 7.57595 16.6274 7.37137Z" fill="#0B0B28"/>
</svg>
