<?xml version="1.0" encoding="UTF-8"?>
<svg width="21px" height="21px" viewBox="0 0 21 21" version="1.1" xmlns="http://www.w3.org/2000/svg" xmlns:xlink="http://www.w3.org/1999/xlink">
    <title>BD6C0C87-031C-4B1E-A8E5-E26576D9EA6D</title>
    <defs>
        <filter id="filter-1">
            <feColorMatrix in="SourceGraphic" type="matrix" values="0 0 0 0 0.823529 0 0 0 0 0.823529 0 0 0 0 0.823529 0 0 0 1.000000 0"></feColorMatrix>
        </filter>
    </defs>
    <g id="Wireframes-2.0" stroke="none" stroke-width="1" fill="none" fill-rule="evenodd">
        <g id="settings-copy-8" transform="translate(-938.000000, -578.000000)" filter="url(#filter-1)">
            <g transform="translate(938.000000, 578.000000)">
                <path d="M1.81692308,9.51461538 C1.79538462,9.91230769 1.80153846,10.3115385 1.83615385,10.7076923 L0.313846154,12.1207692 C0.105384615,12.3138462 0.0207692308,12.6069231 0.0938461538,12.8815385 C0.309230769,13.6946154 0.659230769,14.4746154 1.08,15.2015385 C1.22615385,15.4546154 1.49,15.6 1.79538462,15.5830769 L3.87076923,15.4469231 C4.13538462,15.7515385 4.42076923,16.0323077 4.72461538,16.2853846 L4.65384615,18.3576923 C4.64307692,18.6453846 4.79461538,18.9138462 5.04538462,19.0546154 C5.76153846,19.4576923 6.51846154,19.7569231 7.31230769,19.9615385 C7.60461538,20.0369231 7.94,19.9807692 8.14615385,19.7469231 L9.51461538,18.1961538 C9.91153846,18.2176923 10.3123077,18.2115385 10.7069231,18.1769231 C10.7069231,18.1769231 12.1207692,19.7015385 12.1361538,19.7123077 C12.3538462,19.9353846 12.66,19.9792308 12.9661538,19.8938462 C13.7476923,19.6769231 14.5015385,19.3415385 15.2015385,18.9338462 C15.4353846,18.7976923 15.6,18.4892308 15.5823077,18.2184615 C15.5369231,17.5261538 15.4915385,16.8330769 15.4484615,16.1407692 C15.6161538,15.9961538 15.7707692,15.8376923 15.9215385,15.6753846 C15.9676923,15.6253846 16.2153846,15.2869231 16.2853846,15.2892308 C16.9738462,15.3130769 17.6623077,15.3376923 18.3515385,15.3638462 C18.6269231,15.3746154 18.9192308,15.2076923 19.0538462,14.9692308 C19.4615385,14.2469231 19.7630769,13.4830769 19.9623077,12.7 C20.0369231,12.4076923 19.9815385,12.0761538 19.7469231,11.8684615 L18.1961538,10.5 C18.2007692,10.4153846 18.1838462,9.38615385 18.1769231,9.30692308 C18.1769231,9.30692308 19.7007692,7.89384615 19.7076923,7.88384615 C19.8892308,7.63769231 20.0115385,7.36461538 19.8969231,7.05846154 C19.7984615,6.70384615 19.6738462,6.34538462 19.4992308,5.93615385 C19.34,5.56230769 19.15,5.18384615 18.9338462,4.81230769 C18.7946154,4.57307692 18.5015385,4.41307692 18.2184615,4.43076923 C17.5261538,4.47615385 16.8330769,4.52076923 16.1407692,4.56461538 C16.0907692,4.50692308 15.3515385,3.78076923 15.2892308,3.72769231 C15.3130769,3.03846154 15.3384615,2.35 15.3638462,1.66076923 C15.3738462,1.38461538 15.21,1.09384615 14.9692308,0.958461538 C14.2238462,0.539230769 13.4369231,0.226153846 12.6292308,0.0284615385 C12.3492308,-0.0415384615 12.0584615,0.0515384615 11.8692308,0.266153846 L10.5,1.81846154 C10.1007692,1.79538462 9.70153846,1.80230769 9.30692308,1.83769231 L7.89384615,0.315384615 C7.69923077,0.106153846 7.40538462,0.02 7.13230769,0.0953846154 C6.32153846,0.319230769 5.52153846,0.653076923 4.80153846,1.08769231 C4.55615385,1.23615385 4.41307692,1.50923077 4.43230769,1.79615385 L4.56846154,3.87153846 C4.26384615,4.13615385 3.98230769,4.42153846 3.72923077,4.72538462 L1.65692308,4.65384615 C1.37307692,4.63846154 1.10153846,4.79461538 0.96,5.04538462 C0.54,5.79 0.226923077,6.57769231 0.0284615385,7.38538462 C-0.0392307692,7.66307692 0.0523076923,7.95615385 0.266923077,8.14538462 L1.81692308,9.51461538 Z M2.08538462,6.20846154 L4.06461538,6.27615385 C4.31307692,6.28461538 4.55846154,6.16846154 4.70846154,5.96538462 C5.02153846,5.54384615 5.39923077,5.15923077 5.83307692,4.82153846 C6.03461538,4.66461538 6.14461538,4.41923077 6.12846154,4.16461538 C6.12846154,4.16461538 5.99846154,2.18230769 5.99846154,2.18153846 C5.99384615,2.08769231 7.08769231,1.70846154 7.09384615,1.71538462 C7.09384615,1.71538462 8.44307692,3.17 8.44307692,3.17 C8.61538462,3.35384615 8.85923077,3.44461538 9.11384615,3.40846154 C9.65,3.33384615 10.1976923,3.32384615 10.7423077,3.38076923 C10.9907692,3.40615385 11.2346154,3.31076923 11.3992308,3.12461538 L12.7038462,1.64692308 C13.0776923,1.76307692 13.4469231,1.91076923 13.8061538,2.08615385 C13.7838462,2.74461538 13.7607692,3.40230769 13.7361538,4.06076923 C13.7230769,4.41384615 13.9661538,4.65 14.2192308,4.85615385 C14.5730769,5.14461538 14.9123077,5.47384615 15.1930769,5.83384615 C15.3461538,6.03 15.6023077,6.14538462 15.85,6.12923077 C16.5092308,6.07461538 17.1707692,6.04230769 17.8307692,6 C17.9230769,6.18076923 18.0076923,6.36076923 18.0846154,6.54 C18.1684615,6.73846154 18.24,6.92076923 18.3,7.09461538 C18.3,7.09461538 16.8492308,8.44153846 16.8453846,8.44384615 C16.6084615,8.66384615 16.5876923,8.99307692 16.6207692,9.29307692 C16.6730769,9.76307692 16.6846154,10.2646154 16.6315385,10.7361538 C16.6023077,10.9946154 16.7276923,11.2007692 16.8869231,11.4 L18.3669231,12.7053846 C18.2507692,13.08 18.1038462,13.4484615 17.9276923,13.8069231 C17.27,13.7846154 16.6107692,13.77 15.9538462,13.7361538 C15.6738462,13.7223077 15.4246154,13.8884615 15.2592308,14.1023077 C14.9507692,14.5007692 14.5792308,14.8830769 14.1807692,15.1923077 C13.9930769,15.3376923 13.8623077,15.6092308 13.8853846,15.85 C13.9284615,16.51 13.9769231,17.1707692 14.0138462,17.8307692 C13.8338462,17.9230769 13.6538462,18.0076923 13.4753846,18.0838462 C13.2769231,18.1684615 13.0946154,18.24 12.92,18.3 C12.92,18.3 11.5784615,16.8538462 11.5761538,16.8523077 C11.4153846,16.6792308 11.1369231,16.5746154 10.9,16.6076923 C10.3638462,16.6823077 9.81615385,16.6923077 9.27153846,16.6353846 C9.04461538,16.6115385 8.76769231,16.7146154 8.61461538,16.8884615 L7.30846154,18.3692308 C6.93461538,18.2530769 6.56615385,18.1061538 6.20769231,17.93 L6.27538462,15.9507692 C6.28461538,15.6976923 6.16769231,15.4569231 5.96538462,15.3061538 C5.54230769,14.9923077 5.15769231,14.6146154 4.82153846,14.1823077 C4.66538462,13.9815385 4.43153846,13.8738462 4.16461538,13.8869231 L2.18384615,14.0153846 C2.00307692,13.6623077 1.84384615,13.2953846 1.71461538,12.9207692 L3.16923077,11.5715385 C3.35307692,11.4007692 3.44153846,11.1507692 3.40769231,10.9023077 C3.33307692,10.3623077 3.32384615,9.81384615 3.38076923,9.27230769 C3.40615385,9.02538462 3.31076923,8.78076923 3.12461538,8.61615385 L1.64615385,7.31076923 C1.76230769,6.93615385 1.91,6.56769231 2.08538462,6.20846154 L2.08538462,6.20846154 Z" id="Shape" fill="#000000" fill-rule="nonzero"></path>
                <path d="M10.0069231,13.8538462 C12.1276923,13.8538462 13.8530769,12.1284615 13.8530769,10.0076923 C13.8530769,7.88692308 12.1276923,6.16153846 10.0069231,6.16153846 C7.88615385,6.16153846 6.16076923,7.88692308 6.16076923,10.0076923 C6.16076923,12.1284615 7.88615385,13.8538462 10.0069231,13.8538462 Z M10.0069231,7.7 C11.2792308,7.7 12.3146154,8.73538462 12.3146154,10.0076923 C12.3146154,11.28 11.2792308,12.3153846 10.0069231,12.3153846 C8.73461538,12.3153846 7.69923077,11.28 7.69923077,10.0076923 C7.69923077,8.73538462 8.73461538,7.7 10.0069231,7.7 Z" id="Shape" fill="#000000" fill-rule="nonzero"></path>
            </g>
        </g>
    </g>
</svg>