<svg width="26" height="24" viewBox="0 0 26 24" fill="none" xmlns="http://www.w3.org/2000/svg">
<path d="M12.8933 11.0849C13.6749 11.0849 14.4389 10.8478 15.0887 10.4036C15.7385 9.95935 16.2449 9.32795 16.544 8.58924C16.843 7.85053 16.9212 7.03769 16.7687 6.25351C16.6162 5.46933 16.2398 4.74903 15.6871 4.18372C15.1344 3.6184 14.4303 3.23346 13.6637 3.07758C12.8972 2.92169 12.1026 3.00186 11.3806 3.30795C10.6586 3.61404 10.0416 4.1323 9.60748 4.79718C9.1734 5.46207 8.94179 6.24372 8.94195 7.04327C8.94322 8.11492 9.35995 9.1423 10.1007 9.89999C10.8415 10.6577 11.8458 11.0838 12.8933 11.0849ZM12.8933 4.63711C13.3585 4.63711 13.8132 4.77823 14.2 5.04262C14.5868 5.30701 14.8882 5.6828 15.0662 6.12247C15.2443 6.56214 15.2908 7.04594 15.2001 7.51269C15.1093 7.97944 14.8853 8.40818 14.5564 8.74469C14.2275 9.08119 13.8084 9.31036 13.3522 9.4032C12.8959 9.49604 12.423 9.44839 11.9933 9.26628C11.5635 9.08416 11.1962 8.77576 10.9377 8.38006C10.6793 7.98437 10.5414 7.51917 10.5414 7.04327C10.5422 6.40538 10.7903 5.79387 11.2312 5.34281C11.6721 4.89176 12.2698 4.63797 12.8933 4.63711Z" fill="#EBEBF9"/>
<path d="M5.42905 13.4608C6.03009 13.4608 6.61763 13.2785 7.11737 12.9368C7.61712 12.5952 8.00663 12.1097 8.23663 11.5416C8.46664 10.9735 8.52682 10.3484 8.40956 9.74532C8.29231 9.14225 8.00288 8.58829 7.57788 8.15349C7.15288 7.7187 6.6114 7.4226 6.02191 7.30264C5.43242 7.18268 4.8214 7.24425 4.26611 7.47956C3.71082 7.71486 3.23621 8.11335 2.90229 8.62461C2.56837 9.13587 2.39014 9.73696 2.39014 10.3518C2.39014 11.1764 2.71031 11.9672 3.28021 12.5502C3.85012 13.1332 4.62308 13.4608 5.42905 13.4608ZM5.42905 8.87919C5.71375 8.87919 5.99206 8.96556 6.22878 9.12738C6.4655 9.28919 6.65001 9.51919 6.75896 9.78829C6.86791 10.0574 6.89641 10.3535 6.84087 10.6391C6.78533 10.9248 6.64823 11.1872 6.44692 11.3932C6.2456 11.5991 5.98911 11.7394 5.70988 11.7962C5.43064 11.853 5.14121 11.8239 4.87818 11.7124C4.61515 11.6009 4.39033 11.4122 4.23216 11.17C4.07399 10.9278 3.98956 10.6431 3.98956 10.3518C3.98956 9.96127 4.14122 9.5867 4.41118 9.31052C4.68113 9.03434 5.04727 8.87919 5.42905 8.87919Z" fill="#EBEBF9"/>
<path d="M20.3568 13.4608C20.9578 13.4608 21.5454 13.2785 22.0451 12.9368C22.5449 12.5952 22.9344 12.1097 23.1644 11.5416C23.3944 10.9735 23.4546 10.3484 23.3373 9.74532C23.2201 9.14225 22.9306 8.58829 22.5056 8.15349C22.0806 7.7187 21.5391 7.4226 20.9497 7.30264C20.3602 7.18268 19.7491 7.24425 19.1938 7.47956C18.6386 7.71486 18.1639 8.11335 17.83 8.62461C17.4961 9.13587 17.3179 9.73696 17.3179 10.3518C17.3179 11.1764 17.638 11.9672 18.208 12.5502C18.7779 13.1332 19.5508 13.4608 20.3568 13.4608ZM20.3568 8.87919C20.6415 8.87919 20.9198 8.96556 21.1565 9.12738C21.3932 9.28919 21.5777 9.51919 21.6867 9.78829C21.7957 10.0574 21.8242 10.3535 21.7686 10.6391C21.7131 10.9248 21.576 11.1872 21.3747 11.3932C21.1733 11.5991 20.9169 11.7394 20.6376 11.7962C20.3584 11.853 20.069 11.8239 19.8059 11.7124C19.5429 11.6009 19.3181 11.4122 19.1599 11.17C19.0017 10.9278 18.9173 10.6431 18.9173 10.3518C18.9173 9.96127 19.069 9.5867 19.3389 9.31052C19.6089 9.03434 19.975 8.87919 20.3568 8.87919Z" fill="#EBEBF9"/>
<path d="M20.4637 15.102C19.7627 15.1067 19.0738 15.2904 18.4596 15.6362C17.8758 14.6905 17.071 13.9084 16.1178 13.3604C15.1647 12.8123 14.0932 12.5156 13 12.497C11.9068 12.5156 10.8353 12.8123 9.88218 13.3604C8.92905 13.9084 8.12425 14.6905 7.54036 15.6362C6.92618 15.2904 6.23735 15.1067 5.53628 15.102C4.27825 15.1648 3.09559 15.7342 2.2465 16.686C1.39741 17.6377 0.950845 18.8945 1.0043 20.1819C1.0043 20.3988 1.08856 20.6069 1.23853 20.7604C1.38851 20.9138 1.59192 21 1.80402 21C2.01611 21 2.21952 20.9138 2.3695 20.7604C2.51947 20.6069 2.60373 20.3988 2.60373 20.1819C2.55132 19.3286 2.82978 18.4886 3.37874 17.8439C3.9277 17.1993 4.70291 16.8021 5.53628 16.7383C5.97821 16.7418 6.41209 16.8597 6.79743 17.0811C6.42053 18.0528 6.22757 19.089 6.22883 20.1344C6.22883 20.3514 6.31309 20.5595 6.46306 20.7129C6.61304 20.8664 6.81645 20.9525 7.02854 20.9525C7.24064 20.9525 7.44405 20.8664 7.59403 20.7129C7.744 20.5595 7.82826 20.3514 7.82826 20.1344C7.82826 16.825 10.1474 14.1333 13 14.1333C15.8526 14.1333 18.1717 16.825 18.1717 20.1344C18.1717 20.3514 18.256 20.5595 18.406 20.7129C18.556 20.8664 18.7594 20.9525 18.9715 20.9525C19.1836 20.9525 19.387 20.8664 19.5369 20.7129C19.6869 20.5595 19.7712 20.3514 19.7712 20.1344C19.7724 19.089 19.5795 18.0528 19.2026 17.0811C19.5879 16.8597 20.0218 16.7418 20.4637 16.7383C21.2971 16.8021 22.0723 17.1993 22.6213 17.8439C23.1702 18.4886 23.4487 19.3286 23.3963 20.1819C23.3963 20.3988 23.4805 20.6069 23.6305 20.7604C23.7805 20.9138 23.9839 21 24.196 21C24.4081 21 24.6115 20.9138 24.7615 20.7604C24.9114 20.6069 24.9957 20.3988 24.9957 20.1819C25.0492 18.8945 24.6026 17.6377 23.7535 16.686C22.9044 15.7342 21.7218 15.1648 20.4637 15.102Z" fill="#EBEBF9"/>
<path d="M12.8933 11.0849C13.6749 11.0849 14.4389 10.8478 15.0887 10.4036C15.7385 9.95935 16.2449 9.32795 16.544 8.58924C16.843 7.85053 16.9212 7.03769 16.7687 6.25351C16.6162 5.46933 16.2398 4.74903 15.6871 4.18372C15.1344 3.6184 14.4303 3.23346 13.6637 3.07758C12.8972 2.92169 12.1026 3.00186 11.3806 3.30795C10.6586 3.61404 10.0416 4.1323 9.60748 4.79718C9.1734 5.46207 8.94179 6.24372 8.94195 7.04327C8.94322 8.11492 9.35995 9.1423 10.1007 9.89999C10.8415 10.6577 11.8458 11.0838 12.8933 11.0849ZM12.8933 4.63711C13.3585 4.63711 13.8132 4.77823 14.2 5.04262C14.5868 5.30701 14.8882 5.6828 15.0662 6.12247C15.2443 6.56214 15.2908 7.04594 15.2001 7.51269C15.1093 7.97944 14.8853 8.40818 14.5564 8.74469C14.2275 9.08119 13.8084 9.31036 13.3522 9.4032C12.8959 9.49604 12.423 9.44839 11.9933 9.26628C11.5635 9.08416 11.1962 8.77576 10.9377 8.38006C10.6793 7.98437 10.5414 7.51917 10.5414 7.04327C10.5422 6.40538 10.7903 5.79387 11.2312 5.34281C11.6721 4.89176 12.2698 4.63797 12.8933 4.63711Z" stroke="#EBEBF9" stroke-width="0.5"/>
<path d="M5.42905 13.4608C6.03009 13.4608 6.61763 13.2785 7.11737 12.9368C7.61712 12.5952 8.00663 12.1097 8.23663 11.5416C8.46664 10.9735 8.52682 10.3484 8.40956 9.74532C8.29231 9.14225 8.00288 8.58829 7.57788 8.15349C7.15288 7.7187 6.6114 7.4226 6.02191 7.30264C5.43242 7.18268 4.8214 7.24425 4.26611 7.47956C3.71082 7.71486 3.23621 8.11335 2.90229 8.62461C2.56837 9.13587 2.39014 9.73696 2.39014 10.3518C2.39014 11.1764 2.71031 11.9672 3.28021 12.5502C3.85012 13.1332 4.62308 13.4608 5.42905 13.4608ZM5.42905 8.87919C5.71375 8.87919 5.99206 8.96556 6.22878 9.12738C6.4655 9.28919 6.65001 9.51919 6.75896 9.78829C6.86791 10.0574 6.89641 10.3535 6.84087 10.6391C6.78533 10.9248 6.64823 11.1872 6.44692 11.3932C6.2456 11.5991 5.98911 11.7394 5.70988 11.7962C5.43064 11.853 5.14121 11.8239 4.87818 11.7124C4.61515 11.6009 4.39033 11.4122 4.23216 11.17C4.07399 10.9278 3.98956 10.6431 3.98956 10.3518C3.98956 9.96127 4.14122 9.5867 4.41118 9.31052C4.68113 9.03434 5.04727 8.87919 5.42905 8.87919Z" stroke="#EBEBF9" stroke-width="0.5"/>
<path d="M20.3568 13.4608C20.9578 13.4608 21.5454 13.2785 22.0451 12.9368C22.5449 12.5952 22.9344 12.1097 23.1644 11.5416C23.3944 10.9735 23.4546 10.3484 23.3373 9.74532C23.2201 9.14225 22.9306 8.58829 22.5056 8.15349C22.0806 7.7187 21.5391 7.4226 20.9497 7.30264C20.3602 7.18268 19.7491 7.24425 19.1938 7.47956C18.6386 7.71486 18.1639 8.11335 17.83 8.62461C17.4961 9.13587 17.3179 9.73696 17.3179 10.3518C17.3179 11.1764 17.638 11.9672 18.208 12.5502C18.7779 13.1332 19.5508 13.4608 20.3568 13.4608ZM20.3568 8.87919C20.6415 8.87919 20.9198 8.96556 21.1565 9.12738C21.3932 9.28919 21.5777 9.51919 21.6867 9.78829C21.7957 10.0574 21.8242 10.3535 21.7686 10.6391C21.7131 10.9248 21.576 11.1872 21.3747 11.3932C21.1733 11.5991 20.9169 11.7394 20.6376 11.7962C20.3584 11.853 20.069 11.8239 19.8059 11.7124C19.5429 11.6009 19.3181 11.4122 19.1599 11.17C19.0017 10.9278 18.9173 10.6431 18.9173 10.3518C18.9173 9.96127 19.069 9.5867 19.3389 9.31052C19.6089 9.03434 19.975 8.87919 20.3568 8.87919Z" stroke="#EBEBF9" stroke-width="0.5"/>
<path d="M20.4637 15.102C19.7627 15.1067 19.0738 15.2904 18.4596 15.6362C17.8758 14.6905 17.071 13.9084 16.1178 13.3604C15.1647 12.8123 14.0932 12.5156 13 12.497C11.9068 12.5156 10.8353 12.8123 9.88218 13.3604C8.92905 13.9084 8.12425 14.6905 7.54036 15.6362C6.92618 15.2904 6.23735 15.1067 5.53628 15.102C4.27825 15.1648 3.09559 15.7342 2.2465 16.686C1.39741 17.6377 0.950845 18.8945 1.0043 20.1819C1.0043 20.3988 1.08856 20.6069 1.23853 20.7604C1.38851 20.9138 1.59192 21 1.80402 21C2.01611 21 2.21952 20.9138 2.3695 20.7604C2.51947 20.6069 2.60373 20.3988 2.60373 20.1819C2.55132 19.3286 2.82978 18.4886 3.37874 17.8439C3.9277 17.1993 4.70291 16.8021 5.53628 16.7383C5.97821 16.7418 6.41209 16.8597 6.79743 17.0811C6.42053 18.0528 6.22757 19.089 6.22883 20.1344C6.22883 20.3514 6.31309 20.5595 6.46306 20.7129C6.61304 20.8664 6.81645 20.9525 7.02854 20.9525C7.24064 20.9525 7.44405 20.8664 7.59403 20.7129C7.744 20.5595 7.82826 20.3514 7.82826 20.1344C7.82826 16.825 10.1474 14.1333 13 14.1333C15.8526 14.1333 18.1717 16.825 18.1717 20.1344C18.1717 20.3514 18.256 20.5595 18.406 20.7129C18.556 20.8664 18.7594 20.9525 18.9715 20.9525C19.1836 20.9525 19.387 20.8664 19.5369 20.7129C19.6869 20.5595 19.7712 20.3514 19.7712 20.1344C19.7724 19.089 19.5795 18.0528 19.2026 17.0811C19.5879 16.8597 20.0218 16.7418 20.4637 16.7383C21.2971 16.8021 22.0723 17.1993 22.6213 17.8439C23.1702 18.4886 23.4487 19.3286 23.3963 20.1819C23.3963 20.3988 23.4805 20.6069 23.6305 20.7604C23.7805 20.9138 23.9839 21 24.196 21C24.4081 21 24.6115 20.9138 24.7615 20.7604C24.9114 20.6069 24.9957 20.3988 24.9957 20.1819C25.0492 18.8945 24.6026 17.6377 23.7535 16.686C22.9044 15.7342 21.7218 15.1648 20.4637 15.102Z" stroke="#EBEBF9" stroke-width="0.5"/>
</svg>
