<?xml version="1.0" encoding="UTF-8"?>
<svg width="24px" height="24px" viewBox="0 0 24 24" version="1.1" xmlns="http://www.w3.org/2000/svg" xmlns:xlink="http://www.w3.org/1999/xlink">
    <title>AA6B1E3D-6951-4EC8-A68E-AA49F610D9D2</title>
    <defs>
        <filter id="filter-1">
            <feColorMatrix in="SourceGraphic" type="matrix" values="0 0 0 0 0.290222 0 0 0 0 0.290175 0 0 0 0 0.290237 0 0 0 1.000000 0"></feColorMatrix>
        </filter>
    </defs>
    <g id="Wireframes-2.0" stroke="none" stroke-width="1" fill="none" fill-rule="evenodd">
        <g id="congratulate" transform="translate(-165.000000, -172.000000)" filter="url(#filter-1)">
            <g transform="translate(165.000000, 172.000000)">
                <circle id="Oval" fill="#000000" fill-rule="nonzero" cx="11.9829787" cy="1.0893617" r="1.0893617"></circle>
                <circle id="Oval" fill="#000000" fill-rule="nonzero" cx="4.35744681" cy="4.35744681" r="1.0893617"></circle>
                <circle id="Oval" fill="#000000" fill-rule="nonzero" cx="19.6085106" cy="4.35744681" r="1.0893617"></circle>
                <circle id="Oval" fill="#000000" fill-rule="nonzero" cx="19.6085106" cy="19.6085106" r="1.0893617"></circle>
                <circle id="Oval" fill="#000000" fill-rule="nonzero" cx="4.35744681" cy="19.6085106" r="1.0893617"></circle>
                <circle id="Oval" fill="#000000" fill-rule="nonzero" cx="11.9829787" cy="22.8765957" r="1.0893617"></circle>
                <circle id="Oval" fill="#000000" fill-rule="nonzero" cx="1.0893617" cy="11.9829787" r="1.0893617"></circle>
                <circle id="Oval" fill="#000000" fill-rule="nonzero" cx="22.8765957" cy="11.9829787" r="1.0893617"></circle>
                <path d="M11.9829787,3.26808511 C7.16987588,3.26808511 3.26808511,7.16987588 3.26808511,11.9829787 C3.26808511,16.7960816 7.16987588,20.6978723 11.9829787,20.6978723 C16.7960816,20.6978723 20.6978723,16.7960816 20.6978723,11.9829787 C20.6924692,7.1721157 16.7938417,3.27348821 11.9829787,3.26808511 Z M11.9829787,18.5191489 C8.37315159,18.5191489 5.44680851,15.5928059 5.44680851,11.9829787 C5.44680851,8.37315159 8.37315159,5.44680851 11.9829787,5.44680851 C15.5928059,5.44680851 18.5191489,8.37315159 18.5191489,11.9829787 C18.515546,15.5913124 15.5913124,18.515546 11.9829787,18.5191489 Z" id="Shape" fill="#000000" fill-rule="nonzero"></path>
            </g>
        </g>
    </g>
</svg>