<svg width="24" height="24" viewBox="0 0 24 24" fill="none" xmlns="http://www.w3.org/2000/svg">
<path d="M9.74373 8.5606C9.47112 8.5606 9.2222 8.37814 9.14897 8.10245L8.40436 5.28676C8.31759 4.95814 8.51328 4.62122 8.84189 4.53445C9.17112 4.44707 9.50712 4.64337 9.59419 4.97199L10.3388 7.78768C10.4256 8.11629 10.2299 8.45322 9.90127 8.53999C9.84865 8.55383 9.79573 8.5606 9.74373 8.5606Z" fill="#9B9B9B"/>
<path d="M7.94496 10.3601C7.89296 10.3601 7.84003 10.3537 7.78711 10.3395L4.97175 9.5946C4.64345 9.50752 4.44745 9.17091 4.53422 8.84229C4.62099 8.51399 4.95637 8.31676 5.28652 8.40476L8.10188 9.14968C8.43018 9.23676 8.62618 9.57337 8.53941 9.90199C8.4668 10.178 8.21757 10.3601 7.94496 10.3601Z" fill="#9B9B9B"/>
<path d="M18.8712 15.616C18.8192 15.616 18.7663 15.6095 18.7134 15.5954L15.898 14.8505C15.5697 14.7634 15.3737 14.4268 15.4605 14.0982C15.5473 13.7698 15.8823 13.5726 16.2128 13.6606L19.0281 14.4055C19.3565 14.4926 19.5524 14.8292 19.4657 15.1578C19.3928 15.4338 19.1438 15.616 18.8712 15.616Z" fill="#9B9B9B"/>
<path d="M14.9996 19.4862C14.727 19.4862 14.4781 19.3037 14.4048 19.028L13.6602 16.2126C13.5734 15.884 13.7691 15.5471 14.0978 15.4603C14.4273 15.3726 14.763 15.5693 14.8501 15.8979L15.5947 18.7133C15.6814 19.0419 15.4857 19.3788 15.1571 19.4656C15.1045 19.4794 15.0516 19.4862 14.9996 19.4862Z" fill="#9B9B9B"/>
<path d="M15.4805 13.0503C15.323 13.0503 15.1658 12.9903 15.0455 12.87C14.8052 12.6297 14.8052 12.2401 15.0455 11.9995L18.9494 8.09613C19.1897 7.85613 19.5793 7.85582 19.8196 8.09613C20.0599 8.33644 20.0599 8.72598 19.8196 8.96659L15.9156 12.8703C15.7953 12.9903 15.6378 13.0503 15.4805 13.0503Z" fill="#9B9B9B"/>
<path d="M19.3844 9.1473C19.2269 9.1473 19.0696 9.0873 18.9493 8.967L15.0328 5.05038C14.7925 4.81008 14.7925 4.42054 15.0328 4.18023C15.2731 3.93992 15.6626 3.93992 15.9029 4.18023L19.8195 8.09684C20.0598 8.33715 20.0598 8.72669 19.8195 8.967C19.6992 9.087 19.542 9.1473 19.3844 9.1473Z" fill="#9B9B9B"/>
<path d="M11.5645 9.13438C11.407 9.13438 11.2498 9.07438 11.1294 8.95407C10.8891 8.71377 10.8891 8.32423 11.1294 8.08392L15.0325 4.18023C15.2728 3.93992 15.6623 3.93992 15.9026 4.18023C16.1429 4.42054 16.1429 4.81008 15.9026 5.05038L11.9996 8.95407C11.8793 9.07407 11.7221 9.13438 11.5645 9.13438Z" fill="#9B9B9B"/>
<path d="M8.53132 19.9996C8.37378 19.9996 8.21655 19.9396 8.09624 19.8193C7.85594 19.579 7.85594 19.1895 8.09624 18.9492L11.9999 15.0455C12.2402 14.8052 12.6297 14.8052 12.87 15.0455C13.1103 15.2858 13.1103 15.6753 12.87 15.9156L8.96639 19.8193C8.84608 19.9396 8.68855 19.9996 8.53132 19.9996Z" fill="#9B9B9B"/>
<path d="M8.53126 20.0002C8.37372 20.0002 8.2165 19.9402 8.09619 19.8199L4.18023 15.9039C3.93992 15.6636 3.93992 15.2741 4.18023 15.0337C4.42053 14.7934 4.81007 14.7934 5.05037 15.0337L8.96633 18.9501C9.20664 19.1904 9.20664 19.5799 8.96633 19.8202C8.84603 19.9402 8.68849 20.0002 8.53126 20.0002Z" fill="#9B9B9B"/>
<path d="M4.6153 16.0836C4.45776 16.0836 4.30054 16.0236 4.18023 15.9033C3.93992 15.663 3.93992 15.2734 4.18023 15.0331L8.08357 11.1294C8.32388 10.8891 8.71341 10.8891 8.95372 11.1294C9.19402 11.3698 9.19402 11.7593 8.95372 11.9996L5.05037 15.9036C4.93007 16.0236 4.77284 16.0836 4.6153 16.0836Z" fill="#9B9B9B"/>
</svg>
