<svg width="18" height="15" viewBox="0 0 18 15" fill="none" xmlns="http://www.w3.org/2000/svg">
<path fill-rule="evenodd" clip-rule="evenodd" d="M4.90264 14.7165C4.72077 14.9055 4.49473 15 4.22453 15C3.96472 15 3.74648 14.9055 3.56981 14.7165L3.50769 14.6435C3.37243 14.4681 3.3048 14.2576 3.3048 14.0119V13.1007L3.26534 13.0973C2.84477 13.053 2.45262 12.9718 2.08888 12.8537C1.5069 12.6647 0.950909 12.3326 0.420894 11.8575C0.285792 11.7387 0.181868 11.6037 0.109121 11.4525C0.0363736 11.3013 0 11.1501 0 10.9989C0 10.7505 0.0857377 10.5319 0.257213 10.3429C0.428688 10.1539 0.644332 10.0594 0.904143 10.0594C1.1016 10.0594 1.27827 10.1242 1.43416 10.2538C1.82907 10.5886 2.22139 10.8423 2.6111 11.0151L2.76151 11.0759C2.91618 11.1326 3.08363 11.1771 3.26388 11.2095L3.3048 11.2156V8.05076L3.12092 8.01406C2.74764 7.93362 2.40882 7.82976 2.10447 7.70248C1.67838 7.5243 1.32244 7.29752 1.03665 7.02214C0.750854 6.74676 0.535211 6.42279 0.389717 6.05022C0.244223 5.67765 0.171475 5.25918 0.171475 4.79482C0.171475 4.09287 0.345549 3.49352 0.693696 2.99676C1.04184 2.5 1.5121 2.12203 2.10447 1.86285L2.30424 1.78126C2.57367 1.67887 2.85542 1.60207 3.14949 1.55088L3.3048 1.5274V0.988121C3.3048 0.707343 3.39573 0.472462 3.5776 0.283477C3.75947 0.0944924 3.9855 0 4.25571 0C4.52591 0 4.74675 0.0944924 4.91823 0.283477L4.98647 0.367281C5.11245 0.540508 5.17544 0.747454 5.17544 0.988121V1.57802L5.27737 1.59747C5.50755 1.64683 5.73079 1.71099 5.94708 1.78996C6.52386 2.00054 6.99412 2.26782 7.35785 2.59179C7.65924 2.84017 7.80993 3.12635 7.80993 3.45032C7.80993 3.68791 7.72159 3.90389 7.54492 4.09827C7.36825 4.29266 7.1604 4.38985 6.92137 4.38985C6.76548 4.38985 6.62519 4.34125 6.50048 4.24406C6.3342 4.09287 6.11076 3.94978 5.83016 3.81479L5.61679 3.7176C5.5447 3.68655 5.47162 3.65686 5.39758 3.62851L5.17544 3.54887V6.5436L5.2976 6.57469C5.52793 6.63618 5.74443 6.70163 5.94708 6.77106C6.41994 6.93304 6.81225 7.14093 7.12402 7.39471C7.4358 7.64849 7.66963 7.96706 7.82551 8.35043C7.9814 8.7338 8.05934 9.20086 8.05934 9.75162C8.05934 10.4536 7.87228 11.0583 7.49815 11.5659C7.12402 12.0734 6.63298 12.4622 6.02502 12.7322L5.82054 12.8172C5.61423 12.8972 5.40244 12.9622 5.18516 13.0122L5.17544 13.0143V14.0119C5.17544 14.2927 5.08451 14.5275 4.90264 14.7165ZM3.24788 6.07866L3.3046 6.09666V3.4097L3.21823 3.42772C3.11918 3.45196 3.02586 3.48105 2.93827 3.51499C2.63169 3.63378 2.40046 3.79577 2.24457 4.00095C2.08869 4.20614 2.01074 4.44372 2.01074 4.7137C2.01074 5.03767 2.10168 5.30495 2.28354 5.51553C2.46541 5.72612 2.72782 5.8935 3.07077 6.01769L3.24788 6.07866ZM5.17564 11.0622V8.51837L5.19049 8.52406C5.46037 8.64808 5.67472 8.79185 5.83353 8.95535L5.9083 9.03875C6.09537 9.26553 6.1889 9.54091 6.1889 9.86488C6.1889 10.1349 6.09017 10.3751 5.89271 10.5857C5.69526 10.7963 5.43545 10.9637 5.11328 11.0879L5.17564 11.0622ZM16.0178 13.0644C15.7632 13.113 15.5008 13.1373 15.2306 13.1373C14.5239 13.1373 13.8536 13.0131 13.2196 12.7647C12.5857 12.5164 12.0219 12.1492 11.5283 11.6632C11.0346 11.1773 10.6449 10.5698 10.3591 9.84087L10.2777 9.61871L10.2474 9.525H9.52513C9.25492 9.525 9.02889 9.43591 8.84702 9.25772C8.66515 9.07953 8.57422 8.85545 8.57422 8.58547C8.57422 8.3155 8.66515 8.09411 8.84702 7.92133L8.92767 7.85256C9.09437 7.72562 9.29352 7.66215 9.52513 7.66215H9.93758L9.93472 7.59063C9.93186 7.49684 9.93043 7.40189 9.93043 7.30578L9.93433 7.0628H9.52513C9.25492 7.0628 9.02889 6.9737 8.84702 6.79552C8.66515 6.61733 8.57422 6.39325 8.57422 6.12327C8.57422 5.85329 8.66515 5.63191 8.84702 5.45912L8.92767 5.39036C9.09437 5.26342 9.29352 5.19994 9.52513 5.19994H10.2532L10.3202 5.00556C10.58 4.30362 10.9489 3.69616 11.4269 3.18321C11.905 2.67025 12.4662 2.27068 13.1105 1.9845C13.7549 1.69832 14.4615 1.55524 15.2306 1.55524C15.6255 1.55524 16.0178 1.60923 16.4075 1.71722C16.7972 1.82521 17.1584 1.9818 17.4909 2.18699C17.7611 2.32737 17.9196 2.54876 17.9664 2.85113C18.0132 3.15351 17.9378 3.42889 17.7404 3.67727C17.6053 3.87165 17.4312 3.97964 17.2181 4.00124C17.0051 4.02284 16.7894 3.97964 16.5712 3.87165C16.3738 3.75286 16.1607 3.66107 15.9321 3.59627C15.7034 3.53148 15.4696 3.49908 15.2306 3.49908C14.5551 3.49908 13.9575 3.66107 13.4379 3.98504L13.2855 4.08588C12.8885 4.3645 12.5663 4.72087 12.319 5.15499L12.2947 5.19994H14.2641C14.5343 5.19994 14.7603 5.28634 14.9422 5.45912C15.1241 5.63191 15.215 5.85329 15.215 6.12327C15.215 6.39325 15.1241 6.61733 14.9422 6.79552L14.8615 6.86643C14.6948 6.99734 14.4957 7.0628 14.2641 7.0628H11.8063L11.8054 7.08183C11.8025 7.15553 11.8011 7.23018 11.8011 7.30578L11.8049 7.54066L11.8108 7.66215H14.2641C14.5343 7.66215 14.7603 7.74854 14.9422 7.92133C15.1241 8.09411 15.215 8.3155 15.215 8.58547C15.215 8.85545 15.1241 9.07953 14.9422 9.25772L14.8615 9.32863C14.6948 9.45954 14.4957 9.525 14.2641 9.525H12.2837L12.2609 9.4845C12.5675 10.0623 12.9806 10.4915 13.5002 10.7723C14.0199 11.0531 14.5966 11.1935 15.2306 11.1935C15.4696 11.1935 15.7008 11.1665 15.9243 11.1125C16.1477 11.0585 16.3634 10.9613 16.5712 10.8209C16.7894 10.7129 17.0051 10.6751 17.2181 10.7075C17.4312 10.7399 17.6105 10.8533 17.7559 11.0477C17.9638 11.3177 18.0391 11.5957 17.982 11.8819C17.9248 12.1681 17.7663 12.376 17.5065 12.5056C17.2675 12.6459 17.0233 12.762 16.7739 12.8538C16.5244 12.9456 16.2724 13.0158 16.0178 13.0644Z" fill="#BDBDBD"/>
</svg>
