<svg width="24" height="24" viewBox="0 0 24 24" fill="none" xmlns="http://www.w3.org/2000/svg">
<path d="M9.81819 0H1.09092C0.801589 0 0.524112 0.114935 0.319527 0.31952C0.114942 0.524105 7.62939e-06 0.801582 7.62939e-06 1.09091V9.81818C7.62939e-06 10.1075 0.114942 10.385 0.319527 10.5896C0.524112 10.7942 0.801589 10.9091 1.09092 10.9091H9.81819C10.1075 10.9091 10.385 10.7942 10.5896 10.5896C10.7942 10.385 10.9091 10.1075 10.9091 9.81818V1.09091C10.9091 0.801582 10.7942 0.524105 10.5896 0.31952C10.385 0.114935 10.1075 0 9.81819 0ZM8.72728 8.72727H2.18183V2.18182H8.72728V8.72727Z" fill="white"/>
<path d="M22.9091 0H14.1818C13.8925 0 13.615 0.114935 13.4104 0.31952C13.2059 0.524105 13.0909 0.801582 13.0909 1.09091V9.81818C13.0909 10.1075 13.2059 10.385 13.4104 10.5896C13.615 10.7942 13.8925 10.9091 14.1818 10.9091H22.9091C23.1984 10.9091 23.4759 10.7942 23.6805 10.5896C23.8851 10.385 24 10.1075 24 9.81818V1.09091C24 0.801582 23.8851 0.524105 23.6805 0.31952C23.4759 0.114935 23.1984 0 22.9091 0ZM21.8182 8.72727H15.2727V2.18182H21.8182V8.72727Z" fill="white"/>
<path d="M9.81819 13.0909H1.09092C0.801589 13.0909 0.524112 13.2058 0.319527 13.4104C0.114942 13.615 7.62939e-06 13.8925 7.62939e-06 14.1818V22.9091C7.62939e-06 23.1984 0.114942 23.4759 0.319527 23.6805C0.524112 23.8851 0.801589 24 1.09092 24H9.81819C10.1075 24 10.385 23.8851 10.5896 23.6805C10.7942 23.4759 10.9091 23.1984 10.9091 22.9091V14.1818C10.9091 13.8925 10.7942 13.615 10.5896 13.4104C10.385 13.2058 10.1075 13.0909 9.81819 13.0909ZM8.72728 21.8182H2.18183V15.2727H8.72728V21.8182Z" fill="white"/>
<path d="M22.9091 13.0909H14.1818C13.8925 13.0909 13.615 13.2058 13.4104 13.4104C13.2059 13.615 13.0909 13.8925 13.0909 14.1818V22.9091C13.0909 23.1984 13.2059 23.4759 13.4104 23.6805C13.615 23.8851 13.8925 24 14.1818 24H22.9091C23.1984 24 23.4759 23.8851 23.6805 23.6805C23.8851 23.4759 24 23.1984 24 22.9091V14.1818C24 13.8925 23.8851 13.615 23.6805 13.4104C23.4759 13.2058 23.1984 13.0909 22.9091 13.0909ZM21.8182 21.8182H15.2727V15.2727H21.8182V21.8182Z" fill="white"/>
</svg>
