<svg width="16" height="16" viewBox="0 0 16 16" fill="none" xmlns="http://www.w3.org/2000/svg">
<path d="M14.75 2.90909H11V0.727273C11 0.534388 10.921 0.349403 10.7803 0.213013C10.6397 0.0766231 10.4489 0 10.25 0H5.75C5.55109 0 5.36032 0.0766231 5.21967 0.213013C5.07902 0.349403 5 0.534388 5 0.727273V2.90909H1.25C1.05109 2.90909 0.860322 2.98571 0.71967 3.1221C0.579018 3.25849 0.5 3.44348 0.5 3.63636C0.5 3.82925 0.579018 4.01423 0.71967 4.15062C0.860322 4.28701 1.05109 4.36364 1.25 4.36364H2V15.2727C2 15.4656 2.07902 15.6506 2.21967 15.787C2.36032 15.9234 2.55109 16 2.75 16H13.25C13.4489 16 13.6397 15.9234 13.7803 15.787C13.921 15.6506 14 15.4656 14 15.2727V4.36364H14.75C14.9489 4.36364 15.1397 4.28701 15.2803 4.15062C15.421 4.01423 15.5 3.82925 15.5 3.63636C15.5 3.44348 15.421 3.25849 15.2803 3.1221C15.1397 2.98571 14.9489 2.90909 14.75 2.90909ZM6.5 1.45455H9.5V2.90909H6.5V1.45455ZM12.5 14.5455H3.5V4.36364H12.5V14.5455Z" fill="#3030AD"/>
<path d="M8 5.81836C7.80109 5.81836 7.61032 5.89498 7.46967 6.03137C7.32902 6.16776 7.25 6.35275 7.25 6.54563V12.3638C7.25 12.5567 7.32902 12.7417 7.46967 12.8781C7.61032 13.0145 7.80109 13.0911 8 13.0911C8.19891 13.0911 8.38968 13.0145 8.53033 12.8781C8.67098 12.7417 8.75 12.5567 8.75 12.3638V6.54563C8.75 6.35275 8.67098 6.16776 8.53033 6.03137C8.38968 5.89498 8.19891 5.81836 8 5.81836Z" fill="#3030AD"/>
<path d="M5.75 6.5459C5.55109 6.5459 5.36032 6.62252 5.21967 6.75891C5.07902 6.8953 5 7.08029 5 7.27317V11.6368C5 11.8297 5.07902 12.0147 5.21967 12.1511C5.36032 12.2875 5.55109 12.3641 5.75 12.3641C5.94891 12.3641 6.13968 12.2875 6.28033 12.1511C6.42098 12.0147 6.5 11.8297 6.5 11.6368V7.27317C6.5 7.08029 6.42098 6.8953 6.28033 6.75891C6.13968 6.62252 5.94891 6.5459 5.75 6.5459Z" fill="#3030AD"/>
<path d="M9.5 7.27317V11.6368C9.5 11.8297 9.57902 12.0147 9.71967 12.1511C9.86032 12.2875 10.0511 12.3641 10.25 12.3641C10.4489 12.3641 10.6397 12.2875 10.7803 12.1511C10.921 12.0147 11 11.8297 11 11.6368V7.27317C11 7.08029 10.921 6.8953 10.7803 6.75891C10.6397 6.62252 10.4489 6.5459 10.25 6.5459C10.0511 6.5459 9.86032 6.62252 9.71967 6.75891C9.57902 6.8953 9.5 7.08029 9.5 7.27317Z" fill="#3030AD"/>
</svg>
