<svg width="32" height="32" viewBox="0 0 32 32" fill="none" xmlns="http://www.w3.org/2000/svg">
<path d="M22.75 10.9091H19V8.72727C19 8.53439 18.921 8.3494 18.7803 8.21301C18.6397 8.07662 18.4489 8 18.25 8H13.75C13.5511 8 13.3603 8.07662 13.2197 8.21301C13.079 8.3494 13 8.53439 13 8.72727V10.9091H9.25C9.05109 10.9091 8.86032 10.9857 8.71967 11.1221C8.57902 11.2585 8.5 11.4435 8.5 11.6364C8.5 11.8292 8.57902 12.0142 8.71967 12.1506C8.86032 12.287 9.05109 12.3636 9.25 12.3636H10V23.2727C10 23.4656 10.079 23.6506 10.2197 23.787C10.3603 23.9234 10.5511 24 10.75 24H21.25C21.4489 24 21.6397 23.9234 21.7803 23.787C21.921 23.6506 22 23.4656 22 23.2727V12.3636H22.75C22.9489 12.3636 23.1397 12.287 23.2803 12.1506C23.421 12.0142 23.5 11.8292 23.5 11.6364C23.5 11.4435 23.421 11.2585 23.2803 11.1221C23.1397 10.9857 22.9489 10.9091 22.75 10.9091ZM14.5 9.45455H17.5V10.9091H14.5V9.45455ZM20.5 22.5455H11.5V12.3636H20.5V22.5455Z" fill="#3030AD"/>
<path d="M16 13.8181C15.8011 13.8181 15.6103 13.8947 15.4697 14.0311C15.329 14.1675 15.25 14.3525 15.25 14.5454V20.3636C15.25 20.5565 15.329 20.7414 15.4697 20.8778C15.6103 21.0142 15.8011 21.0908 16 21.0908C16.1989 21.0908 16.3897 21.0142 16.5303 20.8778C16.671 20.7414 16.75 20.5565 16.75 20.3636V14.5454C16.75 14.3525 16.671 14.1675 16.5303 14.0311C16.3897 13.8947 16.1989 13.8181 16 13.8181Z" fill="#3030AD"/>
<path d="M13.75 14.5454C13.5511 14.5454 13.3603 14.622 13.2197 14.7584C13.079 14.8948 13 15.0798 13 15.2727V19.6363C13 19.8292 13.079 20.0142 13.2197 20.1506C13.3603 20.287 13.5511 20.3636 13.75 20.3636C13.9489 20.3636 14.1397 20.287 14.2803 20.1506C14.421 20.0142 14.5 19.8292 14.5 19.6363V15.2727C14.5 15.0798 14.421 14.8948 14.2803 14.7584C14.1397 14.622 13.9489 14.5454 13.75 14.5454Z" fill="#3030AD"/>
<path d="M17.5 15.2727V19.6363C17.5 19.8292 17.579 20.0142 17.7197 20.1506C17.8603 20.287 18.0511 20.3636 18.25 20.3636C18.4489 20.3636 18.6397 20.287 18.7803 20.1506C18.921 20.0142 19 19.8292 19 19.6363V15.2727C19 15.0798 18.921 14.8948 18.7803 14.7584C18.6397 14.622 18.4489 14.5454 18.25 14.5454C18.0511 14.5454 17.8603 14.622 17.7197 14.7584C17.579 14.8948 17.5 15.0798 17.5 15.2727Z" fill="#3030AD"/>
<rect x="0.5" y="0.5" width="31" height="31" rx="1.5" stroke="#3030AD"/>
</svg>
