<svg width="24" height="24" viewBox="0 0 24 24" fill="none" xmlns="http://www.w3.org/2000/svg">
<path d="M21.9 4.36364H16.4V1.09091C16.4 0.801582 16.2841 0.524105 16.0778 0.31952C15.8715 0.114935 15.5917 0 15.3 0H8.7C8.40826 0 8.12847 0.114935 7.92218 0.31952C7.71589 0.524105 7.6 0.801582 7.6 1.09091V4.36364H2.1C1.80826 4.36364 1.52847 4.47857 1.32218 4.68316C1.11589 4.88774 1 5.16522 1 5.45455C1 5.74387 1.11589 6.02135 1.32218 6.22593C1.52847 6.43052 1.80826 6.54545 2.1 6.54545H3.2V22.9091C3.2 23.1984 3.31589 23.4759 3.52218 23.6805C3.72847 23.8851 4.00826 24 4.3 24H19.7C19.9917 24 20.2715 23.8851 20.4778 23.6805C20.6841 23.4759 20.8 23.1984 20.8 22.9091V6.54545H21.9C22.1917 6.54545 22.4715 6.43052 22.6778 6.22593C22.8841 6.02135 23 5.74387 23 5.45455C23 5.16522 22.8841 4.88774 22.6778 4.68316C22.4715 4.47857 22.1917 4.36364 21.9 4.36364ZM9.8 2.18182H14.2V4.36364H9.8V2.18182ZM18.6 21.8182H5.4V6.54545H18.6V21.8182Z" fill="white"/>
<path d="M12.0002 8.72729C11.7085 8.72729 11.4287 8.84223 11.2224 9.04682C11.0161 9.2514 10.9002 9.52888 10.9002 9.8182V18.5455C10.9002 18.8348 11.0161 19.1123 11.2224 19.3169C11.4287 19.5215 11.7085 19.6364 12.0002 19.6364C12.2919 19.6364 12.5717 19.5215 12.778 19.3169C12.9843 19.1123 13.1002 18.8348 13.1002 18.5455V9.8182C13.1002 9.52888 12.9843 9.2514 12.778 9.04682C12.5717 8.84223 12.2919 8.72729 12.0002 8.72729Z" fill="white"/>
<path d="M8.69998 9.81812C8.40824 9.81812 8.12845 9.93305 7.92216 10.1376C7.71587 10.3422 7.59998 10.6197 7.59998 10.909V17.4545C7.59998 17.7438 7.71587 18.0213 7.92216 18.2259C8.12845 18.4305 8.40824 18.5454 8.69998 18.5454C8.99171 18.5454 9.2715 18.4305 9.47779 18.2259C9.68408 18.0213 9.79998 17.7438 9.79998 17.4545V10.909C9.79998 10.6197 9.68408 10.3422 9.47779 10.1376C9.2715 9.93305 8.99171 9.81812 8.69998 9.81812Z" fill="white"/>
<path d="M14.1999 10.909V17.4545C14.1999 17.7438 14.3158 18.0213 14.5221 18.2259C14.7284 18.4305 15.0082 18.5454 15.2999 18.5454C15.5916 18.5454 15.8714 18.4305 16.0777 18.2259C16.284 18.0213 16.3999 17.7438 16.3999 17.4545V10.909C16.3999 10.6197 16.284 10.3422 16.0777 10.1376C15.8714 9.93305 15.5916 9.81812 15.2999 9.81812C15.0082 9.81812 14.7284 9.93305 14.5221 10.1376C14.3158 10.3422 14.1999 10.6197 14.1999 10.909Z" fill="white"/>
</svg>
