<svg width="20" height="22" viewBox="0 0 20 22" fill="none" xmlns="http://www.w3.org/2000/svg">
<path id="Sort-Alphabet-Ascending-path Copy 3" 
d="M11.2808 21.4252C10.9637 21.7892 10.495 22 9.99998 22C9.505 22 9.03627 21.7892 8.71919 21.4248L0.386157 11.8248C-0.202989 11.1452 -0.107159 10.1356 0.599482 9.57C1.30904 9.0044 2.35734 9.0964 2.94815 9.7748L8.33337 15.98V1.6C8.33337 0.7156 9.07876 0 9.99998 0C10.9212 0 11.6666 0.7156 11.6666 1.6V15.98L17.0522 9.7752C17.6414 9.0972 18.6913 9.0048 19.4009 9.5704C20.1071 10.136 20.203 11.1452 19.6138 11.8252L11.2808 21.4252Z" fill="currentcolor"/>
</svg>
