<?xml version="1.0" encoding="UTF-8"?>
<svg width="20px" height="17px" viewBox="0 0 20 17" version="1.1" xmlns="http://www.w3.org/2000/svg" xmlns:xlink="http://www.w3.org/1999/xlink">
    <title>560E157F-D5DD-4B2D-BB85-4B45C2963AF9</title>
    <defs>
        <filter id="filter-1">
            <feColorMatrix in="SourceGraphic" type="matrix" values="0 0 0 0 0.290222 0 0 0 0 0.290175 0 0 0 0 0.290237 0 0 0 1.000000 0"></feColorMatrix>
        </filter>
    </defs>
    <g id="Components-Prototype" stroke="none" stroke-width="1" fill="none" fill-rule="evenodd">
        <g id="13.X.4-Blueprints---Components---New-Component---Second-Name-Field" transform="translate(-718.000000, -278.000000)">
            <g id="mail" transform="translate(708.000000, 266.000000)" filter="url(#filter-1)">
                <g transform="translate(10.000000, 12.000000)">
                    <path d="M19.0638298,0 L0.907801418,0 C0.406436539,0 0,0.406436539 0,0.907801418 L0,15.4326241 C0,15.933989 0.406436539,16.3404255 0.907801418,16.3404255 L19.0638298,16.3404255 C19.5651947,16.3404255 19.9716312,15.933989 19.9716312,15.4326241 L19.9716312,0.907801418 C19.9716312,0.406436539 19.5651947,0 19.0638298,0 Z M16.8723972,1.81560284 L9.9858156,8.7021844 L3.09923404,1.81560284 L16.8723972,1.81560284 Z M1.81560284,14.5248227 L1.81560284,3.09923404 L9.344,10.6276312 C9.69849632,10.9820205 10.2731349,10.9820205 10.6276312,10.6276312 L18.1560284,3.09923404 L18.1560284,14.5248227 L1.81560284,14.5248227 Z" id="Shape" fill="#000000" fill-rule="nonzero"></path>
                </g>
            </g>
        </g>
    </g>
</svg>