<?xml version="1.0" encoding="UTF-8"?>
<svg width="16px" height="16px" viewBox="0 0 16 16" version="1.1" xmlns="http://www.w3.org/2000/svg" xmlns:xlink="http://www.w3.org/1999/xlink">
    <title>A63FDE40-9624-4F36-8CF5-247B42C79692</title>
    <g id="Wireframes-2.0" stroke="none" stroke-width="1" fill="none" fill-rule="evenodd">
        <g id="6.0-Components" transform="translate(-201.000000, -676.000000)" fill="#4A4A4A" fill-rule="nonzero">
            <path d="M204.946667,692 L214.269333,676.632653 L213.16,676 L203.837333,691.367347 L204.946667,692 Z M203.858667,685.081633 C204.299556,685.081633 204.697778,685.013605 205.053333,684.877551 C205.408889,684.741497 205.714667,684.557823 205.970667,684.326531 C206.226667,684.095238 206.422222,683.823129 206.557333,683.510204 C206.692444,683.197279 206.76,682.863946 206.76,682.510204 L206.76,682.510204 L206.76,679.591837 C206.76,679.22449 206.692444,678.880952 206.557333,678.561224 C206.422222,678.241497 206.226667,677.959184 205.970667,677.714286 C205.714667,677.469388 205.408889,677.27551 205.053333,677.132653 C204.697778,676.989796 204.299556,676.918367 203.858667,676.918367 C203.432,676.918367 203.040889,676.986395 202.685333,677.122449 C202.329778,677.258503 202.027556,677.445578 201.778667,677.683673 C201.529778,677.921769 201.337778,678.197279 201.202667,678.510204 C201.067556,678.823129 201,679.156463 201,679.510204 L201,679.510204 L201,682.428571 C201,682.795918 201.067556,683.139456 201.202667,683.459184 C201.337778,683.778912 201.529778,684.057823 201.778667,684.295918 C202.027556,684.534014 202.326222,684.72449 202.674667,684.867347 C203.023111,685.010204 203.417778,685.081633 203.858667,685.081633 Z M203.858667,684.142857 C203.346667,684.142857 202.937778,683.972789 202.632,683.632653 C202.326222,683.292517 202.173333,682.891156 202.173333,682.428571 L202.173333,682.428571 L202.173333,679.591837 C202.173333,679.129252 202.326222,678.727891 202.632,678.387755 C202.937778,678.047619 203.346667,677.877551 203.858667,677.877551 C204.399111,677.877551 204.822222,678.047619 205.128,678.387755 C205.433778,678.727891 205.586667,679.129252 205.586667,679.591837 L205.586667,679.591837 L205.586667,682.428571 C205.586667,682.891156 205.433778,683.292517 205.128,683.632653 C204.822222,683.972789 204.399111,684.142857 203.858667,684.142857 Z M214.12,691.510204 C214.546667,691.510204 214.937778,691.442177 215.293333,691.306122 C215.648889,691.170068 215.954667,690.982993 216.210667,690.744898 C216.466667,690.506803 216.662222,690.234694 216.797333,689.928571 C216.932444,689.622449 217,689.292517 217,688.938776 L217,688.938776 L217,686 C217,685.646259 216.932444,685.309524 216.797333,684.989796 C216.662222,684.670068 216.470222,684.387755 216.221333,684.142857 C215.972444,683.897959 215.670222,683.704082 215.314667,683.561224 C214.959111,683.418367 214.560889,683.346939 214.12,683.346939 C213.693333,683.346939 213.302222,683.414966 212.946667,683.55102 C212.591111,683.687075 212.285333,683.87415 212.029333,684.112245 C211.773333,684.35034 211.577778,684.62585 211.442667,684.938776 C211.307556,685.251701 211.24,685.578231 211.24,685.918367 L211.24,685.918367 L211.24,688.857143 C211.24,689.210884 211.307556,689.547619 211.442667,689.867347 C211.577778,690.187075 211.769778,690.469388 212.018667,690.714286 C212.267556,690.959184 212.569778,691.153061 212.925333,691.295918 C213.280889,691.438776 213.679111,691.510204 214.12,691.510204 Z M214.12,690.55102 C213.593778,690.55102 213.177778,690.384354 212.872,690.05102 C212.566222,689.717687 212.413333,689.319728 212.413333,688.857143 L212.413333,688.857143 L212.413333,686 C212.413333,685.537415 212.566222,685.139456 212.872,684.806122 C213.177778,684.472789 213.593778,684.306122 214.12,684.306122 C214.646222,684.306122 215.062222,684.472789 215.368,684.806122 C215.673778,685.139456 215.826667,685.537415 215.826667,686 L215.826667,686 L215.826667,688.857143 C215.826667,689.319728 215.673778,689.717687 215.368,690.05102 C215.062222,690.384354 214.646222,690.55102 214.12,690.55102 Z" id="%-copy"></path>
        </g>
    </g>
</svg>