<svg width="24" height="28" viewBox="0 0 24 28" fill="none" xmlns="http://www.w3.org/2000/svg">
<path fill-rule="evenodd" clip-rule="evenodd" d="M21.8303 10.205H22.4811C23.3196 10.205 24 10.8741 24 11.6997V19.4722C24 20.2973 23.3197 20.9667 22.4811 20.9667H21.8304V26.2874C21.8304 26.8639 21.3535 27.3332 20.7676 27.3332H3.23236C2.64599 27.3332 2.16962 26.8638 2.16962 26.2874V20.9667H1.51899C0.680156 20.9667 0 20.2973 0 19.4722V11.6995C0 10.8738 0.680156 10.2048 1.51899 10.2048H2.16957V1.7123C2.16957 1.13578 2.64594 0.666504 3.23232 0.666504H16.0735C16.115 0.666504 16.156 0.672265 16.1954 0.681464C16.2006 0.682794 16.2056 0.68453 16.2105 0.686272L16.2105 0.686276C16.2149 0.687829 16.2193 0.689385 16.224 0.690663C16.2603 0.701362 16.2956 0.716177 16.3288 0.734042C16.3407 0.740529 16.3522 0.746823 16.3635 0.754328C16.4019 0.77897 16.4382 0.807438 16.4694 0.841667C16.47 0.842664 16.4709 0.843253 16.4717 0.843896L16.4736 0.845346L21.6986 6.71859C21.7839 6.81406 21.8236 6.93456 21.8246 7.05724L21.8257 7.06549V7.06551V7.06553V7.06555V7.06557C21.828 7.08228 21.8303 7.09891 21.8303 7.11544V10.205ZM15.5415 1.71224H3.23177V10.2051H20.767V7.58553H16.0729C15.7797 7.58553 15.5415 7.35154 15.5415 7.06265V1.71224ZM20.767 26.0044H3.23177V20.9668H20.767V26.0044ZM6 18C7.10457 18 8 17.1046 8 16C8 14.8954 7.10457 14 6 14C4.89543 14 4 14.8954 4 16C4 17.1046 4.89543 18 6 18ZM14 16C14 17.1046 13.1046 18 12 18C10.8954 18 10 17.1046 10 16C10 14.8954 10.8954 14 12 14C13.1046 14 14 14.8954 14 16ZM18 18C19.1046 18 20 17.1046 20 16C20 14.8954 19.1046 14 18 14C16.8954 14 16 14.8954 16 16C16 17.1046 16.8954 18 18 18Z" fill="#333333"/>
</svg>
