<svg width="24" height="24" viewBox="0 0 24 24" fill="none" xmlns="http://www.w3.org/2000/svg">
<path d="M4.5 3.75L19.5 20.25" stroke="#3030AD" stroke-width="2" stroke-linecap="round" stroke-linejoin="round"/>
<path d="M14.522 14.7746C13.8338 15.405 12.9334 15.7532 12.0001 15.7496C11.2432 15.7495 10.5041 15.5204 9.87984 15.0924C9.25561 14.6644 8.77551 14.0575 8.50265 13.3515C8.22979 12.6455 8.17695 11.8735 8.35107 11.1369C8.52519 10.4003 8.91812 9.73369 9.47821 9.22461" stroke="#3030AD" stroke-width="2" stroke-linecap="round" stroke-linejoin="round"/>
<path d="M6.9375 6.43164C3.1125 8.36289 1.5 12.0004 1.5 12.0004C1.5 12.0004 4.5 18.7504 12 18.7504C13.7574 18.7647 15.4929 18.3598 17.0625 17.5691" stroke="#3030AD" stroke-width="2" stroke-linecap="round" stroke-linejoin="round"/>
<path d="M19.5564 15.8531C21.6002 14.025 22.5002 12 22.5002 12C22.5002 12 19.5002 5.25002 12.0002 5.25002C11.35 5.24874 10.7008 5.30205 10.0596 5.4094" stroke="#3030AD" stroke-width="2" stroke-linecap="round" stroke-linejoin="round"/>
<path d="M12.7031 8.31641C13.5006 8.46751 14.2273 8.8739 14.7735 9.47426C15.3198 10.0746 15.6559 10.8364 15.7313 11.6445" stroke="#3030AD" stroke-width="2" stroke-linecap="round" stroke-linejoin="round"/>
</svg>
