<svg width="48" height="48" viewBox="0 0 48 48" fill="none" xmlns="http://www.w3.org/2000/svg">
<g id="hide">
<path id="Path" d="M22.493 13.8542C18.0785 14.5452 14.6155 18.0081 13.9246 22.4226C13.8561 22.8752 13.9715 23.3365 14.2451 23.7034C14.5188 24.0704 14.9279 24.3127 15.3812 24.3762H15.6211C16.4756 24.3859 17.2067 23.7645 17.3348 22.9196C17.7826 19.9447 20.1179 17.6094 23.0928 17.1616C24.0392 17.0196 24.6914 16.1373 24.5494 15.1909C24.4074 14.2444 23.5251 13.5923 22.5787 13.7343L22.493 13.8542Z" fill="#BDBDBD"/>
<path id="Path_2" d="M5.5967 32.5685C5.91968 32.9168 6.37271 33.1154 6.84768 33.1169C7.53119 33.1216 8.1521 32.7196 8.42763 32.0941C8.70317 31.4685 8.58062 30.7391 8.11581 30.2379C6.36835 28.3552 4.86556 26.2593 3.6431 24.0001C5.15114 21.1212 11.7145 10.2907 24.0016 10.2907C25.5894 10.2916 27.1714 10.4815 28.7142 10.8562C29.167 10.9856 29.653 10.923 30.0582 10.6832C30.4634 10.4433 30.7521 10.0473 30.8563 9.58809C31.0709 8.67055 30.5044 7.75192 29.5882 7.53167C27.7599 7.08361 25.884 6.85919 24.0016 6.86334C7.65311 6.86334 0.455655 22.6292 0.164329 23.2975C-0.0365472 23.7444 -0.0365472 24.2559 0.164329 24.7028C1.57389 27.5802 3.40483 30.2313 5.5967 32.5685Z" fill="#BDBDBD"/>
<path id="Shape" fill-rule="evenodd" clip-rule="evenodd" d="M38.5506 11.8828L47.496 2.93741C48.168 2.26543 48.168 1.17595 47.496 0.503979C46.8241 -0.167993 45.7346 -0.167993 45.0626 0.503979L0.506904 45.0597C0.182482 45.3814 0 45.8195 0 46.2764C0 46.7333 0.182482 47.1713 0.506904 47.4931C0.828676 47.8175 1.26669 48 1.72362 48C2.18055 48 2.61856 47.8175 2.94033 47.4931L12.3827 38.0507C15.9174 40.0817 19.9248 41.1457 24.0015 41.1353C40.35 41.1353 47.5474 25.3695 47.8388 24.7011C48.0396 24.2543 48.0396 23.7428 47.8388 23.2959C45.6688 18.8233 42.4891 14.9161 38.5506 11.8828ZM30.8562 23.9985C30.8562 27.7843 27.7872 30.8533 24.0015 30.8533C22.7951 30.8359 21.614 30.5052 20.5741 29.8936L29.8965 20.5712C30.5082 21.6111 30.8389 22.7922 30.8562 23.9985ZM14.9018 35.5145C17.7153 36.9646 20.8363 37.7169 24.0015 37.708C36.2886 37.708 42.8519 26.8775 44.36 23.9985C42.3381 20.2123 39.5131 16.9136 36.0829 14.3334L32.3814 18.0521C35.2591 22.1403 34.7791 27.7059 31.244 31.241C27.7088 34.7762 22.1432 35.2562 18.055 32.3784L14.9018 35.5145Z" fill="#BDBDBD"/>
</g>
</svg>
