<?xml version="1.0" encoding="UTF-8"?>
<svg width="16px" height="16px" viewBox="0 0 16 16" version="1.1" xmlns="http://www.w3.org/2000/svg" xmlns:xlink="http://www.w3.org/1999/xlink">
    <title>496F6E6A-4274-47EA-94AA-DDED79A27C0D</title>
    <g id="Components-Prototype" stroke="none" stroke-width="1" fill="none" fill-rule="evenodd">
        <g id="13.X.10-Blueprints---Components---New-Component---SalesPerson" transform="translate(-863.000000, -328.000000)" fill="#4A4A4A" fill-rule="nonzero">
            <g id="Group-12" transform="translate(863.000000, 328.000000)">
                <path d="M8,-5.95079541e-14 C12.418278,-5.95079541e-14 16,3.581722 16,8 C15.9951012,12.4162473 12.4162473,15.9951012 8,16 C3.581722,16 -3.67794684e-12,12.418278 -3.67794684e-12,8 C-3.67794684e-12,3.581722 3.581722,-5.95079541e-14 8,-5.95079541e-14 Z M8,11.5555556 C7.50908022,11.5555556 7.11111111,11.9535247 7.11111111,12.4444444 C7.11111111,12.9353642 7.50908022,13.3333333 8,13.3333333 C8.49091978,13.3333333 8.88888889,12.9353642 8.88888889,12.4444444 C8.88888889,11.9535247 8.49091978,11.5555556 8,11.5555556 Z M8,1.77777778 C7.50908022,1.77777778 7.11111111,2.17574689 7.11111111,2.66666667 L7.11111111,9.77777778 C7.11111111,10.2686976 7.50908022,10.6666667 8,10.6666667 C8.49091978,10.6666667 8.88888889,10.2686976 8.88888889,9.77777778 L8.88888889,2.66666667 C8.88888889,2.17574689 8.49091978,1.77777778 8,1.77777778 Z" id="Combined-Shape-Copy-4"></path>
            </g>
        </g>
    </g>
</svg>