<svg width="32" height="32" viewBox="0 0 32 32" fill="none" xmlns="http://www.w3.org/2000/svg">
<g id="information">
<path id="Shape" fill-rule="evenodd" clip-rule="evenodd" d="M0 16C0 7.15669 7.15606 0 16 0C24.8433 0 32 7.15606 32 16C32 24.8433 24.8439 32 16 32C7.15669 32 0 24.8439 0 16ZM2.5 16C2.5 23.4616 8.53794 29.5 16 29.5C23.4615 29.5 29.5 23.4621 29.5 16C29.5 8.53844 23.4621 2.5 16 2.5C8.53844 2.5 2.5 8.53794 2.5 16Z" fill="#4A4A4A"/>
<path id="Path" d="M16 13.3956C15.3096 13.3956 14.75 13.9553 14.75 14.6456V22.6952C14.75 23.3856 15.3096 23.9452 16 23.9452C16.6904 23.9452 17.25 23.3855 17.25 22.6951V14.6456C17.25 13.9553 16.6904 13.3956 16 13.3956Z" fill="#4A4A4A"/>
<circle id="Oval" cx="16" cy="10.1775" r="1.6875" fill="#4A4A4A"/>
</g>
</svg>
