<svg width="32" height="32" viewBox="0 0 32 32" fill="none" xmlns="http://www.w3.org/2000/svg">
<g id="information">
<path id="Shape" fill-rule="evenodd" clip-rule="evenodd" d="M0 16C0 7.15669 7.15606 0 16 0C24.8433 0 32 7.15606 32 16C32 24.8433 24.8439 32 16 32C7.15669 32 0 24.8439 0 16ZM2.5 16C2.5 23.4616 8.53794 29.5 16 29.5C23.4615 29.5 29.5 23.4621 29.5 16C29.5 8.53844 23.4621 2.5 16 2.5C8.53844 2.5 2.5 8.53794 2.5 16Z" fill="#4A4A4A"/>
<path id="Path" d="M16 13.3984C15.3096 13.3984 14.75 13.9581 14.75 14.6484V22.698C14.75 23.3884 15.3096 23.948 16 23.948C16.6904 23.948 17.25 23.3883 17.25 22.6979V14.6484C17.25 13.9581 16.6904 13.3984 16 13.3984Z" fill="#4A4A4A"/>
<circle id="Oval" cx="16" cy="10.1797" r="1.6875" fill="#4A4A4A"/>
</g>
</svg>
