<?xml version="1.0" encoding="UTF-8"?>
<svg width="64px" height="64px" viewBox="0 0 64 64" version="1.1" xmlns="http://www.w3.org/2000/svg" xmlns:xlink="http://www.w3.org/1999/xlink">
    <title>45D6636E-F1B1-4A0D-8B53-D72B4499C2BB</title>
    <defs>
        <filter id="filter-1">
            <feColorMatrix in="SourceGraphic" type="matrix" values="0 0 0 0 0.823529 0 0 0 0 0.823529 0 0 0 0 0.823529 0 0 0 1.000000 0"></feColorMatrix>
        </filter>
    </defs>
    <g id="Wireframes-2.0" stroke="none" stroke-width="1" fill="none" fill-rule="evenodd">
        <g id="attention" transform="translate(-189.000000, -145.000000)" filter="url(#filter-1)">
            <g transform="translate(189.000000, 145.000000)">
                <path d="M54.481409,9.16078431 C41.9095961,-3.07272924 21.8638183,-2.92594113 9.47180153,9.49037369 C-2.92021522,21.9066885 -3.06671608,41.9917718 9.14285714,54.5882353 C17.4895079,62.9414682 29.7357576,66.0357752 41.0376517,62.6472157 C42.686419,62.1433677 43.6186466,60.3990282 43.1232366,58.7447691 C42.6278267,57.0905101 40.891129,56.1485856 39.2378865,56.6374902 C36.828742,57.3606373 34.3270628,57.7271761 31.8121331,57.7254902 C17.5855969,57.7254902 6.01174168,46.1289412 6.01174168,31.8745098 C6.01174168,17.6200784 17.5855969,6.02352941 31.8121331,6.02352941 C46.0386693,6.02352941 57.6125245,17.6200784 57.6125245,31.8745098 C57.6215303,36.9134005 56.1539326,41.8440743 53.3917808,46.054902 C52.4679974,47.5017356 52.8771006,49.4238873 54.309604,50.3672494 C55.7421073,51.3106116 57.6653954,50.9244353 58.624501,49.5008627 C66.9557268,36.768711 65.2259203,19.9260889 54.481409,9.16078431 Z" id="Path" fill="#000000" fill-rule="nonzero"></path>
                <path d="M28.6810176,16.5647059 L28.6810176,36.5176471 C28.6810176,38.2503051 30.0828658,39.654902 31.8121331,39.654902 C33.5414004,39.654902 34.9432485,38.2503051 34.9432485,36.5176471 L34.9432485,16.5647059 C34.9432485,14.8320478 33.5414004,13.427451 31.8121331,13.427451 C30.0828658,13.427451 28.6810176,14.8320478 28.6810176,16.5647059 Z" id="Path" fill="#000000" fill-rule="nonzero"></path>
                <path d="M31.8121331,50.3215686 C30.0828658,50.3215686 28.6810176,48.9169718 28.6810176,47.1843137 C28.6810176,45.4516557 30.0828658,44.0470588 31.8121331,44.0470588 C33.5414004,44.0470588 34.9432485,45.4516557 34.9432485,47.1843137 C34.9432485,48.9169718 33.5414004,50.3215686 31.8121331,50.3215686 Z" id="Path" fill="#000000" fill-rule="nonzero"></path>
            </g>
        </g>
    </g>
</svg>