<svg width="16" height="16" viewBox="0 0 16 16" fill="none" xmlns="http://www.w3.org/2000/svg">
<path d="M10.6667 14.6596H9.33335V13.3193H6.66669V14.6596H5.33335C4.96535 14.6596 4.66669 14.9599 4.66669 15.3298C4.66669 15.6998 4.96535 16 5.33335 16H10.6667C11.0354 16 11.3334 15.6998 11.3334 15.3298C11.3334 14.9599 11.0354 14.6596 10.6667 14.6596Z" fill="#3030AD"/>
<path d="M14.8333 2.59645H14.2933C14.1533 3.05217 13.9667 3.50119 13.7467 3.9368H14.6667V11.9789H1.33333V3.9368H2.58667C2.65333 3.62182 2.80667 3.33364 3.04 3.09908C3.22 2.91814 3.42 2.74389 3.64 2.59645H1.16667C0.526667 2.59645 0 3.12589 0 3.76926V12.1465C0 12.7898 0.526667 13.3193 1.16667 13.3193H14.8333C15.4733 13.3193 16 12.7898 16 12.1465V3.76926C16 3.12589 15.4733 2.59645 14.8333 2.59645Z" fill="#3030AD"/>
<path d="M13.2599 0.0980561C13.1959 0.0337192 13.1006 -0.00314052 13.0179 0.00021036C11.1332 0.0357297 8.93455 1.14152 7.53855 2.74793C6.02855 2.80155 4.76788 3.25928 3.98188 4.04942C3.89655 4.1352 3.86388 4.26052 3.89655 4.37713C3.92922 4.49441 4.02255 4.58422 4.13988 4.61236L5.55922 4.95415L5.55055 4.96354C5.43188 5.09556 5.43722 5.29862 5.56255 5.42462L7.96055 7.83524C8.02522 7.90092 8.11055 7.93309 8.19655 7.93309C8.27655 7.93309 8.35588 7.90494 8.41922 7.8473L8.42855 7.83859L8.76855 9.2654C8.79655 9.38335 8.88588 9.47717 9.00255 9.51001C9.03255 9.51872 9.06255 9.52275 9.09322 9.52275C9.18055 9.52275 9.26522 9.48857 9.32922 9.4249C10.1159 8.63409 10.5705 7.36746 10.6245 5.84884C12.2246 4.4408 13.3225 2.23324 13.3579 0.34066C13.3592 0.250186 13.3239 0.162393 13.2599 0.0980561Z" fill="#3030AD"/>
<path d="M4.50146 6.93385C4.05413 7.38354 3.48146 9.25132 3.37146 9.62126C3.33613 9.73921 3.36879 9.86721 3.45479 9.95433C3.51813 10.018 3.60346 10.0522 3.69079 10.0522C3.72279 10.0522 3.75479 10.0475 3.78679 10.0381C4.15479 9.92753 6.01213 9.35252 6.46013 8.90216C7.00013 8.35931 7.00013 7.47669 6.46013 6.93318C5.91879 6.39034 5.04079 6.39101 4.50146 6.93385Z" fill="#3030AD"/>
</svg>
