<svg width="122" height="124" viewBox="0 0 122 124" fill="none" xmlns="http://www.w3.org/2000/svg">
<path d="M13.5742 61.5151C13.5742 71.0086 16.3894 80.2889 21.6637 88.1825C26.938 96.0761 34.4346 102.228 43.2054 105.861C51.9763 109.494 61.6275 110.445 70.9386 108.593C80.2496 106.741 88.8024 102.169 95.5153 95.4563C102.228 88.7433 106.8 80.1906 108.652 70.8795C110.504 61.5684 109.553 51.9172 105.92 43.1463C102.287 34.3755 96.1351 26.8789 88.2416 21.6046C80.348 16.3303 71.0677 13.5151 61.5742 13.5151" stroke="#3030AD" stroke-width="3" stroke-linecap="round"/>
<path d="M119.956 46.4709C116.884 35.0083 110.483 24.714 101.561 16.8896C92.6388 9.06524 81.5969 4.06225 69.8316 2.51331C58.0662 0.964369 46.1058 2.93905 35.4627 8.18763C24.8196 13.4362 15.9719 21.723 10.0385 32C4.10504 42.277 1.35234 54.0827 2.12846 65.9242C2.90459 77.7656 7.1747 89.111 14.3988 98.5257C21.6229 107.94 31.4765 115.001 42.7136 118.816C53.9507 122.63 66.0666 123.027 77.5291 119.956" stroke="#EBEBF9" stroke-width="3" stroke-linecap="round"/>
<path fill-rule="evenodd" clip-rule="evenodd" d="M55.6632 57.6168L56.6081 57.2766V55.7772C56.6081 55.7436 56.6107 55.7107 56.6147 55.6782C55.905 54.9723 55.4636 54.0005 55.4636 52.9363V50.6748C55.4636 48.5316 57.2183 46.7881 59.3751 46.7881C61.532 46.7881 63.2867 48.5316 63.2867 50.6748V52.8676C63.2867 53.9027 62.867 54.9143 62.1342 55.6568C62.14 55.6962 62.1441 55.7363 62.1441 55.7773V57.2463L63.1452 57.607C64.6315 58.1431 65.7277 59.4363 66.0059 60.9822L66.306 62.6496C66.4551 63.4761 66.2294 64.3197 65.6869 64.9638C65.1445 65.6079 64.3486 65.9773 63.5031 65.9773H55.2864C54.4343 65.9773 53.6343 65.603 53.0911 64.9504C52.5482 64.2979 52.3286 63.447 52.4886 62.6159L52.8118 60.9395C53.1042 59.4186 54.1969 58.1453 55.6632 57.6168ZM64.6806 62.9384L64.3805 61.2708C64.2055 60.299 63.5163 59.486 62.5819 59.1491L61.9295 58.9141L61.9198 58.9249C61.9141 58.9314 61.9084 58.9379 61.9022 58.944C61.8891 58.957 61.8744 58.9707 61.8604 58.9827C61.1526 59.5971 60.2645 59.9043 59.3765 59.9045C58.488 59.9045 57.5992 59.5968 56.8905 58.9817C56.8741 58.9674 56.859 58.952 56.8439 58.9366L56.2259 59.1591C55.3043 59.4911 54.6174 60.2915 54.4337 61.2476L54.1104 62.9242C54.0432 63.2731 54.1356 63.6305 54.3637 63.9047C54.592 64.1792 54.9283 64.3364 55.2864 64.3364H63.5031C63.8584 64.3364 64.1928 64.1812 64.4206 63.9106C64.6484 63.64 64.7432 63.2858 64.6806 62.9384ZM57.1144 50.6748C57.1144 49.4364 58.1284 48.4287 59.3747 48.4287C60.4255 48.4287 61.3084 49.1459 61.5606 50.1128C61.4565 50.1633 61.3494 50.2109 61.2395 50.2545C60.2314 50.6557 59.418 50.6031 59.1857 50.441C58.8123 50.1808 58.2977 50.2707 58.0357 50.6416C57.7739 51.0126 57.8643 51.524 58.2376 51.7842C58.6394 52.0642 59.1847 52.2041 59.8067 52.2041C60.3699 52.2041 60.996 52.0884 61.6352 51.8591V52.8675C61.6352 53.4901 61.3761 54.0999 60.9242 54.5403C60.7145 54.7447 60.4748 54.9022 60.2169 55.0108C60.1992 55.0175 60.1821 55.0245 60.1651 55.0322C59.9014 55.1354 59.6196 55.1875 59.3304 55.182C58.1086 55.1586 57.1145 54.1511 57.1145 52.9362V50.6748H57.1144ZM59.3735 56.8227C59.3485 56.8227 59.3236 56.8225 59.2986 56.8221C58.9384 56.8152 58.59 56.7577 58.2592 56.6587V57.9527C58.9409 58.3696 59.8117 58.3697 60.4928 57.953V56.6562C60.1334 56.7658 59.7572 56.8227 59.3735 56.8227Z" fill="#3030AD"/>
<path fill-rule="evenodd" clip-rule="evenodd" d="M77.8671 34C83.4544 34 88 38.5166 88 44.0684C88 49.344 83.8952 53.6845 78.6925 54.1033V59.6198L82.1894 63.1342L82.1911 63.1361L82.1928 63.138C82.4493 63.3884 82.6005 63.7339 82.6005 64.0995V86.3837C82.6005 88.3778 80.9678 90 78.961 90H39.6394C37.6326 90 36 88.3776 36 86.3837V64.1097C36 63.7834 36.1217 63.4738 36.3295 63.2321C36.3526 63.2003 36.3775 63.1692 36.4058 63.1401L40.0951 59.3571V44.152C40.0951 42.0023 41.8552 40.2535 44.0186 40.2535H65.5426C65.9986 40.2535 66.3682 40.6207 66.3682 41.0738C66.3682 41.527 65.9986 41.8941 65.5426 41.8941H44.0187C42.7658 41.8941 41.7465 42.907 41.7465 44.152V65.0802L54.2474 72.3103C54.6414 72.5382 54.7749 73.0404 54.5455 73.432C54.3161 73.8234 53.8106 73.9561 53.4166 73.7282L37.6512 64.61V86.3841C37.6512 87.4734 38.5431 88.3597 39.6394 88.3597H78.9609C80.0572 88.3597 80.9492 87.4734 80.9492 86.3841V64.6103L78.261 66.1651L78.2602 66.1655L60.9414 76.1819L75.3301 84.5036C75.7241 84.7314 75.8576 85.2337 75.6282 85.6252C75.475 85.887 75.1982 86.033 74.914 86.033C74.7729 86.033 74.6301 85.997 74.4993 85.9214L58.4245 76.6245L58.4218 76.623L56.1593 75.3144C55.7653 75.0866 55.6318 74.5844 55.8612 74.1928C56.0905 73.8012 56.5958 73.6685 56.99 73.8966L57.8332 74.3842L57.8344 74.3848L59.2529 75.2052C59.2823 75.2218 59.3186 75.2218 59.3481 75.2048L77.0413 64.972V59.9525V59.952V54.1033C71.8389 53.6843 67.7343 49.3439 67.7343 44.0684C67.7343 38.5166 72.2799 34 77.8671 34ZM38.5921 63.2562L40.0952 64.1255V61.7148L38.5921 63.2562ZM69.3855 44.0684C69.3855 39.4213 73.1904 35.6406 77.8672 35.6406C82.544 35.6406 86.3489 39.4213 86.3489 44.0684C86.3489 48.7155 82.5441 52.4963 77.8672 52.4963C73.1904 52.4962 69.3855 48.7155 69.3855 44.0684ZM78.6925 64.0172L79.9958 63.2635L78.6925 61.9536V64.0172Z" fill="#3030AD"/>
<path d="M81.8049 41.0312C81.4826 40.711 80.9598 40.7109 80.6374 41.0313L76.2761 45.365L75.0989 44.1952C74.7764 43.875 74.2537 43.875 73.9313 44.1952C73.6088 44.5157 73.6088 45.035 73.9313 45.3554L75.6924 47.1052C75.8472 47.2589 76.0572 47.3453 76.2762 47.3453C76.4953 47.3453 76.7051 47.2589 76.8601 47.105L81.8053 42.1913C82.1275 41.871 82.1275 41.3516 81.8049 41.0312V41.0312Z" fill="#3030AD"/>
</svg>
