<svg width="122" height="124" viewBox="0 0 122 124" fill="none" xmlns="http://www.w3.org/2000/svg">
<path d="M13.5735 61.5156C13.5735 71.0091 16.3886 80.2894 21.6629 88.183C26.9373 96.0766 34.4338 102.229 43.2047 105.862C51.9755 109.495 61.6267 110.445 70.9378 108.593C80.2489 106.741 88.8017 102.17 95.5146 95.4568C102.228 88.7438 106.799 80.191 108.651 70.88C110.503 61.5689 109.553 51.9177 105.92 43.1468C102.287 34.376 96.1344 26.8794 88.2409 21.6051C80.3473 16.3308 71.067 13.5156 61.5735 13.5156" stroke="#3030AD" stroke-width="3" stroke-linecap="round"/>
<path d="M119.956 46.4709C116.884 35.0083 110.483 24.714 101.561 16.8896C92.6388 9.06524 81.5969 4.06225 69.8316 2.51331C58.0662 0.964369 46.1058 2.93905 35.4627 8.18763C24.8196 13.4362 15.9719 21.723 10.0385 32C4.10504 42.277 1.35234 54.0827 2.12846 65.9242C2.90459 77.7656 7.1747 89.111 14.3988 98.5257C21.6229 107.94 31.4765 115.001 42.7136 118.816C53.9507 122.63 66.0666 123.027 77.5291 119.956" stroke="#EBEBF9" stroke-width="3" stroke-linecap="round"/>
<path d="M89.1797 67.7708H87.6427C88.1715 67.0867 88.4863 66.2342 88.4863 65.3103L88.4861 53.8758C88.4861 52.1721 87.8125 50.5701 86.5893 49.3649C86.4627 49.2402 86.3288 49.1256 86.1894 49.0198C87.0543 48.3461 87.6109 47.3048 87.6109 46.1373V44.664C87.6109 44.4997 87.5988 44.3381 87.5775 44.1795C88.529 43.8418 89.2113 42.9444 89.2113 41.8928C89.2113 40.5529 88.1039 39.4628 86.7426 39.4628C85.6901 39.4628 84.7898 40.1148 84.4353 41.0299C84.2531 41.0029 84.0668 40.9887 83.8771 40.9887C81.8183 40.9887 80.1432 42.6374 80.1432 44.6639V46.1371C80.1432 47.2485 80.6477 48.2454 81.4422 48.9199C80.9401 49.2775 80.526 49.7566 80.2417 50.3307L78.3655 53.543L78.061 54.0642C78.0608 54.0646 78.0607 54.0648 78.0605 54.0651L77.45 55.1104L75.8308 55.3754L75.3891 52.9438C75.137 51.5612 74.1477 50.405 72.8072 49.9265L72.0322 49.65V48.3882C72.6638 47.7345 73.0246 46.8555 73.0246 45.9566V44.0707C73.0246 42.1714 71.4547 40.6263 69.5252 40.6263C67.5955 40.6263 66.0258 42.1715 66.0258 44.0707V46.0156C66.0258 46.9408 66.4056 47.7873 67.0194 48.4098V49.6761L66.2931 49.9353C64.9711 50.4077 63.985 51.5461 63.7198 52.9068L62.492 59.2226H60.534L59.3936 52.9438C59.1413 51.5609 58.1515 50.4047 56.8107 49.9267L56.0365 49.6502V48.388C56.6682 47.7343 57.0288 46.8555 57.0288 45.9566V44.0707C57.0288 43.9457 57.0216 43.8225 57.0083 43.7009C57.9379 43.3521 58.6003 42.4659 58.6003 41.4299C58.6003 40.09 57.4929 39 56.1317 39C55.0524 39 54.1332 39.6857 53.7985 40.6375C53.7096 40.6308 53.62 40.6263 53.5293 40.6263C51.5998 40.6263 50.03 42.1715 50.03 44.0707V46.0156C50.03 46.9409 50.4099 47.7874 51.0238 48.4099V49.676L50.2974 49.9354C48.9754 50.4078 47.9894 51.5462 47.7242 52.907L47.2731 55.2289L46.5499 55.1105L45.9394 54.0652C45.9392 54.0649 45.939 54.0647 45.9389 54.0643L45.6344 53.5431L43.7582 50.3309C43.4738 49.7567 43.0597 49.2776 42.5577 48.92C43.3522 48.2455 43.8567 47.2486 43.8567 46.1372V44.664C43.8567 42.6375 42.1817 40.9888 40.1228 40.9888C38.0639 40.9888 36.389 42.6375 36.389 44.664V46.1372C36.389 46.6331 36.4878 47.1147 36.6827 47.568C36.9335 48.1517 37.3252 48.646 37.8082 49.0216C37.6698 49.1269 37.5368 49.2408 37.411 49.3647C36.1875 50.5701 35.5139 52.1721 35.5139 53.8757L35.5138 65.3101C35.5138 66.2341 35.8284 67.0866 36.3573 67.7707H34.8203C34.3672 67.7707 34 68.1322 34 68.5781V70.3072C34 71.45 34.944 72.3797 36.1044 72.3797H37.1544L34.8409 83.0234C34.7462 83.4596 35.0285 83.8887 35.4714 83.9819C35.5293 83.9941 35.587 83.9999 35.6439 83.9999C36.0225 83.9999 36.3628 83.7403 36.4452 83.3613L38.8322 72.3798H44.1369L46.5239 83.3614C46.6063 83.7404 46.9466 84 47.3252 84C47.3821 84 47.4398 83.9942 47.4976 83.982C47.9406 83.8887 48.2229 83.4596 48.1282 83.0235L45.8146 72.3799H46.9286C47.134 72.3799 47.3341 72.3491 47.5248 72.2933L48.9523 82.7195C49.0524 83.4494 49.6921 84 50.4404 84H52.1412C52.9691 84 53.6428 83.3369 53.6428 82.522V74.2283C53.6428 73.7823 53.2756 73.4208 52.8225 73.4208C52.3693 73.4208 52.0021 73.7823 52.0021 74.2283V82.385H50.562L48.6562 68.4669C48.6024 68.0717 48.2443 67.7673 47.8433 67.7673H39.6505C38.2742 67.7673 37.1544 66.6651 37.1544 65.3103V63.8317H48.8761C50.5998 63.8317 52.0021 65.2121 52.0021 66.9088V68.5667C52.0021 68.5695 52.0017 68.5722 52.0017 68.575C52.0017 68.5778 52.0021 68.5805 52.0021 68.5833V71.0946C52.0021 71.5406 52.3693 71.9021 52.8225 71.9021C53.2756 71.9021 53.6428 71.5406 53.6428 71.0946V69.3823H59.2405V82.3848H58.0835C57.6304 82.3848 57.2632 82.7463 57.2632 83.1922C57.2632 83.6382 57.6304 83.9997 58.0835 83.9997H65.5618C66.0149 83.9997 66.3821 83.6382 66.3821 83.1922C66.3821 82.7463 66.0149 82.3848 65.5618 82.3848H64.2626V69.3824H70.3573V82.5219C70.3573 83.3368 71.0309 83.9999 71.859 83.9999H73.5597C74.3081 83.9999 74.9477 83.4494 75.0478 82.7193L76.4753 72.2932C76.666 72.349 76.8661 72.3798 77.0715 72.3798H78.1855L75.8719 83.0234C75.7772 83.4596 76.0595 83.8887 76.5025 83.9819C76.5603 83.9941 76.6181 83.9999 76.675 83.9999C77.0535 83.9999 77.3939 83.7403 77.4762 83.3613L79.8632 72.3797H85.1679L87.5549 83.3613C87.6374 83.7403 87.9777 83.9999 88.3562 83.9999C88.4132 83.9999 88.4708 83.9941 88.5287 83.9819C88.9717 83.8886 89.254 83.4594 89.1592 83.0234L86.8456 72.3798H87.8956C89.056 72.3798 90 71.45 90 70.3073V68.5782C90 68.1323 89.6328 67.7708 89.1797 67.7708V67.7708ZM86.7427 41.0778C87.1993 41.0778 87.5708 41.4434 87.5708 41.8929C87.5708 42.2511 87.3345 42.5553 87.0076 42.6644C86.7341 42.2509 86.3791 41.8942 85.9643 41.6178C86.0792 41.3036 86.3843 41.0778 86.7427 41.0778V41.0778ZM83.8773 42.6037C85.0315 42.6037 85.9705 43.5279 85.9705 44.664V46.1372C85.9705 47.2733 85.0315 48.1976 83.8773 48.1976C82.7231 48.1976 81.7841 47.2733 81.7841 46.1372V44.8174L83.411 45.5084L83.4819 45.7431C83.5879 46.0936 83.9143 46.3205 84.2679 46.3205C84.3453 46.3205 84.4242 46.3096 84.5022 46.2868C84.9365 46.1596 85.1837 45.71 85.0545 45.2825L84.9461 44.9239C84.8312 44.5432 84.5528 44.2346 84.1822 44.0771L82.324 43.2878C82.7072 42.869 83.2606 42.6037 83.8773 42.6037V42.6037ZM68.6602 49.3515C68.9161 49.4165 69.1827 49.4544 69.457 49.4596C69.4794 49.46 69.5017 49.4602 69.524 49.4602C69.8201 49.4602 70.1109 49.4222 70.3917 49.3498V50.3316C69.8704 50.6746 69.1812 50.6744 68.6602 50.3315V49.3515ZM67.6665 44.0707C67.6665 43.0619 68.5004 42.2412 69.5253 42.2412C70.509 42.2412 71.3147 42.9979 71.3779 43.9508C71.3403 43.969 71.3021 43.9861 71.2631 44.0015C70.7843 44.1902 70.2373 44.1408 69.7998 43.8689C69.417 43.6309 68.91 43.7434 68.6683 44.1207C68.4264 44.4978 68.541 44.9965 68.9241 45.2345C69.451 45.5619 70.0571 45.729 70.666 45.729C70.9065 45.729 71.1475 45.7022 71.384 45.6495V45.9566C71.384 46.4648 71.1704 46.9625 70.7979 47.3222C70.4393 47.6686 69.9778 47.8545 69.4886 47.845C68.4839 47.826 67.6665 47.0053 67.6665 46.0156V44.0707ZM65.3311 53.2108C65.4881 52.4061 66.0713 51.7327 66.8528 51.4534L67.2779 51.3016C67.2852 51.3084 67.2918 51.3157 67.2994 51.3223L67.4227 51.4285C68.0223 51.9438 68.7739 52.2014 69.5259 52.2014C70.2774 52.2014 71.0293 51.9438 71.629 51.4286L71.7526 51.3221C71.7671 51.3096 71.7802 51.296 71.7937 51.2827L72.2481 51.4448C73.0404 51.7276 73.6254 52.4114 73.7743 53.2287L74.2124 55.6405L72.9048 55.8545L72.803 55.3959C72.7063 54.9603 72.2698 54.6844 71.8264 54.7794C71.3838 54.8746 71.1035 55.305 71.2001 55.7406L71.3473 56.4037C70.3099 57.0118 69.5712 58.0316 69.3385 59.2226H67.0385L67.8127 55.7405C67.9096 55.3049 67.6293 54.8745 67.1868 54.7791C66.7442 54.6837 66.3069 54.9596 66.2101 55.3952L65.359 59.2226H64.1621L65.3311 53.2108ZM52.6644 49.8538V49.3515C52.9202 49.4165 53.1868 49.4543 53.461 49.4595C53.4834 49.4599 53.5057 49.4601 53.528 49.4601C53.8242 49.4601 54.115 49.4221 54.3959 49.3497V49.8535L53.5298 50.5977L52.6644 49.8538ZM56.1318 40.6149C56.5883 40.6149 56.9598 40.9805 56.9598 41.4299C56.9598 41.7671 56.7505 42.0572 56.453 42.181C56.1708 41.7593 55.7973 41.402 55.3601 41.1366C55.48 40.8319 55.7804 40.6149 56.1318 40.6149V40.6149ZM51.6707 44.0707C51.6707 43.0619 52.5046 42.2412 53.5295 42.2412C54.5133 42.2412 55.3188 42.9979 55.3822 43.9508C55.3445 43.969 55.3064 43.9861 55.2672 44.0016C54.7884 44.1903 54.2414 44.1408 53.8041 43.8691C53.4211 43.6312 52.9144 43.7437 52.6725 44.1208C52.4307 44.4978 52.5452 44.9966 52.9282 45.2346C53.4552 45.5621 54.0612 45.7292 54.6701 45.7292C54.9106 45.7292 55.1516 45.7023 55.3883 45.6496V45.9567C55.3883 46.4649 55.1747 46.9626 54.8021 47.3223C54.4435 47.6687 53.9813 47.8546 53.4927 47.8451C52.488 47.8261 51.6707 47.0054 51.6707 46.0157V44.0707ZM49.3355 53.2108C49.4924 52.4061 50.0756 51.7327 50.8573 51.4534L51.6866 51.1572L52.99 52.278C53.1446 52.4108 53.3371 52.4774 53.5297 52.4774C53.7222 52.4774 53.9147 52.4109 54.0691 52.2782L55.395 51.139L56.2517 51.445C57.0445 51.7276 57.6298 52.4115 57.7789 53.2288L58.8676 59.2228H57.6624L56.8114 55.3954C56.7146 54.96 56.2782 54.6839 55.8346 54.7793C55.3921 54.8747 55.1119 55.3051 55.2087 55.7407L55.983 59.2228H54.6614C54.3666 57.7137 53.2593 56.479 51.7613 56.0091L51.8209 55.7409C51.9177 55.3053 51.6373 54.8749 51.1946 54.7796C50.7525 54.6844 50.3148 54.9604 50.218 55.396L50.1504 55.7L48.8918 55.4939L49.3355 53.2108ZM38.0296 44.664C38.0296 43.5279 38.9686 42.6037 40.1228 42.6037C40.7391 42.6037 41.2923 42.8687 41.6757 43.2873L39.816 44.0772C39.4457 44.2346 39.1673 44.543 39.0521 44.9238L38.9438 45.2827C38.8147 45.7103 39.0621 46.1597 39.4964 46.2868C39.5744 46.3096 39.6532 46.3205 39.7305 46.3205C40.0841 46.3205 40.4106 46.0936 40.5166 45.7429L40.5873 45.5084L42.2163 44.8166V46.1371C42.2163 47.2732 41.2773 48.1975 40.123 48.1975C39.2796 48.1975 38.5225 47.7034 38.194 46.9387C38.085 46.6853 38.0298 46.4157 38.0298 46.1371V44.664H38.0296ZM38.5718 50.5058C39.0252 50.0588 39.625 49.8126 40.2608 49.8126C41.1445 49.8126 41.9238 50.2908 42.2946 51.0608C42.3039 51.08 42.3139 51.0989 42.3246 51.1174L44.5166 54.8695C44.5166 54.8696 44.5167 54.8696 44.5167 54.8697L45.3211 56.2469C45.4436 56.4566 45.6552 56.6013 45.8976 56.6409L47.7717 56.9478C47.7725 56.9479 47.7733 56.9482 47.774 56.9483C47.7765 56.9487 47.7791 56.949 47.7817 56.9494L50.8839 57.4572C51.8858 57.6212 52.6733 58.3165 52.9707 59.2228H44.9374L41.3812 55.4644C41.0724 55.1382 40.5534 55.1199 40.2218 55.424C39.8902 55.728 39.8718 56.2388 40.1806 56.5651L43.7601 60.3481V60.9949C43.7601 61.4069 43.8505 61.7982 44.0116 62.1519L44.0082 62.217H37.1545V53.8759C37.1545 52.6032 37.6577 51.4064 38.5718 50.5058V50.5058ZM46.9286 70.7649H44.8073C44.7996 70.7648 44.7919 70.7647 44.7842 70.7649H38.1844C38.177 70.7648 38.1698 70.7649 38.1626 70.7649H36.1044C35.8487 70.7649 35.6406 70.5596 35.6406 70.3073V69.3857H47.1266L47.2918 70.592C47.2051 70.6987 47.0724 70.7649 46.9286 70.7649ZM46.6424 62.2168C45.9577 62.2168 45.4007 61.6686 45.4007 60.9947V60.8376H78.2444V60.9947C78.2444 61.6686 77.6874 62.2168 77.0027 62.2168H46.6424ZM52.4699 63.8317H55.679C56.2356 65.0748 57.1743 66.1273 58.368 66.8338C58.744 67.0564 59.0157 67.3871 59.1485 67.7676H53.6427V66.9087C53.6428 65.7321 53.1995 64.6561 52.4699 63.8317ZM60.8811 82.3849V68.3095C60.8811 67.1369 60.2577 66.0678 59.2135 65.4499C58.5277 65.0439 57.9533 64.4874 57.5325 63.8317H66.1134C65.6761 64.514 65.0735 65.0873 64.3509 65.4974C63.2845 66.1025 62.6219 67.2142 62.6219 68.3987V82.385H60.8811V82.3849ZM64.391 67.7676C64.5398 67.4107 64.8112 67.1003 65.1705 66.8964C66.4165 66.1894 67.3926 65.1144 67.9663 63.8317H71.5302C70.8006 64.6561 70.3573 65.7321 70.3573 66.9088V67.7677H64.391V67.7676ZM73.438 82.3849H71.9979V68.5833C71.9979 68.5805 71.9983 68.5778 71.9983 68.575C71.9983 68.5722 71.9979 68.5695 71.9979 68.5667V66.9088C71.9979 65.2121 73.4002 63.8317 75.1239 63.8317H82.9489C83.4021 63.8317 83.7692 63.4702 83.7692 63.0242C83.7692 62.5783 83.4021 62.2168 82.9489 62.2168H79.9918L79.9126 60.6743C79.9506 60.6461 79.9868 60.6152 80.0198 60.5804L83.8192 56.5649C84.128 56.2386 84.1095 55.7277 83.778 55.4238C83.4467 55.1198 82.9275 55.138 82.6186 55.4642L79.0624 59.2226H71.029C71.27 58.4884 71.8327 57.8928 72.5703 57.6058C72.5758 57.6038 72.581 57.6018 72.5864 57.5997C72.7545 57.5356 72.9315 57.4871 73.1158 57.457L78.1021 56.6407C78.3446 56.601 78.5561 56.4564 78.6786 56.2467L79.4829 54.8695C79.4829 54.8694 79.4829 54.8694 79.483 54.8693L81.675 51.1172C81.6859 51.0987 81.6958 51.0798 81.7051 51.0606C82.0759 50.2907 82.8552 49.8124 83.7388 49.8124C84.3746 49.8124 84.9745 50.0586 85.4281 50.5058C86.3418 51.4063 86.8452 52.603 86.8452 53.8756V62.2167H86.12C85.6669 62.2167 85.2997 62.5782 85.2997 63.0241C85.2997 63.47 85.6669 63.8316 86.12 63.8316H86.8453V65.3101C86.8453 66.6649 85.7255 67.7672 84.3491 67.7672H76.1564C75.7558 67.7672 75.398 68.0667 75.3434 68.4668L73.438 82.3849ZM88.3594 70.3072C88.3594 70.5596 88.1513 70.7648 87.8956 70.7648H85.8384C85.8306 70.7647 85.823 70.7646 85.8152 70.7648H79.2152C79.2079 70.7647 79.2006 70.7648 79.1934 70.7648H77.0714C76.9276 70.7648 76.7949 70.6987 76.7082 70.5919L76.8734 69.3856H88.3594V70.3072Z" fill="#3030AD"/>
</svg>
