<?xml version="1.0" encoding="UTF-8"?>
<svg width="24px" height="16px" viewBox="0 0 24 16" version="1.1" xmlns="http://www.w3.org/2000/svg" xmlns:xlink="http://www.w3.org/1999/xlink">
    <title>CEDB0D72-DBAA-4FC6-9CAB-37BB23B10600</title>
    <defs>
        <filter id="filter-1">
            <feColorMatrix in="SourceGraphic" type="matrix" values="0 0 0 0 0.823529 0 0 0 0 0.823529 0 0 0 0 0.823529 0 0 0 1.000000 0"></feColorMatrix>
        </filter>
    </defs>
    <g id="Wireframes-2.0" stroke="none" stroke-width="1" fill="none" fill-rule="evenodd">
        <g id="3.0.1-Dashboard---Menu-Preview" transform="translate(-28.000000, -686.000000)">
            <g id="menu" transform="translate(0.000000, 662.000000)" filter="url(#filter-1)">
                <g transform="translate(28.000000, 24.000000)">
                    <path d="M1.0893617,2.28316611 L22.8765957,2.28316611 C23.4782336,2.28316611 23.9659574,1.77206197 23.9659574,1.14158305 C23.9659574,0.511104143 23.4782336,0 22.8765957,0 L1.0893617,0 C0.487723847,0 0,0.511104143 0,1.14158305 C0,1.77206197 0.487723847,2.28316611 1.0893617,2.28316611 Z" id="Path" fill="#000000" fill-rule="nonzero"></path>
                    <path d="M22.8765957,6.84949833 L1.0893617,6.84949833 C0.487723847,6.84949833 0,7.36060247 0,7.99108138 C0,8.62156029 0.487723847,9.13266444 1.0893617,9.13266444 L22.8765957,9.13266444 C23.4782336,9.13266444 23.9659574,8.62156029 23.9659574,7.99108138 C23.9659574,7.36060247 23.4782336,6.84949833 22.8765957,6.84949833 Z" id="Path" fill="#000000" fill-rule="nonzero"></path>
                    <path d="M22.8765957,13.6989967 L1.0893617,13.6989967 C0.487723847,13.6989967 0,14.2101008 0,14.8405797 C0,15.4710586 0.487723847,15.9821628 1.0893617,15.9821628 L22.8765957,15.9821628 C23.4782336,15.9821628 23.9659574,15.4710586 23.9659574,14.8405797 C23.9659574,14.2101008 23.4782336,13.6989967 22.8765957,13.6989967 Z" id="Path" fill="#000000" fill-rule="nonzero"></path>
                </g>
            </g>
        </g>
    </g>
</svg>