<?xml version="1.0" encoding="UTF-8"?>
<svg width="16px" height="16px" viewBox="0 0 16 16" version="1.1" xmlns="http://www.w3.org/2000/svg" xmlns:xlink="http://www.w3.org/1999/xlink">
    <title>BF2641BC-E21B-42DF-8B26-41B468355B00</title>
    <defs>
        <filter id="filter-1">
            <feColorMatrix in="SourceGraphic" type="matrix" values="0 0 0 0 1.000000 0 0 0 0 1.000000 0 0 0 0 1.000000 0 0 0 1.000000 0"></feColorMatrix>
        </filter>
    </defs>
    <g id="Wireframes-2.0" stroke="none" stroke-width="1" fill="none" fill-rule="evenodd">
        <g id="mobile-sync" transform="translate(-569.000000, -810.000000)" filter="url(#filter-1)">
            <g transform="translate(569.000000, 810.000000)">
                <path d="M15.0272725,10.1506723 C15.7522963,6.62477471 13.7202782,3.11532847 10.305857,1.99643688 C10.1405752,0.850781789 9.16077047,0.000640790049 8.00566171,0.000640790049 C6.85055295,0.000640790049 5.87074827,0.850781789 5.70546638,1.99643688 C2.79517133,2.98103694 0.83671975,5.71730415 0.839111111,8.79550638 C0.843951107,9.25012033 0.892488643,9.70320944 0.984050955,10.1484936 C0.0303587099,10.8481083 -0.248512292,12.153036 0.335623819,13.182694 C0.919759931,14.212352 2.18133769,14.6396437 3.2690276,14.176227 C5.97193662,16.5782381 10.0393868,16.5782381 12.7422958,14.176227 C13.8287892,14.6369547 15.0874049,14.209692 15.6707967,13.1820876 C16.2541885,12.1544832 15.9776137,10.851949 15.0272725,10.1513986 L15.0272725,10.1506723 Z M8.00566171,1.45248227 C8.49470698,1.4532829 8.89084527,1.8505889 8.89124416,2.34067518 C8.8898614,2.37859279 8.88647473,2.41641034 8.88109837,2.45396879 C8.82537099,2.89711901 8.44847874,3.22895474 8.00277493,3.22729711 C7.55707112,3.22562703 7.18265633,2.8909866 7.13022505,2.44743262 C7.12455447,2.41210264 7.12116549,2.37644269 7.12007926,2.34067518 C7.12047816,1.8505889 7.51661645,1.4532829 8.00566171,1.45248227 Z M1.48336872,12.0236482 C1.4857466,11.6594708 1.70728695,11.3327636 2.04428592,11.1964596 C2.14817087,11.157455 2.2580226,11.136814 2.36895117,11.1354553 C2.74644729,11.1359017 3.0822345,11.3759152 3.20557166,11.7334536 C3.32890883,12.090992 3.21272569,12.4875822 2.91609908,12.721566 C2.76080337,12.8456742 2.56757243,12.9123589 2.36895117,12.9103887 C1.88030565,12.9099889 1.48416765,12.5133329 1.48336872,12.0236482 L1.48336872,12.0236482 Z M4.36622222,13.2103262 C4.80355847,12.4909414 4.81692195,11.5903925 4.40112465,10.8582939 C3.98532736,10.1261953 3.205859,9.67785544 2.36532767,9.6873305 C1.92099927,7.01666933 3.42467886,4.40427931 5.95403822,3.45255035 C6.36045491,4.20867511 7.14828475,4.68016703 8.00529936,4.68016703 C8.86231398,4.68016703 9.65014382,4.20867511 10.0565605,3.45255035 C12.2659088,4.29987687 13.724338,6.42558438 13.7228151,8.79623262 C13.7208197,9.09384264 13.6953761,9.39083013 13.6467205,9.68442553 L13.6423723,9.68442553 C12.8028952,9.67957479 12.0263467,10.1297554 11.6120462,10.861446 C11.1977456,11.5931366 11.2103883,12.4920795 11.6451012,13.2117787 C9.53397813,14.9644362 6.4773453,14.9644362 4.36622222,13.2117787 L4.36622222,13.2103262 Z M13.6423723,12.9103887 C13.4413839,12.9121602 13.2460802,12.8435814 13.0901515,12.7164823 C12.7961421,12.481267 12.6825182,12.0855706 12.8068062,11.7297298 C12.9310942,11.373889 13.2661635,11.1355798 13.6423723,11.1354553 C13.7481834,11.1362867 13.8530779,11.155198 13.9525435,11.1913759 C14.2962901,11.3245797 14.5242719,11.6543317 14.5279547,12.0236482 C14.5271558,12.5133329 14.1310178,12.9099889 13.6423723,12.9103887 L13.6423723,12.9103887 Z" id="Shape" fill="#000000" fill-rule="nonzero"></path>
            </g>
        </g>
    </g>
</svg>