<svg width="24" height="24" viewBox="0 0 24 24" fill="none" xmlns="http://www.w3.org/2000/svg">
<path d="M13.0844 4.48607C12.3954 4.3238 11.6785 4.31979 10.9877 4.47435C10.2969 4.62891 9.65017 4.93801 9.096 5.37843C8.54676 5.81389 8.10337 6.36819 7.79916 6.99965C7.49495 7.63112 7.33784 8.32333 7.33964 9.02425C7.33964 9.31358 7.45458 9.59106 7.65916 9.79564C7.86375 10.0002 8.14122 10.1152 8.43055 10.1152C8.71988 10.1152 8.99735 10.0002 9.20194 9.79564C9.40652 9.59106 9.52146 9.31358 9.52146 9.02425C9.52035 8.59181 9.6323 8.16659 9.84621 7.79077C10.0601 7.41494 10.3686 7.10156 10.7409 6.8817C11.1133 6.66184 11.5367 6.54314 11.9691 6.53738C12.4015 6.53162 12.8279 6.63898 13.206 6.84884C13.5841 7.05869 13.9008 7.36374 14.1247 7.73374C14.3485 8.10373 14.4718 8.52581 14.4822 8.95813C14.4926 9.39044 14.3898 9.81797 14.1841 10.1983C13.9783 10.5787 13.6767 10.8986 13.3091 11.1264C12.5889 11.5556 11.9904 12.1618 11.5704 12.8873C11.1504 13.6128 10.9227 14.4337 10.9091 15.2719C10.9091 15.5612 11.024 15.8387 11.2286 16.0433C11.4332 16.2479 11.7107 16.3628 12 16.3628C12.2893 16.3628 12.5668 16.2479 12.7714 16.0433C12.976 15.8387 13.0909 15.5612 13.0909 15.2719C13.107 14.8045 13.2418 14.349 13.4827 13.9482C13.7235 13.5474 14.0625 13.2145 14.4676 12.981C15.2484 12.4946 15.8678 11.7882 16.248 10.9507C16.6281 10.1131 16.7521 9.18181 16.6042 8.27396C16.4564 7.36611 16.0433 6.52229 15.417 5.84866C14.7906 5.17504 13.9791 4.70171 13.0844 4.48825V4.48607Z" fill="#3030AD"/>
<path d="M12 0C9.62663 0 7.30655 0.703787 5.33316 2.02236C3.35977 3.34094 1.8217 5.21508 0.913451 7.4078C0.00519945 9.60051 -0.232441 12.0133 0.230582 14.3411C0.693605 16.6689 1.83649 18.807 3.51472 20.4853C5.19295 22.1635 7.33115 23.3064 9.65892 23.7694C11.9867 24.2324 14.3995 23.9948 16.5922 23.0865C18.7849 22.1783 20.6591 20.6402 21.9776 18.6668C23.2962 16.6935 24 14.3734 24 12C23.9962 8.81855 22.7308 5.76849 20.4811 3.51886C18.2315 1.26924 15.1814 0.00375324 12 0ZM12 21.8182C10.0582 21.8182 8.15991 21.2424 6.54531 20.1635C4.93072 19.0847 3.6723 17.5513 2.92919 15.7573C2.18607 13.9632 1.99164 11.9891 2.37048 10.0846C2.74931 8.18003 3.6844 6.43059 5.0575 5.0575C6.4306 3.6844 8.18003 2.74931 10.0846 2.37047C11.9891 1.99163 13.9632 2.18607 15.7573 2.92918C17.5513 3.6723 19.0847 4.93072 20.1635 6.54531C21.2424 8.1599 21.8182 10.0581 21.8182 12C21.8153 14.6031 20.78 17.0987 18.9393 18.9393C17.0987 20.78 14.6031 21.8153 12 21.8182Z" fill="#3030AD"/>
<path d="M12 19.6369C12.6025 19.6369 13.0909 19.1485 13.0909 18.546C13.0909 17.9435 12.6025 17.4551 12 17.4551C11.3975 17.4551 10.9091 17.9435 10.9091 18.546C10.9091 19.1485 11.3975 19.6369 12 19.6369Z" fill="#3030AD"/>
</svg>
