<?xml version="1.0" encoding="UTF-8"?>
<svg width="72px" height="80px" viewBox="0 0 72 80" version="1.1" xmlns="http://www.w3.org/2000/svg" xmlns:xlink="http://www.w3.org/1999/xlink">
    <title>8FD15667-DF8E-4057-A901-DFB1AD9D6394</title>
    <defs>
        <filter id="filter-1">
            <feColorMatrix in="SourceGraphic" type="matrix" values="0 0 0 0 0.823529 0 0 0 0 0.823529 0 0 0 0 0.823529 0 0 0 1.000000 0"></feColorMatrix>
        </filter>
    </defs>
    <g id="Wireframes-2.0" stroke="none" stroke-width="1" fill="none" fill-rule="evenodd">
        <g id="confused" transform="translate(-684.000000, -1035.000000)" filter="url(#filter-1)">
            <g transform="translate(684.000000, 1035.000000)">
                <path d="M47.9958798,59.1026563 L40.607691,55.900625 C40.6010472,55.8976562 40.5945579,55.8948438 40.5877597,55.8920313 L35.48503,53.6804688 C35.4853391,53.6495313 35.4878112,53.6184375 35.4878112,53.5876563 L35.4878112,48.5620313 C36.0973391,48.0154688 36.6498541,47.4123438 37.1411845,46.75875 C37.5751931,46.9289063 38.0461288,47.023125 38.5386953,47.023125 C40.6781459,47.023125 42.4186609,45.2628125 42.4186609,43.099375 C42.4186609,40.528125 40.5630386,38.461875 39.6933219,37.6345313 L39.6979571,29.35 C39.6979571,26.7551563 38.9261974,24.2607813 37.4662661,22.13625 C36.0404807,20.061875 34.0621803,18.48 31.7448927,17.5620313 C31.2923433,17.3826563 30.7776824,17.5079688 30.4552275,17.875625 L28.7140944,19.8604688 C27.7006867,20.9967188 26.2504893,21.6484375 24.7355536,21.6484375 L21.311691,21.6484375 C17.6500429,21.6484375 14.6710043,24.6610938 14.6710043,28.3640625 L14.6710043,34.6734375 L14.6710043,34.6742188 C14.6710043,34.6742188 14.6710043,34.6746875 14.6710043,34.675 L14.6710043,39.1 C14.6710043,42.745 16.1987639,46.1625 18.8797597,48.5645313 L18.8797597,53.5873438 C18.8797597,53.6342188 18.8833133,53.6814062 18.8840858,53.7282813 L13.7855279,55.9698438 C13.7847554,55.9701563 13.7839828,55.9704688 13.7830558,55.9709375 L6.53979399,59.1553125 C2.64252361,60.8125 0.124377682,64.6467187 0.124377682,68.9232813 L0.124377682,78.8279687 C0.124377682,79.4753125 0.6432103,79.9998437 1.28317597,79.9998437 C1.92314163,79.9998437 2.44197425,79.4753125 2.44197425,78.8279687 L2.44197425,68.9232813 C2.44197425,65.5926563 4.40312446,62.6065625 7.45107296,61.3103125 L13.5792618,58.6160937 C14.2995708,60.3667187 15.3548498,61.9815625 16.6740258,63.340625 C16.9009957,63.574375 17.2008927,63.6915625 17.5010987,63.6915625 C17.7940429,63.6915625 18.0871416,63.5798438 18.312721,63.3560937 C18.7694421,62.9028125 18.7762403,62.1607812 18.3280172,61.6989063 C17.2067639,60.54375 16.3124807,59.17 15.7052704,57.6815625 L19.2641717,56.116875 C20.3335107,59.5495312 23.5101631,61.9857812 27.1844807,61.9857812 C30.8839828,61.9857812 34.0665064,59.5292187 35.1183863,56.0710937 L38.6850129,57.616875 C37.8393991,59.7203125 36.419485,61.5917187 34.6116052,62.9607812 C32.4543863,64.5945313 29.8854077,65.4579687 27.1821631,65.4579687 C25.2347639,65.4579687 23.3707983,65.0146875 21.6421803,64.1401562 C21.0697339,63.8509375 20.3738369,64.0853125 20.087382,64.6642187 C19.8010815,65.2429687 20.0329957,65.946875 20.6054421,66.2365625 C22.6589871,67.2751562 24.8716738,67.801875 27.1821631,67.801875 C30.3901803,67.801875 33.4396738,66.7765625 36.000927,64.836875 C38.1323433,63.2226562 39.8088927,61.0184375 40.8147296,58.5398437 L47.0702318,61.2510937 C50.0199142,62.5714062 51.9257511,65.5332812 51.9257511,68.7965625 L51.9257511,78.8278125 C51.9257511,79.4751562 52.4445837,79.9998437 53.0845494,79.9998437 C53.724515,79.9998437 54.2433476,79.4751562 54.2433476,78.8278125 L54.2433476,68.7965625 C54.2433476,64.6067187 51.7959657,60.8039062 47.9958798,59.1026562 L47.9958798,59.1026563 Z M40.1012189,43.0992188 C40.1012189,43.9704688 39.4003777,44.6792188 38.5388498,44.6792188 C37.6773219,44.6792188 36.9764807,43.9704688 36.9764807,43.0992188 C36.9764807,41.8770313 37.8310558,40.614375 38.5505923,39.7976563 C39.2183691,40.5334375 40.1012189,41.7596875 40.1012189,43.0992188 L40.1012189,43.0992188 Z M16.9887554,39.1 L16.9887554,35.736875 C17.5123777,35.6323438 18.0188498,35.45375 18.4863863,35.2073438 C19.1938712,34.8364063 19.8061803,34.3234375 20.3067811,33.6826563 C20.7035536,33.1748438 20.6181116,32.4378125 20.1159657,32.0367188 C19.6138197,31.6354688 18.8851674,31.721875 18.4883948,32.2296875 C18.192824,32.6079688 17.8332876,32.9098438 17.4173562,33.1279688 C17.2786094,33.2010938 17.1352275,33.2623438 16.9887554,33.3142188 L16.9887554,28.3640625 C16.9887554,25.9532813 18.9282747,23.9921875 21.312,23.9921875 L24.7358627,23.9921875 C26.9059056,23.9921875 28.9833991,23.0582813 30.4419399,21.4229688 L31.6313305,20.0670313 C35.1492876,21.78375 37.3806695,25.3453125 37.3806695,29.35 L37.3806695,31.7298438 C35.9344893,32.27125 34.4124464,32.5484375 32.8474506,32.5484375 C29.4393476,32.5484375 26.2100086,31.23 23.7539742,28.8359375 C23.2930815,28.3870313 22.5596395,28.4009375 22.1154335,28.8664063 C21.6712275,29.3323438 21.684824,30.0742188 22.1455622,30.5234375 C25.0357597,33.3404688 28.8364635,34.8920313 32.8474506,34.8920313 C34.3983863,34.8920313 35.9156395,34.6626563 37.3738712,34.2090625 C37.3783519,34.2914063 37.3758798,37.6557813 37.3758798,37.6557813 C36.516824,38.5010938 34.6588841,40.6160938 34.6588841,43.0992188 C34.6588841,43.9140625 34.9059399,44.6715625 35.3280515,45.2995313 C34.8286867,45.970625 34.2497511,46.5776563 33.5988155,47.1104688 C31.7924807,48.5928125 29.5135107,49.409375 27.1815451,49.409375 C24.8505064,49.409375 22.5730815,48.5939063 20.7679828,47.1128125 C18.3663348,45.145625 16.9887554,42.225 16.9887554,39.1 Z M27.1846352,59.6421875 C24.1640343,59.6421875 21.6095794,57.3595313 21.2427811,54.3310938 C21.2126524,54.0853125 21.1975107,53.835 21.1975107,53.5875 L21.1975107,50.2089062 C23.0222318,51.2128125 25.0838112,51.753125 27.1815451,51.753125 C29.2806695,51.753125 31.344103,51.211875 33.1702146,50.2065625 L33.1702146,53.5875 C33.1702146,53.8228125 33.156309,54.0607812 33.1284979,54.2976562 C32.7785408,57.3445312 30.2233133,59.6421875 27.1846352,59.6421875 L27.1846352,59.6421875 Z" id="Shape" fill="#000000" fill-rule="nonzero"></path>
                <path d="M11.6094592,70.95375 C10.9694936,70.95375 10.4506609,71.4782813 10.4506609,72.125625 L10.4506609,78.828125 C10.4506609,79.4754687 10.9694936,80 11.6094592,80 C12.2494249,80 12.7682575,79.4754687 12.7682575,78.828125 L12.7682575,72.125625 C12.7682575,71.4784375 12.2494249,70.95375 11.6094592,70.95375 Z" id="Path" fill="#000000" fill-rule="nonzero"></path>
                <path d="M42.7890129,70.95375 C42.1490472,70.95375 41.6302146,71.4782813 41.6302146,72.125625 L41.6302146,78.828125 C41.6302146,79.4754687 42.1490472,80 42.7890129,80 C43.4289785,80 43.9478112,79.4754687 43.9478112,78.828125 L43.9478112,72.125625 C43.9478112,71.4784375 43.429133,70.95375 42.7890129,70.95375 Z" id="Path" fill="#000000" fill-rule="nonzero"></path>
                <path d="M65.3821803,3.084375 C64.8656652,2.70203125 64.140721,2.81546875 63.7626438,3.3378125 C63.384721,3.86015625 63.4968927,4.59328125 64.0134077,4.97546875 C67.4853219,7.54515625 69.5580258,11.6732813 69.5580258,16.0179688 C69.5580258,23.5579688 63.4922575,29.6923438 56.0362403,29.6923438 C55.3853047,29.6923438 54.7266438,29.6442188 54.0789528,29.5492188 C53.6908326,29.4926563 53.3014764,29.6375 53.0428326,29.935 C52.1565837,30.9535938 51.1581631,31.8621875 50.0752275,32.6360938 C48.7096996,33.6117188 47.2048069,34.38 45.6022661,34.9196875 C45.5576137,34.9345313 45.4537854,34.969375 45.3652532,34.8425 C45.2819742,34.7228125 45.3431588,34.6439063 45.372515,34.6059375 C46.4395365,33.2304688 47.2910215,31.7148438 47.903485,30.1009375 C48.1239657,29.5198438 48.3174077,28.9103125 48.4784034,28.2892188 C48.5989185,27.8242188 48.4264893,27.3320313 48.0433133,27.0475 C44.5812876,24.4770313 42.5144549,20.35375 42.5144549,16.0179688 C42.5146094,8.478125 48.5803777,2.34375 56.0362403,2.34375 C57.4944721,2.34375 58.9281373,2.57671875 60.2976824,3.03640625 C60.9050472,3.24078125 61.560927,2.90765625 61.7624034,2.29328125 C61.9638798,1.67890625 61.6349356,1.01578125 61.0275708,0.81203125 C59.4224034,0.273125 57.743073,2.22044605e-15 56.0362403,2.22044605e-15 C47.3024549,2.22044605e-15 40.1968584,7.185625 40.1968584,16.018125 C40.1968584,20.8214063 42.3619571,25.401875 46.0263863,28.4310938 C45.9380086,28.7139063 45.8423691,28.99125 45.7399313,29.26125 C45.2102833,30.6567188 44.4732876,31.9682813 43.5491845,33.1595313 C42.8586953,34.0495313 42.827176,35.2682813 43.4705408,36.1921875 C43.955073,36.8878125 44.7228155,37.2767188 45.5262489,37.2767188 C45.7947811,37.2767188 46.0673305,37.2332813 46.3346266,37.1432813 C48.1528584,36.5309375 49.8613906,35.6584375 51.4126352,34.55 C52.476103,33.7901563 53.4674163,32.91625 54.3660258,31.9470313 C54.9217854,32.0060938 55.4812532,32.0359375 56.0362403,32.0359375 C64.7700258,32.0359375 71.8756223,24.8503125 71.8756223,16.0178125 C71.8756223,10.92875 69.4481717,6.09375 65.3821803,3.084375 L65.3821803,3.084375 Z" id="Path" fill="#000000" fill-rule="nonzero"></path>
                <ellipse id="Oval" fill="#000000" fill-rule="nonzero" cx="56.0362403" cy="24.6035938" rx="1.15879828" ry="1.171875"></ellipse>
                <path d="M61.3625408,11.6832813 C61.2185408,8.8759375 58.9270558,6.63265625 56.1457854,6.5759375 C56.1091674,6.57515625 56.0730129,6.5746875 56.0365494,6.5746875 C53.3827468,6.5746875 51.1216996,8.55296875 50.7539742,11.2176563 C50.7198283,11.4648438 50.7025236,11.7175 50.7025236,11.9685938 C50.7025236,12.6159375 51.2213562,13.1404688 51.8613219,13.1404688 C52.5012876,13.1404688 53.0201202,12.6159375 53.0201202,11.9685938 C53.0201202,11.825625 53.0298541,11.681875 53.0493219,11.5417188 C53.2599142,10.0154688 54.5653391,8.89296875 56.09897,8.91921875 C57.6712275,8.95125 58.9666094,10.21875 59.0478798,11.8048437 C59.0912961,12.6514063 58.7983519,13.4551562 58.2231245,14.0676563 C57.6474335,14.6809375 56.8707296,15.0185938 56.0360858,15.0185938 C55.3961202,15.0185938 54.8772876,15.543125 54.8772876,16.1904688 L54.8772876,20.6053125 C54.8772876,21.2526563 55.3961202,21.7771875 56.0360858,21.7771875 C56.6760515,21.7771875 57.1948841,21.2526563 57.1948841,20.6053125 L57.1948841,17.2320313 C58.2211159,16.999375 59.171176,16.461875 59.9038455,15.6815625 C60.9212704,14.598125 61.439176,13.1782813 61.3625408,11.6832813 Z" id="Path" fill="#000000" fill-rule="nonzero"></path>
            </g>
        </g>
    </g>
</svg>