<svg width="16" height="13" viewBox="0 0 16 13" fill="none" xmlns="http://www.w3.org/2000/svg">
<path fill-rule="evenodd" clip-rule="evenodd" d="M15.7045 12.7162C15.5072 12.9054 15.2606 13 14.9646 13H8.67572C8.35511 13 8.10232 12.9023 7.91735 12.707C7.73238 12.5117 7.6399 12.2615 7.6399 11.9563C7.6399 11.6512 7.75088 11.3826 7.97284 11.1507L12.0051 6.88451C12.449 6.40845 12.8067 5.92324 13.0779 5.42887C13.3492 4.93451 13.4849 4.47371 13.4849 4.04648C13.4849 3.66808 13.3924 3.32629 13.2074 3.02113C13.0224 2.71596 12.782 2.47183 12.486 2.28873C12.1901 2.10563 11.8695 2.01408 11.5242 2.01408C11.1666 2.01408 10.8028 2.1331 10.4329 2.37113C10.063 2.60915 9.73619 2.92347 9.45258 3.31408C9.3046 3.50939 9.15663 3.63146 9.00866 3.68028C8.86068 3.72911 8.72504 3.75352 8.60173 3.75352C8.33044 3.75352 8.08074 3.65282 7.85261 3.45141C7.62449 3.25 7.51042 3.01502 7.51042 2.74648C7.51042 2.53897 7.58133 2.33756 7.72313 2.14225C7.86494 1.94695 8.04066 1.74554 8.25029 1.53803C8.71887 1.07418 9.26145 0.701878 9.878 0.421127C10.4946 0.140376 11.0865 0 11.6537 0C12.4922 0 13.2136 0.170892 13.8178 0.512676C14.422 0.85446 14.8906 1.32441 15.2236 1.92254C15.5565 2.52066 15.723 3.19812 15.723 3.95493C15.723 4.46761 15.6274 4.98944 15.4363 5.52042C15.2451 6.05141 14.9831 6.56714 14.6502 7.06761L14.4445 7.36569C14.1623 7.76021 13.8486 8.143 13.5034 8.51408L11.1628 10.9859H14.9646C15.2606 10.9859 15.5072 11.0836 15.7045 11.2789C15.9018 11.4742 16.0004 11.7183 16.0004 12.0113C16.0004 12.292 15.9018 12.527 15.7045 12.7162ZM4.91088 12.6796C4.68275 12.8932 4.38989 13 4.03229 13C3.68701 13 3.4034 12.8932 3.18144 12.6796L3.1034 12.597C2.93347 12.3988 2.8485 12.1608 2.8485 11.8831V3.21261L1.7017 3.89999C1.51673 4.00985 1.31943 4.06478 1.1098 4.06478C0.789194 4.06478 0.524074 3.94577 0.314444 3.70774C0.104815 3.46971 0 3.21642 0 2.94788C0 2.53286 0.191133 2.21548 0.573399 1.99577L3.3664 0.347879C3.57603 0.23802 3.84115 0.18309 4.16176 0.18309C4.48237 0.18309 4.74441 0.289898 4.94787 0.503513C5.15134 0.717128 5.25307 0.982621 5.25307 1.29999V11.8831C5.25307 12.2005 5.13901 12.466 4.91088 12.6796Z" fill="#BDBDBD"/>
</svg>
