<svg width="80" height="80" viewBox="0 0 80 80" fill="none" xmlns="http://www.w3.org/2000/svg">
<circle cx="40" cy="40" r="40" fill="#EBEBF9"/>
<rect x="28" y="8" width="24" height="8" rx="2" fill="#3030AD"/>
<rect x="28" y="56" width="24" height="8" rx="2" fill="#3030AD"/>
<path d="M40 16L23 33" stroke="#AFAFE9"/>
<path d="M40 64L27 77" stroke="#AFAFE9"/>
<path d="M40 56L56 40" stroke="#AFAFE9"/>
<path d="M5 59L24 40" stroke="#AFAFE9"/>
<path d="M75 59L56 40" stroke="#AFAFE9"/>
<path d="M40 16L57 33" stroke="#AFAFE9"/>
<path d="M40 64L53 77" stroke="#AFAFE9"/>
<path d="M40 56L24 40" stroke="#AFAFE9"/>
<rect x="44" y="32" width="24" height="8" rx="2" fill="#3030AD"/>
<circle cx="40" cy="16" r="2" fill="#3030AD"/>
<circle cx="40" cy="16" r="1" fill="#AFAFE9"/>
<circle cx="40" cy="64" r="2" fill="#3030AD"/>
<circle cx="56" cy="40" r="2" fill="#3030AD"/>
<circle cx="56" cy="40" r="1" fill="#AFAFE9"/>
<circle cx="40" cy="64" r="1" fill="#AFAFE9"/>
<rect x="12" y="32" width="24" height="8" rx="2" fill="#3030AD"/>
<circle cx="24" cy="40" r="2" fill="#3030AD"/>
<circle cx="24" cy="40" r="1" fill="#AFAFE9"/>
</svg>
