<svg width="16" height="16" viewBox="0 0 16 16" fill="none" xmlns="http://www.w3.org/2000/svg">
<path d="M10.6667 14.6677H9.33334V13.3355H6.66667V14.6677H5.33334C4.96534 14.6677 4.66667 14.9662 4.66667 15.3339C4.66667 15.7016 4.96534 16 5.33334 16H10.6667C11.0353 16 11.3333 15.7016 11.3333 15.3339C11.3333 14.9662 11.0353 14.6677 10.6667 14.6677Z" fill="#3030AD"/>
<path d="M15.22 2.75057C15.1333 3.0037 14.9933 3.23685 14.7933 3.43669L14.2267 4.00956H14.6667V12.0032H1.33333V4.00956H3.81333C4.05333 3.5033 4.38 3.05033 4.78 2.67729H1.16667C0.526667 2.67729 0 3.20354 0 3.84303V12.1697C0 12.8092 0.526667 13.3355 1.16667 13.3355H14.8333C15.4733 13.3355 16 12.8092 16 12.1697V3.84303C16 3.33677 15.6733 2.90378 15.22 2.75057Z" fill="#3030AD"/>
<path d="M13.9481 1.95785C13.8695 1.77199 13.6861 1.65142 13.4841 1.65276L12.3175 1.66142L12.3088 0.495677C12.3075 0.293838 12.1841 0.112649 11.9968 0.0367095C11.8095 -0.0392301 11.5948 0.00473492 11.4528 0.149287L9.7988 1.82662C9.70546 1.92121 9.65413 2.04844 9.6548 2.181L9.66546 3.6465C9.65946 3.65183 9.65146 3.65383 9.64546 3.65982L7.66013 5.67289C7.46613 5.8694 7.4688 6.18581 7.66546 6.37966C7.76413 6.47625 7.89213 6.52421 8.02013 6.52355C8.14813 6.52288 8.27546 6.47292 8.3728 6.37433L10.3581 4.36127C10.3641 4.35527 10.3661 4.34728 10.3715 4.34128L11.8381 4.33062C11.9708 4.32996 12.0975 4.276 12.1908 4.18141L13.8448 2.50408C13.9855 2.35953 14.0268 2.14436 13.9481 1.95785Z" fill="#3030AD"/>
<path d="M11.2728 5.3345H10.7995L10.0061 6.14053C9.95279 7.18636 9.09279 8.01237 8.03279 8.01903C6.92612 8.03235 6.02612 7.13973 6.01279 6.04061C6.00612 4.97479 6.83279 4.10215 7.87946 4.02888L8.65946 3.23617V2.74989C8.43946 2.70993 8.21946 2.68994 7.99279 2.68994C6.15279 2.70993 4.66612 4.20873 4.67946 6.04727C4.69946 7.8858 6.20612 9.36463 8.03946 9.3513C9.87946 9.33798 11.3661 7.83251 11.3461 6.00064C11.3461 5.77415 11.3195 5.54767 11.2728 5.3345Z" fill="#3030AD"/>
</svg>
