<?xml version="1.0" encoding="UTF-8"?>
<svg width="15px" height="16px" viewBox="0 0 15 16" version="1.1" xmlns="http://www.w3.org/2000/svg" xmlns:xlink="http://www.w3.org/1999/xlink">
    <title>8BC921A1-0384-443F-8517-8BAE567311C5</title>
    <defs>
        <filter id="filter-1">
            <feColorMatrix in="SourceGraphic" type="matrix" values="0 0 0 0 0.290222 0 0 0 0 0.290175 0 0 0 0 0.290237 0 0 0 1.000000 0"></feColorMatrix>
        </filter>
    </defs>
    <g id="Wireframes-2.0" stroke="none" stroke-width="1" fill="none" fill-rule="evenodd">
        <g id="002-checklist" transform="translate(-201.000000, -713.000000)" filter="url(#filter-1)">
            <g transform="translate(201.000000, 713.000000)">
                <path d="M12.9675,1.06666667 L12.3214286,1.06666667 L12.3214286,0.533333333 C12.3214286,0.238781467 12.0815811,0 11.7857143,0 C11.4898475,0 11.25,0.238781467 11.25,0.533333333 L11.25,1.06666667 L8.03571429,1.06666667 L8.03571429,0.533333333 C8.03571429,0.238781467 7.79586683,0 7.5,0 C7.20413317,0 6.96428571,0.238781467 6.96428571,0.533333333 L6.96428571,1.06666667 L3.75,1.06666667 L3.75,0.533333333 C3.75,0.238781467 3.51015254,0 3.21428571,0 C2.91841888,0 2.67857143,0.238781467 2.67857143,0.533333333 L2.67857143,1.06666667 L2.0325,1.06666667 C0.910715158,1.06842865 0.00176984528,1.9733342 0,3.09013333 L0,13.9765333 C0.00176984528,15.0933325 0.910715158,15.998238 2.0325,16 L12.9675,16 C14.0892848,15.998238 14.9982302,15.0933325 15,13.9765333 L15,3.09013333 C14.9982302,1.9733342 14.0892848,1.06842865 12.9675,1.06666667 Z M13.9285714,13.9765333 C13.9268075,14.5042303 13.4975527,14.9315773 12.9675,14.9333333 L2.0325,14.9333333 C1.50244726,14.9315773 1.07319249,14.5042303 1.07142857,13.9765333 L1.07142857,3.09013333 C1.07319249,2.56243639 1.50244726,2.13508941 2.0325,2.13333333 L2.67857143,2.13333333 L2.67857143,2.66666667 C2.67857143,2.96121853 2.91841888,3.2 3.21428571,3.2 C3.51015254,3.2 3.75,2.96121853 3.75,2.66666667 L3.75,2.13333333 L6.96428571,2.13333333 L6.96428571,2.66666667 C6.96428571,2.96121853 7.20413317,3.2 7.5,3.2 C7.79586683,3.2 8.03571429,2.96121853 8.03571429,2.66666667 L8.03571429,2.13333333 L11.25,2.13333333 L11.25,2.66666667 C11.25,2.96121853 11.4898475,3.2 11.7857143,3.2 C12.0815811,3.2 12.3214286,2.96121853 12.3214286,2.66666667 L12.3214286,2.13333333 L12.9675,2.13333333 C13.4975527,2.13508941 13.9268075,2.56243639 13.9285714,3.09013333 L13.9285714,13.9765333 Z" id="Shape" fill="#000000" fill-rule="nonzero"></path>
                <path d="M5.51410714,5.4896 L4.28571429,6.71253333 L3.59303571,6.02293333 C3.45853153,5.88428982 3.25935113,5.82868661 3.07204965,5.87749485 C2.88474817,5.92630308 2.73847408,6.07192706 2.68944795,6.25839609 C2.64042182,6.44486512 2.69627326,6.64316028 2.83553571,6.77706667 L3.90696429,7.84373333 C4.11616063,8.05193703 4.45526794,8.05193703 4.66446429,7.84373333 L6.27160714,6.24373333 C6.47462797,6.03446459 6.47172449,5.70182145 6.26508138,5.49609676 C6.05843827,5.29037207 5.72431012,5.28748149 5.51410714,5.4896 L5.51410714,5.4896 Z" id="Path" fill="#000000" fill-rule="nonzero"></path>
                <path d="M11.7857143,6.4 L8.03571429,6.4 C7.73984746,6.4 7.5,6.63878147 7.5,6.93333333 C7.5,7.2278852 7.73984746,7.46666667 8.03571429,7.46666667 L11.7857143,7.46666667 C12.0815811,7.46666667 12.3214286,7.2278852 12.3214286,6.93333333 C12.3214286,6.63878147 12.0815811,6.4 11.7857143,6.4 Z" id="Path" fill="#000000" fill-rule="nonzero"></path>
                <path d="M5.51410714,10.2896 L4.28571429,11.5125333 L3.59303571,10.8229333 C3.45853153,10.6842898 3.25935113,10.6286866 3.07204965,10.6774948 C2.88474817,10.7263031 2.73847408,10.8719271 2.68944795,11.0583961 C2.64042182,11.2448651 2.69627326,11.4431603 2.83553571,11.5770667 L3.90696429,12.6437333 C4.11616063,12.851937 4.45526794,12.851937 4.66446429,12.6437333 L6.27160714,11.0437333 C6.47462797,10.8344646 6.47172449,10.5018215 6.26508138,10.2960968 C6.05843827,10.0903721 5.72431012,10.0874815 5.51410714,10.2896 Z" id="Path" fill="#000000" fill-rule="nonzero"></path>
                <path d="M11.7857143,11.2 L8.03571429,11.2 C7.73984746,11.2 7.5,11.4387815 7.5,11.7333333 C7.5,12.0278852 7.73984746,12.2666667 8.03571429,12.2666667 L11.7857143,12.2666667 C12.0815811,12.2666667 12.3214286,12.0278852 12.3214286,11.7333333 C12.3214286,11.4387815 12.0815811,11.2 11.7857143,11.2 Z" id="Path" fill="#000000" fill-rule="nonzero"></path>
            </g>
        </g>
    </g>
</svg>