<svg width="58" height="60" viewBox="0 0 58 60" fill="none" xmlns="http://www.w3.org/2000/svg">
<path d="M49 60L57.6603 45H40.3397L49 60Z" fill="#9B9B9B"/>
<path d="M29 60L37.6603 45H20.3397L29 60Z" fill="#9B9B9B"/>
<path d="M27.5 45L27.5 46.5H30.5L30.5 45H27.5ZM27.5 15V45H30.5V15H27.5Z" fill="#9B9B9B"/>
<path d="M9 60L17.6603 45H0.339746L9 60Z" fill="#9B9B9B"/>
<path d="M29 15C29 51.7041 49.5095 22.7449 48.9903 48" stroke="#9B9B9B" stroke-width="7"/>
<path d="M29 15C29 51.7041 8.49047 22.7449 9.0097 48" stroke="#9B9B9B" stroke-width="7"/>
<path d="M29 17C29 2.90678 19 1.27337 14 2.21832" stroke="#9B9B9B" stroke-width="7"/>
</svg>
