<svg width="58" height="61" viewBox="0 0 58 61" fill="none" xmlns="http://www.w3.org/2000/svg">
<path d="M9 61L17.6603 46H0.339746L9 61Z" fill="#9B9B9B"/>
<path d="M49 61L57.6603 46H40.3397L49 61Z" fill="#9B9B9B"/>
<path d="M29 61L37.6603 46H20.3397L29 61Z" fill="#9B9B9B"/>
<path d="M27 46L27 48H31V46H27ZM27 16V46H31V16H27Z" fill="#9B9B9B"/>
<path d="M29 16C29 52.7041 49.5095 23.7449 48.9903 49" stroke="#9B9B9B" stroke-width="7"/>
<path d="M29 16C29 52.7041 8.49047 23.7449 9.0097 49" stroke="#9B9B9B" stroke-width="7"/>
<path d="M29 17C29 2.90678 39 1.27337 44 2.21832" stroke="#9B9B9B" stroke-width="7"/>
</svg>
