<?xml version="1.0" encoding="UTF-8"?>
<svg width="198" height="198" viewBox="0 0 198 198" fill="none" xmlns="http://www.w3.org/2000/svg">
    <circle cx="99" cy="99" r="60" transform="rotate(-180 99 99)" stroke="#4A4A4A" stroke-width="3" stroke-linecap="round"/>
    <circle cx="99.0001" cy="99" r="79" transform="rotate(15 99.0001 99)" stroke="#F1F1F1" stroke-width="3" stroke-linecap="round"/>
    <path fill-rule="evenodd" clip-rule="evenodd" d="M81.875 102.507C82.606 101.776 83.7908 101.776 84.5215 102.507L95.3719 113.358C96.1027 114.088 96.1027 115.273 95.3719 116.004L82.1394 129.237C81.045 130.331 79.6073 130.878 78.1698 130.878C76.7322 130.878 75.2946 130.331 74.2001 129.237L72.7435 127.78L70.1957 130.328C69.8304 130.693 69.3514 130.876 68.8725 130.876C68.3936 130.876 67.9148 130.693 67.5494 130.328C66.8186 129.597 66.8186 128.412 67.5494 127.681L70.0971 125.134L68.6426 123.679C66.4538 121.49 66.4538 117.928 68.6426 115.74L71.2888 113.093L71.2891 113.093L71.2893 113.093L76.5819 107.8L76.582 107.8L76.5821 107.8L81.875 102.507ZM75.2587 114.416L83.4628 122.62L86.1092 119.974L77.9051 111.77L75.2587 114.416ZM76.8466 126.59L71.2891 121.032C70.5594 120.303 70.5594 119.116 71.2891 118.386L72.6124 117.063L80.8165 125.267L79.4933 126.59C78.7635 127.32 77.5762 127.32 76.8466 126.59ZM80.5516 109.123L88.7557 117.327L91.4023 114.681L83.1982 106.477L80.5516 109.123Z" fill="#4A4A4A"/>
    <path d="M130.31 106.924C125.486 102.231 119.122 99.6465 112.392 99.6465C106.881 99.6465 101.416 101.464 97.0029 104.763C96.1751 105.382 96.0058 106.555 96.6246 107.382C97.2435 108.21 98.4162 108.38 99.2439 107.761C103.014 104.942 107.684 103.389 112.392 103.389C118.142 103.389 123.579 105.597 127.701 109.607C128.065 109.96 128.535 110.136 129.005 110.136C129.493 110.136 129.98 109.947 130.347 109.57C131.068 108.829 131.051 107.644 130.31 106.924Z" fill="#4A4A4A"/>
    <path d="M82.5872 78.0669C87.4242 79.7076 90.6741 84.2419 90.6741 89.3496C90.6741 91.9097 89.8718 94.3525 88.354 96.4138C87.7412 97.2461 87.9191 98.4175 88.7514 99.0303C89.0855 99.2764 89.4741 99.3949 89.8595 99.3949C90.434 99.3949 91.001 99.1311 91.3678 98.633C93.3625 95.924 94.4168 92.7139 94.4168 89.3497C94.4168 82.6372 90.146 76.6789 83.7893 74.5226C82.8105 74.1905 81.7481 74.7148 81.4161 75.6937C81.0841 76.6724 81.6085 77.7349 82.5872 78.0669Z" fill="#9B9B9B"/>
    <path d="M101.816 89.4288C102.181 89.7942 102.66 89.9769 103.139 89.9769C103.618 89.9769 104.097 89.7942 104.462 89.4288C105.417 88.4737 107.103 88.1692 108.888 87.8468C111.055 87.4554 113.511 87.0119 115.295 85.2283C117.078 83.4448 117.522 80.9886 117.913 78.8215C118.236 77.0366 118.54 75.3509 119.495 74.3956C120.951 72.9402 123.231 72.3828 125.644 71.7926C126.981 71.4657 128.364 71.1276 129.681 70.6167C130.645 70.2431 131.123 69.159 130.749 68.1955C130.376 67.2317 129.292 66.7533 128.328 67.1272C127.238 67.5499 126.032 67.8448 124.755 68.1571C121.948 68.8435 119.045 69.5533 116.849 71.7492C115.065 73.5327 114.621 75.989 114.23 78.1561C113.908 79.941 113.603 81.6267 112.648 82.5819C111.693 83.5369 110.007 83.8414 108.223 84.1638C106.055 84.5553 103.599 84.9988 101.816 86.7823C101.085 87.5131 101.085 88.6981 101.816 89.4288Z" fill="#4A4A4A"/>
    <path d="M108.67 74.1118C109.701 74.1118 110.542 73.2712 110.542 72.2405C110.542 71.2099 109.701 70.3691 108.67 70.3691C107.64 70.3691 106.799 71.2099 106.799 72.2405C106.799 73.2712 107.639 74.1118 108.67 74.1118Z" fill="#4A4A4A"/>
    <path d="M71.1777 91.9446C71.1777 92.9752 72.0183 93.8159 73.0491 93.8159C74.0798 93.8159 74.9204 92.9753 74.9204 91.9446C74.9204 90.9139 74.0797 90.0732 73.0491 90.0732C72.0185 90.0732 71.1777 90.9139 71.1777 91.9446Z" fill="#9B9B9B"/>
    <path d="M71.1184 73.6128C72.1492 73.6128 72.9898 72.7721 72.9898 71.7415C72.9898 70.7107 72.149 69.8701 71.1184 69.8701C70.0877 69.8701 69.2471 70.7107 69.2471 71.7415C69.2471 72.7721 70.0877 73.6128 71.1184 73.6128Z" fill="#4A4A4A"/>
    <path d="M112.537 109.543C111.507 109.543 110.666 110.384 110.666 111.414C110.666 112.445 111.507 113.286 112.537 113.286C113.568 113.286 114.409 112.445 114.409 111.414C114.409 110.384 113.568 109.543 112.537 109.543Z" fill="#9B9B9B"/>
    <path d="M123.391 126.634C122.36 126.634 121.52 127.474 121.52 128.505C121.52 129.536 122.36 130.376 123.391 130.376C124.422 130.376 125.262 129.536 125.262 128.505C125.262 127.474 124.421 126.634 123.391 126.634Z" fill="#9B9B9B"/>
    <path d="M98.0657 124.638C97.0349 124.638 96.1943 125.478 96.1943 126.509C96.1943 127.54 97.0349 128.38 98.0657 128.38C99.0964 128.38 99.937 127.54 99.937 126.509C99.937 125.478 99.0964 124.638 98.0657 124.638Z" fill="#4A4A4A"/>
    <path d="M97.5217 77.1341C97.4365 78.1641 98.2025 79.0681 99.2325 79.1533C99.2851 79.1575 99.3369 79.1598 99.3887 79.1598C100.352 79.1598 101.171 78.42 101.252 77.4424C101.527 74.1139 100.707 70.719 98.943 67.8832C98.397 67.0056 97.243 66.7367 96.3656 67.2826C95.488 67.8285 95.2191 68.9824 95.7651 69.8601C97.1072 72.018 97.7311 74.6013 97.5217 77.1341Z" fill="#9B9B9B"/>
    <path d="M113.798 90.6132C112.818 90.9401 112.288 91.9999 112.615 92.9805C112.877 93.7645 113.607 94.2605 114.39 94.2605C114.586 94.2605 114.786 94.2294 114.982 94.164C118.329 93.0482 121.939 92.7551 125.422 93.3172C126.443 93.4825 127.403 92.788 127.568 91.7677C127.732 90.7473 127.039 89.7868 126.018 89.6223C121.941 88.9649 117.716 89.3076 113.798 90.6132Z" fill="#9B9B9B"/>
    <path d="M99.6878 94.8213C98.657 94.8213 97.8164 95.662 97.8164 96.6926C97.8164 97.7234 98.657 98.564 99.6878 98.564C100.718 98.564 101.559 97.7232 101.559 96.6926C101.559 95.6619 100.718 94.8213 99.6878 94.8213Z" fill="#9B9B9B"/>
    <path d="M128.506 78.8528C128.506 77.8222 127.666 76.9814 126.635 76.9814C125.604 76.9814 124.764 77.8221 124.764 78.8528C124.764 79.8835 125.604 80.7241 126.635 80.7241C127.666 80.7241 128.506 79.8834 128.506 78.8528Z" fill="#9B9B9B"/>
</svg>


