<svg width="48" height="48" viewBox="0 0 48 48" fill="none" xmlns="http://www.w3.org/2000/svg">
<g id="party">
<path id="Shape" fill-rule="evenodd" clip-rule="evenodd" d="M11.1772 26.6814C11.7265 26.1323 12.6168 26.1321 13.1659 26.6814L21.3196 34.8352C21.8688 35.3843 21.8688 36.2748 21.3196 36.8239L11.3759 46.7675C10.5535 47.5898 9.47315 48.001 8.39287 48.001C7.3126 48.001 6.23233 47.5898 5.40987 46.7676L4.31525 45.6729L2.40071 47.5874C2.12621 47.862 1.76621 47.9993 1.4064 47.9993C1.0465 47.9993 0.686689 47.8621 0.412098 47.5874C-0.137085 47.0382 -0.137085 46.1478 0.412098 45.5987L2.32664 43.6842L1.23362 42.5912C-0.411207 40.9462 -0.411207 38.2699 1.23362 36.625L3.22214 34.6365L3.22232 34.6363L3.22251 34.6361L7.19963 30.659L7.19973 30.6589L7.19982 30.6588L11.1772 26.6814ZM6.20538 35.6301L12.3704 41.7951L14.3591 39.8063L8.19409 33.6414L6.20538 35.6301ZM7.39762 44.7793L3.22137 40.603C2.67303 40.0546 2.67303 39.1625 3.22137 38.6142L4.21577 37.6199L10.3808 43.7849L9.38651 44.7792C8.83808 45.3276 7.94587 45.3275 7.39762 44.7793ZM10.1819 31.6538L16.3469 37.8188L18.3357 35.8301L12.1707 29.665L10.1819 31.6538Z" fill="white"/>
<path id="Path" d="M47.5739 29.9996C43.9483 26.4734 39.1663 24.5312 34.1087 24.5312C29.9679 24.5312 25.8611 25.8967 22.5447 28.3762C21.9227 28.8413 21.7955 29.7224 22.2605 30.3445C22.7256 30.9666 23.6068 31.0938 24.2288 30.6287C27.0622 28.5103 30.5709 27.3437 34.1087 27.3437C38.4298 27.3437 42.5154 29.0029 45.6131 32.0158C45.8863 32.2817 46.24 32.414 46.5934 32.414C46.9598 32.414 47.3258 32.2716 47.6016 31.9882C48.143 31.4314 48.1306 30.5411 47.5739 29.9996Z" fill="white"/>
<path id="Path_2" d="M11.7127 8.31648C15.3476 9.54938 17.7897 12.9567 17.7897 16.795C17.7897 18.7188 17.1868 20.5544 16.0463 22.1034C15.5858 22.7288 15.7195 23.6091 16.3449 24.0696C16.5959 24.2545 16.888 24.3436 17.1776 24.3436C17.6093 24.3436 18.0354 24.1454 18.311 23.771C19.8099 21.7354 20.6022 19.3231 20.6022 16.7951C20.6022 11.7509 17.3929 7.27343 12.6161 5.65307C11.8805 5.40351 11.0822 5.79754 10.8327 6.53309C10.5832 7.26856 10.9773 8.06702 11.7127 8.31648Z" fill="white"/>
<path id="Path_3" d="M26.1619 16.8543C26.4365 17.1289 26.7964 17.2662 27.1562 17.2662C27.516 17.2662 27.876 17.1289 28.1505 16.8543C28.8682 16.1366 30.1351 15.9078 31.4763 15.6655C33.1049 15.3714 34.9507 15.0381 36.2908 13.6978C37.631 12.3576 37.9645 10.5119 38.2585 8.88335C38.5007 7.54208 38.7295 6.27534 39.4473 5.5575C40.541 4.46382 42.2542 4.04495 44.068 3.60142C45.0728 3.3558 46.1117 3.10174 47.1016 2.71784C47.8257 2.43706 48.1852 1.62238 47.9044 0.898352C47.6236 0.174139 46.8091 -0.185389 46.0849 0.0955772C45.2658 0.4132 44.3596 0.634823 43.4 0.869477C41.2902 1.38529 39.1088 1.91872 37.4586 3.5688C36.1183 4.90904 35.7849 6.75487 35.4909 8.38338C35.2486 9.72465 35.0198 10.9914 34.3021 11.7091C33.5845 12.4268 32.3176 12.6556 30.9764 12.8979C29.3478 13.1921 27.502 13.5253 26.1618 14.8656C25.6127 15.4148 25.6127 16.3052 26.1619 16.8543Z" fill="white"/>
<path id="Path_4" d="M31.3125 5.34568C32.087 5.34568 32.7187 4.714 32.7187 3.93944C32.7187 3.16498 32.087 2.5332 31.3125 2.5332C30.538 2.5332 29.9062 3.16498 29.9062 3.93944C29.9062 4.714 30.5379 5.34568 31.3125 5.34568Z" fill="white"/>
<path id="Path_5" d="M3.13867 18.7441C3.13867 19.5186 3.77035 20.1504 4.54491 20.1504C5.31947 20.1504 5.95115 19.5187 5.95115 18.7441C5.95115 17.9696 5.31937 17.3379 4.54491 17.3379C3.77045 17.3379 3.13867 17.9696 3.13867 18.7441Z" fill="white"/>
<path id="Path_6" d="M3.09374 4.96873C3.86829 4.96873 4.49998 4.33695 4.49998 3.56249C4.49998 2.78793 3.8682 2.15625 3.09374 2.15625C2.31918 2.15625 1.6875 2.78793 1.6875 3.56249C1.6875 4.33695 2.31918 4.96873 3.09374 4.96873Z" fill="white"/>
<path id="Path_7" d="M34.2187 31.9688C33.4443 31.9688 32.8125 32.6004 32.8125 33.375C32.8125 34.1495 33.4442 34.7812 34.2187 34.7812C34.9933 34.7812 35.625 34.1495 35.625 33.375C35.625 32.6004 34.9933 31.9688 34.2187 31.9688Z" fill="white"/>
<path id="Path_8" d="M42.375 44.8145C41.6004 44.8145 40.9688 45.4461 40.9688 46.2207C40.9688 46.9952 41.6004 47.6269 42.375 47.6269C43.1495 47.6269 43.7812 46.9952 43.7812 46.2207C43.7812 45.4461 43.1495 44.8145 42.375 44.8145Z" fill="white"/>
<path id="Path_9" d="M23.3437 43.3125C22.5692 43.3125 21.9375 43.9442 21.9375 44.7187C21.9375 45.4932 22.5692 46.125 23.3437 46.125C24.1183 46.125 24.75 45.4932 24.75 44.7187C24.75 43.9442 24.1183 43.3125 23.3437 43.3125Z" fill="white"/>
<path id="Path_10" d="M22.9348 7.61536C22.8708 8.38935 23.4464 9.06866 24.2204 9.13269C24.2599 9.13588 24.2989 9.13757 24.3378 9.13757C25.0619 9.13757 25.677 8.58163 25.7377 7.84702C25.9444 5.34579 25.3283 2.79468 24.0028 0.66367C23.5926 0.00423843 22.7254 -0.197885 22.066 0.212362C21.4065 0.622608 21.2045 1.48969 21.6147 2.14922C22.6233 3.7708 23.0921 5.71207 22.9348 7.61536Z" fill="white"/>
<path id="Path_11" d="M35.1669 17.745C34.4302 17.9906 34.0321 18.787 34.2776 19.5239C34.4741 20.1131 35.0227 20.4858 35.6116 20.4858C35.7589 20.4858 35.9089 20.4624 36.0565 20.4133C38.5713 19.5748 41.2842 19.3546 43.9018 19.7769C44.6688 19.9012 45.3903 19.3793 45.514 18.6126C45.6377 17.8458 45.1163 17.124 44.3496 17.0004C41.2856 16.5064 38.1106 16.7639 35.1669 17.745Z" fill="white"/>
<path id="Path_12" d="M24.5625 20.9062C23.7879 20.9062 23.1562 21.538 23.1562 22.3125C23.1562 23.087 23.7879 23.7187 24.5625 23.7187C25.337 23.7187 25.9687 23.087 25.9687 22.3125C25.9687 21.5379 25.337 20.9062 24.5625 20.9062Z" fill="white"/>
<path id="Path_13" d="M46.2187 8.90624C46.2187 8.13178 45.587 7.5 44.8125 7.5C44.038 7.5 43.4062 8.13168 43.4062 8.90624C43.4062 9.68079 44.0379 10.3125 44.8125 10.3125C45.587 10.3125 46.2187 9.6807 46.2187 8.90624Z" fill="white"/>
</g>
</svg>
