<svg width="24" height="28" viewBox="0 0 24 28" fill="none" xmlns="http://www.w3.org/2000/svg">
<path d="M6.34168 14.3298C6.34168 13.612 5.83496 13.1836 4.94073 13.1836C4.57595 13.1836 4.32881 13.2182 4.19922 13.2529V15.5579C4.35243 15.5921 4.54077 15.6038 4.79908 15.6038C5.75314 15.6038 6.34168 15.1291 6.34168 14.3298Z" fill="#333333"/>
<path d="M11.8753 13.207C11.4745 13.207 11.2161 13.2417 11.0625 13.2765V18.3853C11.2158 18.4206 11.4631 18.4206 11.6869 18.4206C13.3113 18.4318 14.371 17.5518 14.371 15.6865C14.3829 14.064 13.4172 13.207 11.8753 13.207Z" fill="#333333"/>
<path fill-rule="evenodd" clip-rule="evenodd" d="M21.8303 10.205H22.4811C23.3196 10.205 24 10.8741 24 11.6997V19.4722C24 20.2973 23.3197 20.9667 22.4811 20.9667H21.8304V26.2874C21.8304 26.8639 21.3535 27.3332 20.7676 27.3332H3.23236C2.64599 27.3332 2.16962 26.8638 2.16962 26.2874V20.9667H1.51899C0.680156 20.9667 0 20.2973 0 19.4722V11.6995C0 10.8738 0.680156 10.2048 1.51899 10.2048H2.16957V1.7123C2.16957 1.13578 2.64594 0.666504 3.23232 0.666504H16.0735C16.115 0.666504 16.156 0.672265 16.1954 0.681464C16.2006 0.682794 16.2056 0.68453 16.2105 0.686272L16.2105 0.686276C16.2149 0.687829 16.2193 0.689385 16.224 0.690663C16.2603 0.701362 16.2956 0.716177 16.3288 0.734042C16.3407 0.740529 16.3522 0.746823 16.3635 0.754328C16.4019 0.77897 16.4382 0.807438 16.4694 0.841667C16.47 0.842664 16.4709 0.843253 16.4717 0.843896L16.4736 0.845346L21.6986 6.71859C21.7839 6.81406 21.8236 6.93456 21.8246 7.05724L21.8257 7.06549V7.06551V7.06553V7.06555V7.06557C21.828 7.08228 21.8303 7.09891 21.8303 7.11544V10.205ZM15.5415 1.71224H3.23177V10.2051H20.767V7.58553H16.0729C15.7797 7.58553 15.5415 7.35154 15.5415 7.06265V1.71224ZM16.2786 15.6281C16.2786 17.1229 15.7255 18.1536 14.9591 18.7911C14.1241 19.4746 12.8523 19.7988 11.2987 19.7988C10.3688 19.7988 9.70965 19.7409 9.26172 19.6832V12.0136C9.92096 11.9095 10.781 11.8516 11.6875 11.8516C13.1937 11.8516 14.1711 12.1182 14.9367 12.6855C15.7605 13.2881 16.2786 14.2494 16.2786 15.6281ZM2.42057 12.0136V19.7179V19.7181H4.19826V16.9261C4.36234 16.9493 4.57499 16.9611 4.81007 16.9611C5.86996 16.9611 6.7764 16.706 7.38856 16.1382C7.85985 15.6983 8.11816 15.0496 8.11816 14.2847C8.11816 13.52 7.77754 12.8711 7.27116 12.4775C6.74156 12.0601 5.95257 11.8516 4.84599 11.8516C3.75107 11.8516 2.97364 11.9214 2.42057 12.0136ZM20.767 26.0044H3.23177V20.9668H20.767V26.0044ZM19.2574 13.3576H22.3074V11.9095H17.457V19.718H19.2574V16.5784H22.1068V15.1417H19.2574V13.3576Z" fill="#333333"/>
</svg>
