<svg width="24" height="24" viewBox="0 0 24 24" fill="none" xmlns="http://www.w3.org/2000/svg">
<path fill-rule="evenodd" clip-rule="evenodd" d="M7.4709 12.6565C8.11993 12.6565 8.70194 12.4636 9.21693 12.0779C9.73192 11.6922 10.1446 11.1729 10.455 10.5202C10.7654 9.86741 10.9206 9.14047 10.9206 8.33936C10.9206 7.52341 10.776 6.78906 10.4868 6.1363C10.1975 5.48354 9.79541 4.9643 9.28042 4.57858C8.76543 4.19286 8.16226 4 7.4709 4C6.79365 4 6.194 4.19286 5.67196 4.57858C5.14991 4.9643 4.74074 5.48354 4.44444 6.1363C4.14815 6.78906 4 7.52341 4 8.33936C4 9.14047 4.14815 9.86741 4.44444 10.5202C4.74074 11.1729 5.14991 11.6922 5.67196 12.0779C6.194 12.4636 6.79365 12.6565 7.4709 12.6565ZM7.72487 19.822C8.04938 19.822 8.33862 19.6439 8.59259 19.2879L17.0159 5.91377C17.157 5.66157 17.2275 5.43904 17.2275 5.24618C17.2275 4.90496 17.1041 4.63792 16.8571 4.44506C16.6102 4.2522 16.3668 4.15577 16.127 4.15577C15.8025 4.15577 15.5132 4.3338 15.2593 4.68985L6.83598 18.064C6.69489 18.3162 6.62434 18.5387 6.62434 18.7316C6.62434 19.058 6.75132 19.3213 7.00529 19.5216C7.25926 19.7218 7.49912 19.822 7.72487 19.822ZM6.46561 10.0083C6.69841 10.4534 7.03351 10.6759 7.4709 10.6759C7.89418 10.6759 8.22222 10.4534 8.45503 10.0083C8.68783 9.56328 8.80423 9.00695 8.80423 8.33936C8.80423 7.67177 8.69136 7.11544 8.46561 6.67038C8.23986 6.22531 7.90829 6.00278 7.4709 6.00278C7.04762 6.00278 6.71605 6.22531 6.47619 6.67038C6.23633 7.11544 6.1164 7.67177 6.1164 8.33936C6.1164 9.00695 6.2328 9.56328 6.46561 10.0083ZM16.5503 20C17.1993 20 17.7813 19.8071 18.2963 19.4214C18.8113 19.0357 19.224 18.5165 19.5344 17.8637C19.8448 17.2109 20 16.484 20 15.6829C20 14.8669 19.8554 14.1326 19.5661 13.4798C19.2769 12.8271 18.8748 12.3078 18.3598 11.9221C17.8448 11.5364 17.2416 11.3435 16.5503 11.3435C15.873 11.3435 15.2734 11.5364 14.7513 11.9221C14.2293 12.3078 13.8201 12.8271 13.5238 13.4798C13.2275 14.1326 13.0794 14.8669 13.0794 15.6829C13.0794 16.484 13.2346 17.2109 13.545 17.8637C13.8554 18.5165 14.2716 19.0357 14.7937 19.4214C15.3157 19.8071 15.9012 20 16.5503 20ZM15.545 17.3519C15.7778 17.7969 16.1129 18.0195 16.5503 18.0195C16.9735 18.0195 17.3016 17.7969 17.5344 17.3519C17.7672 16.9068 17.8836 16.3505 17.8836 15.6829C17.8836 15.0153 17.7707 14.459 17.545 14.0139C17.3192 13.5688 16.9877 13.3463 16.5503 13.3463C16.127 13.3463 15.7954 13.5688 15.5556 14.0139C15.3157 14.459 15.1958 15.0153 15.1958 15.6829C15.1958 16.3505 15.3122 16.9068 15.545 17.3519Z" fill="#BDBDBD"/>
</svg>
