<?xml version="1.0" encoding="UTF-8"?>
<svg width="12px" height="16px" viewBox="0 0 12 16" version="1.1" xmlns="http://www.w3.org/2000/svg" xmlns:xlink="http://www.w3.org/1999/xlink">
    <title>323D6DA6-F586-4D16-AA33-A325B16DAA6C</title>
    <defs>
        <filter id="filter-1">
            <feColorMatrix in="SourceGraphic" type="matrix" values="0 0 0 0 0.290196 0 0 0 0 0.290196 0 0 0 0 0.290196 0 0 0 1.000000 0"></feColorMatrix>
        </filter>
    </defs>
    <g id="Wireframes-2.0" stroke="none" stroke-width="1" fill="none" fill-rule="evenodd">
        <g id="2.8-Onboarding---Invite-Colleagues" transform="translate(-1139.000000, -215.000000)">
            <g id="play" transform="translate(1115.000000, 187.000000)" filter="url(#filter-1)">
                <g transform="translate(24.000000, 28.000000)">
                    <path d="M0.723586745,15.9773074 C0.32396082,15.9773074 0,15.6521557 0,15.2510638 L0,0.726241135 C0.000244686561,0.454356511 0.151777703,0.205381076 0.39268308,0.0810455003 C0.633588457,-0.0432900758 0.923511571,-0.0221580495 1.14399064,0.135807092 L11.2742051,7.39821844 C11.4639277,7.53459466 11.5764735,7.7544352 11.5764735,7.98865248 C11.5764735,8.22286976 11.4639277,8.44271031 11.2742051,8.57908652 L1.14399064,15.8414979 C1.02164905,15.9301651 0.874490106,15.9777033 0.723586745,15.9773074 Z M1.44717349,2.13732766 L1.44717349,13.8399773 L9.60850838,7.98865248 L1.44717349,2.13732766 Z" id="Shape" fill="#000000" fill-rule="nonzero"></path>
                </g>
            </g>
        </g>
    </g>
</svg>