<svg width="24" height="24" viewBox="0 0 24 24" fill="none" xmlns="http://www.w3.org/2000/svg">
<path d="M12 0C9.62663 0 7.30655 0.703787 5.33316 2.02236C3.35977 3.34094 1.8217 5.21508 0.913451 7.4078C0.00519945 9.60051 -0.232441 12.0133 0.230582 14.3411C0.693605 16.6689 1.83649 18.807 3.51472 20.4853C5.19295 22.1635 7.33115 23.3064 9.65892 23.7694C11.9867 24.2324 14.3995 23.9948 16.5922 23.0865C18.7849 22.1783 20.6591 20.6402 21.9776 18.6668C23.2962 16.6935 24 14.3734 24 12C23.9962 8.81855 22.7308 5.76849 20.4811 3.51886C18.2315 1.26924 15.1814 0.00375324 12 0V0ZM12 21.8182C10.0582 21.8182 8.15991 21.2424 6.54531 20.1635C4.93072 19.0847 3.6723 17.5513 2.92919 15.7573C2.18607 13.9632 1.99164 11.9891 2.37048 10.0846C2.74931 8.18003 3.6844 6.43059 5.0575 5.0575C6.4306 3.6844 8.18003 2.74931 10.0846 2.37047C11.9891 1.99163 13.9632 2.18607 15.7573 2.92918C17.5513 3.6723 19.0847 4.93072 20.1635 6.54531C21.2424 8.1599 21.8182 10.0581 21.8182 12C21.815 14.603 20.7796 17.0984 18.939 18.939C17.0984 20.7796 14.603 21.815 12 21.8182V21.8182Z" fill="white"/>
<path d="M17.4546 10.9091H13.091V6.5455C13.091 6.25617 12.976 5.97869 12.7714 5.77411C12.5668 5.56952 12.2894 5.45459 12 5.45459C11.7107 5.45459 11.4332 5.56952 11.2287 5.77411C11.0241 5.97869 10.9091 6.25617 10.9091 6.5455V10.9091H6.5455C6.25617 10.9091 5.97869 11.0241 5.77411 11.2287C5.56952 11.4332 5.45459 11.7107 5.45459 12C5.45459 12.2894 5.56952 12.5668 5.77411 12.7714C5.97869 12.976 6.25617 13.091 6.5455 13.091H10.9091V17.4546C10.9091 17.7439 11.0241 18.0214 11.2287 18.226C11.4332 18.4306 11.7107 18.5455 12 18.5455C12.2894 18.5455 12.5668 18.4306 12.7714 18.226C12.976 18.0214 13.091 17.7439 13.091 17.4546V13.091H17.4546C17.7439 13.091 18.0214 12.976 18.226 12.7714C18.4306 12.5668 18.5455 12.2894 18.5455 12C18.5455 11.7107 18.4306 11.4332 18.226 11.2287C18.0214 11.0241 17.7439 10.9091 17.4546 10.9091Z" fill="white"/>
</svg>
