<svg width="16" height="16" viewBox="0 0 16 16" fill="none" xmlns="http://www.w3.org/2000/svg">
<path d="M8 0C6.41775 0 4.87103 0.469192 3.55544 1.34824C2.23985 2.22729 1.21447 3.47672 0.608967 4.93853C0.0034663 6.40034 -0.15496 8.00887 0.153721 9.56072C0.462403 11.1126 1.22433 12.538 2.34315 13.6569C3.46197 14.7757 4.88743 15.5376 6.43928 15.8463C7.99113 16.155 9.59966 15.9965 11.0615 15.391C12.5233 14.7855 13.7727 13.7602 14.6518 12.4446C15.5308 11.129 16 9.58225 16 8C15.9975 5.87904 15.1538 3.84566 13.6541 2.34591C12.1543 0.84616 10.121 0.00250216 8 0ZM8 14.5455C6.70543 14.5455 5.43994 14.1616 4.36354 13.4423C3.28715 12.7231 2.4482 11.7009 1.95279 10.5048C1.45738 9.30881 1.32776 7.99274 1.58032 6.72304C1.83288 5.45335 2.45627 4.28706 3.37167 3.37166C4.28707 2.45627 5.45335 1.83287 6.72305 1.58031C7.99274 1.32776 9.30881 1.45738 10.5048 1.95279C11.7009 2.4482 12.7231 3.28715 13.4423 4.36354C14.1616 5.43993 14.5455 6.70543 14.5455 8C14.5433 9.73531 13.8531 11.3989 12.626 12.626C11.3989 13.853 9.73531 14.5433 8 14.5455Z" fill="#3030AD"/>
<path d="M11.6362 7.27259H8.72714V4.3635C8.72714 4.17062 8.65052 3.98563 8.51413 3.84924C8.37774 3.71285 8.19275 3.63623 7.99987 3.63623C7.80698 3.63623 7.622 3.71285 7.48561 3.84924C7.34922 3.98563 7.27259 4.17062 7.27259 4.3635V7.27259H4.3635C4.17062 7.27259 3.98563 7.34922 3.84924 7.48561C3.71285 7.622 3.63623 7.80698 3.63623 7.99987C3.63623 8.19275 3.71285 8.37774 3.84924 8.51413C3.98563 8.65052 4.17062 8.72714 4.3635 8.72714H7.27259V11.6362C7.27259 11.8291 7.34922 12.0141 7.48561 12.1505C7.622 12.2869 7.80698 12.3635 7.99987 12.3635C8.19275 12.3635 8.37774 12.2869 8.51413 12.1505C8.65052 12.0141 8.72714 11.8291 8.72714 11.6362V8.72714H11.6362C11.8291 8.72714 12.0141 8.65052 12.1505 8.51413C12.2869 8.37774 12.3635 8.19275 12.3635 7.99987C12.3635 7.80698 12.2869 7.622 12.1505 7.48561C12.0141 7.34922 11.8291 7.27259 11.6362 7.27259Z" fill="#3030AD"/>
</svg>
