<svg width="20" height="13" viewBox="0 0 20 13" fill="none" xmlns="http://www.w3.org/2000/svg">
<path fill-rule="evenodd" clip-rule="evenodd" d="M15.1977 13C16.2288 13 17.1011 12.7262 17.8146 12.1785C18.528 11.6308 19.0706 10.8664 19.4423 9.88542C19.814 8.9044 19.9998 7.77593 19.9998 6.5C19.9998 5.21204 19.814 4.08056 19.4423 3.10556C19.0706 2.13056 18.528 1.36921 17.8146 0.821528C17.1011 0.273843 16.2288 0 15.1977 0C14.1665 0 13.2942 0.273843 12.5808 0.821528C11.8673 1.36921 11.3248 2.13056 10.9531 3.10556C10.5814 4.08056 10.3955 5.21204 10.3955 6.5C10.3955 7.77593 10.5814 8.9044 10.9531 9.88542C11.3248 10.8664 11.8673 11.6308 12.5808 12.1785C13.2942 12.7262 14.1665 13 15.1977 13ZM4.64029 12.0069C4.98801 12.0069 5.26978 11.8986 5.48561 11.6819C5.70144 11.4652 5.80935 11.1884 5.80935 10.8513V8.48606H8.32734C8.574 8.48606 8.78542 8.41752 8.96161 8.28045L9.04676 8.2062C9.23861 8.01962 9.33453 7.78189 9.33453 7.493C9.33453 7.20411 9.23861 6.96638 9.04676 6.77981C8.85492 6.59323 8.61511 6.49995 8.32734 6.49995H5.80935V3.80967C5.80935 3.51476 5.72903 3.26593 5.56837 3.06318L5.4946 2.97911C5.28477 2.76245 5.006 2.65411 4.65827 2.65411C4.32254 2.65411 4.04077 2.76245 3.81295 2.97911C3.58513 3.19578 3.47122 3.47263 3.47122 3.80967V6.49995H1.00719C0.760534 6.49995 0.549112 6.56627 0.372926 6.69893L0.28777 6.77078C0.0959233 6.95134 0 7.18606 0 7.47495C0 7.76384 0.0959233 8.00458 0.28777 8.19717C0.479616 8.38976 0.719424 8.48606 1.00719 8.48606H3.47122V10.8513C3.47122 11.1462 3.55614 11.3951 3.72597 11.5978L3.80396 11.6819C4.02578 11.8986 4.30456 12.0069 4.64029 12.0069ZM13.9025 10.3548C14.2742 10.6738 14.7058 10.8333 15.1974 10.8333C15.701 10.8333 16.1357 10.6738 16.5014 10.3548C16.8671 10.0358 17.1519 9.55435 17.3557 8.91036C17.5595 8.26638 17.6615 7.46291 17.6615 6.49995C17.6615 5.52495 17.5595 4.71847 17.3557 4.0805C17.1519 3.44254 16.8671 2.96407 16.5014 2.64509C16.1357 2.3261 15.701 2.16661 15.1974 2.16661C14.7058 2.16661 14.2742 2.3261 13.9025 2.64509C13.5308 2.96407 13.243 3.44254 13.0392 4.0805C12.8353 4.71847 12.7334 5.52495 12.7334 6.49995C12.7334 7.46291 12.8353 8.26638 13.0392 8.91036C13.243 9.55435 13.5308 10.0358 13.9025 10.3548Z" fill="#BDBDBD"/>
</svg>
