<svg width="16" height="16" viewBox="0 0 16 16" fill="none" xmlns="http://www.w3.org/2000/svg">
<circle cx="8.00071" cy="0.727273" r="0.727273" fill="#3030AD"/>
<circle cx="2.90891" cy="2.90916" r="0.727273" fill="#3030AD"/>
<circle cx="13.0906" cy="2.90916" r="0.727273" fill="#3030AD"/>
<circle cx="13.0906" cy="13.091" r="0.727273" fill="#3030AD"/>
<circle cx="2.90891" cy="13.091" r="0.727273" fill="#3030AD"/>
<circle cx="8.00071" cy="15.2727" r="0.727273" fill="#3030AD"/>
<circle cx="0.727273" cy="7.99998" r="0.727273" fill="#3030AD"/>
<circle cx="15.2722" cy="7.99998" r="0.727273" fill="#3030AD"/>
<path fill-rule="evenodd" clip-rule="evenodd" d="M2.18164 8.00007C2.18164 4.78677 4.78653 2.18188 7.99982 2.18188C11.2116 2.18549 13.8144 4.78827 13.818 8.00007C13.818 11.2134 11.2131 13.8182 7.99982 13.8182C4.78653 13.8182 2.18164 11.2134 2.18164 8.00007ZM3.6359 8.00005C3.6359 10.41 5.58957 12.3637 7.99954 12.3637C10.4085 12.3613 12.3608 10.409 12.3632 8.00005C12.3632 5.59008 10.4095 3.63641 7.99954 3.63641C5.58957 3.63641 3.6359 5.59008 3.6359 8.00005Z" fill="#3030AD"/>
</svg>
