<svg width="16" height="16" viewBox="0 0 16 16" fill="none" xmlns="http://www.w3.org/2000/svg">
<path fill-rule="evenodd" clip-rule="evenodd" d="M15.0486 10.1656C15.7762 6.63461 13.737 3.12013 10.3106 1.99963C10.1447 0.852336 9.1615 0.000976562 8.00233 0.000976562C6.84316 0.000976562 5.85991 0.852336 5.69405 1.99963C2.77353 2.98565 0.808192 5.72584 0.810592 8.80845C0.815449 9.26372 0.864157 9.71745 0.956041 10.1634C-0.00100343 10.864 -0.280855 12.1708 0.305335 13.2019C0.891524 14.2331 2.15754 14.661 3.24905 14.1969C5.96146 16.6023 10.0432 16.6023 12.7556 14.1969C13.8459 14.6583 15.109 14.2304 15.6944 13.2013C16.2799 12.1722 16.0023 10.8678 15.0486 10.1663V10.1656ZM8.00263 1.45491C8.49339 1.45571 8.89092 1.85358 8.89132 2.34437C8.88994 2.38234 8.88654 2.42022 8.88114 2.45783C8.82522 2.90161 8.447 3.23392 7.99973 3.23226C7.55246 3.23059 7.17673 2.89547 7.12411 2.45128C7.11842 2.4159 7.11502 2.38019 7.11393 2.34437C7.11433 1.85358 7.51186 1.45571 8.00263 1.45491ZM2.02025 11.2128C1.68206 11.3493 1.45974 11.6765 1.45736 12.0412C1.45816 12.5316 1.85569 12.9288 2.34605 12.9292C2.54537 12.9312 2.73928 12.8644 2.89512 12.7401C3.19279 12.5058 3.30938 12.1087 3.18561 11.7506C3.06184 11.3926 2.72487 11.1522 2.34605 11.1518C2.23473 11.1531 2.1245 11.1738 2.02025 11.2128ZM4.34996 13.2296C4.78883 12.5092 4.80224 11.6073 4.38499 10.8742C3.96773 10.141 3.18552 9.69207 2.34203 9.70155C1.89614 7.02706 3.40511 4.41093 5.94336 3.45784C6.3512 4.21504 7.1418 4.68721 8.00183 4.68721C8.86186 4.68721 9.65245 4.21504 10.0603 3.45784C12.2774 4.30638 13.741 6.43513 13.7394 8.80918C13.7374 9.10721 13.7119 9.40463 13.6631 9.69864H13.6587C12.8163 9.69379 12.037 10.1446 11.6213 10.8774C11.2055 11.6101 11.2182 12.5103 11.6544 13.2311C9.53588 14.9862 6.4685 14.9862 4.34996 13.2311V13.2296ZM13.1045 12.735C13.261 12.8623 13.4569 12.931 13.6586 12.9292C14.149 12.9288 14.5465 12.5316 14.5473 12.0412C14.5436 11.6714 14.3149 11.3412 13.9699 11.2078C13.8701 11.1715 13.7648 11.1526 13.6586 11.1518C13.2811 11.1519 12.9449 11.3905 12.8201 11.7469C12.6954 12.1032 12.8094 12.4995 13.1045 12.735Z" fill="#3030AD"/>
</svg>
