<svg width="24" height="24" viewBox="0 0 24 24" fill="none" xmlns="http://www.w3.org/2000/svg">
<path fill-rule="evenodd" clip-rule="evenodd" d="M22.5729 15.2479C23.6643 9.95142 20.6055 4.67971 15.4659 2.99896C15.2171 1.27802 13.7422 0.000976562 12.0035 0.000976562C10.2647 0.000976562 8.78987 1.27802 8.54108 2.99896C4.16029 4.47798 1.21229 8.58826 1.21589 13.2122C1.22317 13.8951 1.29624 14.5757 1.43406 15.2446C-0.00150322 16.2955 -0.42128 18.2557 0.458004 19.8024C1.33729 21.3491 3.23631 21.991 4.87357 21.2948C8.94219 24.903 15.0648 24.903 19.1334 21.2948C20.7689 21.9869 22.6634 21.3451 23.5416 19.8015C24.4198 18.2579 24.0035 16.3013 22.5729 15.2489V15.2479ZM12.0039 2.18186C12.7401 2.18307 13.3364 2.77988 13.337 3.51606C13.3349 3.57302 13.3298 3.62983 13.3217 3.68625C13.2378 4.35193 12.6705 4.85039 11.9996 4.84789C11.3287 4.84539 10.7651 4.34271 10.6862 3.67643C10.6776 3.62336 10.6725 3.56979 10.6709 3.51606C10.6715 2.77988 11.2678 2.18307 12.0039 2.18186ZM3.03037 16.8188C2.52309 17.0235 2.18962 17.5143 2.18604 18.0613C2.18724 18.7969 2.78354 19.3928 3.51908 19.3934C3.81806 19.3963 4.10892 19.2962 4.34269 19.1097C4.78919 18.7582 4.96408 18.1625 4.77842 17.6254C4.59276 17.0884 4.08731 16.7278 3.51908 16.7271C3.3521 16.7292 3.18675 16.7602 3.03037 16.8188ZM6.52494 19.8439C7.18325 18.7633 7.20337 17.4105 6.57748 16.3108C5.95159 15.2111 4.77828 14.5376 3.51305 14.5518C2.84422 10.5401 5.10766 6.61591 8.91504 5.18627C9.5268 6.32208 10.7127 7.03034 12.0027 7.03034C13.2928 7.03034 14.4787 6.32208 15.0904 5.18627C18.4161 6.45908 20.6115 9.65222 20.6092 13.2133C20.6062 13.6603 20.5679 14.1065 20.4946 14.5475H20.4881C19.2244 14.5402 18.0555 15.2164 17.4319 16.3155C16.8082 17.4147 16.8273 18.765 17.4816 19.8461C14.3038 22.4789 9.70276 22.4789 6.52494 19.8461V19.8439ZM19.6567 19.1021C19.8914 19.293 20.1854 19.396 20.488 19.3934C21.2235 19.3928 21.8198 18.7969 21.821 18.0613C21.8155 17.5066 21.4723 17.0112 20.9548 16.8111C20.8051 16.7568 20.6472 16.7284 20.488 16.7271C19.9217 16.7273 19.4173 17.0853 19.2302 17.6198C19.0431 18.1544 19.2141 18.7488 19.6567 19.1021Z" fill="#EBEBF9"/>
</svg>
