<?xml version="1.0" encoding="UTF-8"?>
<svg viewBox="0 0 24 24" version="1.1" xmlns="http://www.w3.org/2000/svg" xmlns:xlink="http://www.w3.org/1999/xlink"> 
    <defs>
        <filter id="filter-1">
            <feColorMatrix in="SourceGraphic" type="matrix" values="0 0 0 0 0.290222 0 0 0 0 0.290175 0 0 0 0 0.290237 0 0 0 1.000000 0"></feColorMatrix>
        </filter>
    </defs>
    <g id="Wireframes-2.0" stroke="none" stroke-width="1" fill="none" fill-rule="evenodd">
        <g id="mobile-sync" transform="translate(-28.000000, -287.000000)" filter="url(#filter-1)">
            <g transform="translate(28.000000, 287.000000)">
                <path d="M22.5409087,15.2260085 C23.6284444,9.93716206 20.5804173,4.67299271 15.4587856,2.99465532 C15.2108627,1.27617268 13.7411557,0.000961185073 12.0084926,0.000961185073 C10.2758294,0.000961185073 8.8061224,1.27617268 8.55819958,2.99465532 C4.19275699,4.47155541 1.25507963,8.57595623 1.25866667,13.1932596 C1.26592666,13.8751805 1.33873296,14.5548142 1.47607643,15.2227404 C0.0455380649,16.2721625 -0.372768439,18.229554 0.503435729,19.774041 C1.3796399,21.318528 3.27200653,21.9594655 4.9035414,21.2643404 C8.95790493,24.8673572 15.0590802,24.8673572 19.1134437,21.2643404 C20.7431839,21.9554321 22.6311073,21.314538 23.5061951,19.7731314 C24.3812828,18.2317248 23.9664206,16.2779235 22.5409087,15.2270979 L22.5409087,15.2260085 Z M12.0084926,2.1787234 C12.7420605,2.17992435 13.3362679,2.77588335 13.3368662,3.51101277 C13.3347921,3.56788918 13.3297121,3.62461552 13.3216476,3.68095319 C13.2380565,4.34567851 12.6727181,4.8434321 12.0041624,4.84094567 C11.3356067,4.83844054 10.7739845,4.33647991 10.6953376,3.67114894 C10.6868317,3.61815397 10.6817482,3.56466404 10.6801189,3.51101277 C10.6807172,2.77588335 11.2749247,2.17992435 12.0084926,2.1787234 Z M2.22505308,18.0354723 C2.2286199,17.4892062 2.56093042,16.9991454 3.06642887,16.7946894 C3.22225631,16.7361826 3.38703391,16.705221 3.55342675,16.703183 C4.11967094,16.7038526 4.62335174,17.0638728 4.80835749,17.6001804 C4.99336324,18.136488 4.81908854,18.7313733 4.37414862,19.0823489 C4.14120506,19.2685113 3.85135864,19.3685383 3.55342675,19.365583 C2.82045848,19.3649834 2.22625147,18.7699994 2.22505308,18.0354723 L2.22505308,18.0354723 Z M6.54933333,19.8154894 C7.2053377,18.7364122 7.22538293,17.3855888 6.60168698,16.2874409 C5.97799103,15.189293 4.80878849,14.5167832 3.54799151,14.5309957 C2.88149891,10.525004 5.13701829,6.60641896 8.93105732,5.17882553 C9.54068236,6.31301267 10.7224271,7.02025055 12.007949,7.02025055 C13.293471,7.02025055 14.4752157,6.31301267 15.0848408,5.17882553 C18.3988632,6.44981531 20.586507,9.63837657 20.5842226,13.1943489 C20.5812295,13.640764 20.5430641,14.0862452 20.4700807,14.5266383 L20.4635584,14.5266383 C19.2043428,14.5193622 18.0395201,15.1946331 17.4180692,16.292169 C16.7966184,17.3897048 16.8155825,18.7381193 17.4676518,19.8176681 C14.3009672,22.4466543 9.71601794,22.4466543 6.54933333,19.8176681 L6.54933333,19.8154894 Z M20.4635584,19.365583 C20.1620758,19.3682403 19.8691204,19.2653721 19.6352272,19.0747234 C19.1942132,18.7219005 19.0237772,18.1283559 19.2102092,17.5945947 C19.3966412,17.0608336 19.8992452,16.7033696 20.4635584,16.703183 C20.6222751,16.70443 20.7796169,16.732797 20.9288153,16.7870638 C21.4444352,16.9868696 21.7864079,17.4814975 21.7919321,18.0354723 C21.7907337,18.7699994 21.1965267,19.3649834 20.4635584,19.365583 L20.4635584,19.365583 Z" id="Shape" fill="#000000" fill-rule="nonzero"></path>
            </g>
        </g>
    </g>
</svg>