<?xml version="1.0" encoding="UTF-8"?>
<svg width="24px" height="24px" viewBox="0 0 24 24" version="1.1" xmlns="http://www.w3.org/2000/svg" xmlns:xlink="http://www.w3.org/1999/xlink">
    <title>758F5602-6619-4552-AA25-812C96362B08</title>
    <defs>
        <filter id="filter-1">
            <feColorMatrix in="SourceGraphic" type="matrix" values="0 0 0 0 0.290222 0 0 0 0 0.290175 0 0 0 0 0.290237 0 0 0 1.000000 0"></feColorMatrix>
        </filter>
    </defs>
    <g id="Wireframes-2.0" stroke="none" stroke-width="1" fill="none" fill-rule="evenodd">
        <g id="project-copy-2" transform="translate(-28.000000, -223.000000)" filter="url(#filter-1)">
            <g transform="translate(28.000000, 223.000000)">
                <path d="M22.8765957,0 L1.0893617,0 C0.487723847,0 0,0.487723847 0,1.0893617 L0,22.8765957 C0,23.4782336 0.487723847,23.9659574 1.0893617,23.9659574 L22.8765957,23.9659574 C23.4782336,23.9659574 23.9659574,23.4782336 23.9659574,22.8765957 L23.9659574,1.0893617 C23.9659574,0.487723847 23.4782336,0 22.8765957,0 Z M2.1787234,2.1787234 L10.893617,2.1787234 L10.893617,10.893617 L2.1787234,10.893617 L2.1787234,2.1787234 Z M2.1787234,21.787234 L2.1787234,13.0723404 L10.893617,13.0723404 L10.893617,21.787234 L2.1787234,21.787234 Z M21.787234,21.787234 L13.0723404,21.787234 L13.0723404,2.1787234 L21.787234,2.1787234 L21.787234,21.787234 Z" id="Shape" fill="#000000" fill-rule="nonzero"></path>
            </g>
        </g>
    </g>
</svg>