<svg width="24" height="24" viewBox="0 0 24 24" fill="none" xmlns="http://www.w3.org/2000/svg">
<path fill-rule="evenodd" clip-rule="evenodd" d="M22.541 15.226C23.6285 9.93718 20.5805 4.67301 15.4589 2.99467C15.2109 1.27619 13.7412 0.000976562 12.0086 0.000976562C10.2759 0.000976562 8.8062 1.27619 8.55828 2.99467C4.19284 4.47157 1.25516 8.57597 1.25875 13.1933C1.26601 13.8752 1.33881 14.5548 1.47616 15.2228C0.0456192 16.2722 -0.372687 18.2296 0.503517 19.7741C1.37972 21.3185 3.27209 21.9595 4.90362 21.2644C8.95799 24.8674 15.0592 24.8674 19.1135 21.2644C20.7433 21.9554 22.6312 21.3146 23.5063 19.7731C24.3814 18.2317 23.9665 16.2779 22.541 15.2271V15.226ZM12.0086 2.17874C12.7421 2.17994 13.3363 2.7759 13.3369 3.51103C13.3349 3.5679 13.3298 3.62463 13.3217 3.68097C13.2381 4.34569 12.6728 4.84345 12.0042 4.84095C11.3357 4.83846 10.7741 4.3365 10.6954 3.67116C10.6869 3.61817 10.6818 3.56468 10.6802 3.51103C10.6808 2.7759 11.275 2.17994 12.0086 2.17874ZM3.06651 16.7947C2.56101 16.9992 2.2287 17.4892 2.22513 18.0355C2.22633 18.77 2.82054 19.365 3.55351 19.3656C3.85144 19.3686 4.14129 19.2685 4.37423 19.0824C4.81917 18.7314 4.99344 18.1365 4.80844 17.6002C4.62343 17.0639 4.11975 16.7039 3.55351 16.7032C3.38712 16.7052 3.22234 16.7362 3.06651 16.7947ZM6.54941 19.8155C7.20542 18.7364 7.22546 17.3856 6.60177 16.2875C5.97807 15.1893 4.80887 14.5168 3.54807 14.531C2.88158 10.525 5.1371 6.60643 8.93114 5.17884C9.54076 6.31303 10.7225 7.02027 12.008 7.02027C13.2936 7.02027 14.4753 6.31303 15.0849 5.17884C18.3989 6.44983 20.5866 9.63839 20.5843 13.1944C20.5813 13.6408 20.5431 14.0863 20.4702 14.5267H20.4636C19.2044 14.5194 18.0396 15.1946 17.4181 16.2922C16.7967 17.3897 16.8157 18.7381 17.4677 19.8177C14.301 22.4467 9.7161 22.4467 6.54941 19.8177V19.8155ZM19.6353 19.0747C19.8692 19.2654 20.1622 19.3683 20.4636 19.3656C21.1966 19.365 21.7908 18.77 21.792 18.0355C21.7865 17.4815 21.4445 16.9869 20.9289 16.7871C20.7797 16.7328 20.6224 16.7044 20.4636 16.7032C19.8993 16.7034 19.3967 17.0608 19.2103 17.5946C19.0239 18.1284 19.1943 18.7219 19.6353 19.0747Z" fill="white"/>
</svg>
