<svg width="16" height="16" viewBox="0 0 16 16" fill="none" xmlns="http://www.w3.org/2000/svg">
<path fill-rule="evenodd" clip-rule="evenodd" d="M15.0272 10.151C15.7522 6.62511 13.7202 3.11566 10.3057 1.99677C10.1405 0.851118 9.16066 0.000976562 8.00555 0.000976562C6.85044 0.000976562 5.87064 0.851118 5.70536 1.99677C2.79506 2.98137 0.836611 5.71764 0.839002 8.79584C0.843843 9.25046 0.89238 9.70355 0.983942 10.1488C0.0302501 10.8484 -0.248621 12.1534 0.335515 13.183C0.919651 14.2127 2.18123 14.64 3.26892 14.1766C5.97183 16.5786 10.0393 16.5786 12.7422 14.1766C13.8287 14.6373 15.0873 14.21 15.6707 13.1824C16.2541 12.1548 15.9775 10.8523 15.0272 10.1517V10.151ZM8.00555 1.45282C8.4946 1.45362 8.89074 1.85092 8.89114 2.34101C8.88975 2.37893 8.88637 2.41675 8.88099 2.4543C8.82526 2.89745 8.44837 3.22929 8.00267 3.22763C7.55696 3.22596 7.18255 2.89132 7.13012 2.44777C7.12445 2.41244 7.12106 2.37678 7.11997 2.34101C7.12037 1.85092 7.51651 1.45362 8.00555 1.45282ZM2.04418 11.1968C1.70718 11.3331 1.48564 11.6598 1.48326 12.024C1.48406 12.5137 1.8802 12.9103 2.36884 12.9107C2.56746 12.9127 2.76069 12.846 2.91599 12.7219C3.21262 12.4879 3.3288 12.0913 3.20546 11.7338C3.08213 11.3763 2.74634 11.1362 2.36884 11.1358C2.25791 11.1371 2.14806 11.1578 2.04418 11.1968ZM4.36611 13.2107C4.80345 12.4913 4.81681 11.5907 4.40102 10.8586C3.98522 10.1265 3.20575 9.67819 2.36522 9.68767C1.92089 7.017 3.42457 4.40461 5.95393 3.45289C6.36035 4.20901 7.14818 4.6805 8.00519 4.6805C8.86221 4.6805 9.65003 4.20901 10.0565 3.45289C12.2658 4.30021 13.7242 6.42592 13.7227 8.79657C13.7207 9.09418 13.6953 9.39117 13.6466 9.68476H13.6423C12.8028 9.67991 12.0262 10.1301 11.6119 10.8618C11.1976 11.5935 11.2103 12.4924 11.645 13.2121C9.53387 14.9648 6.47724 14.9648 4.36611 13.2121V13.2107ZM13.09 12.7168C13.246 12.8439 13.4413 12.9125 13.6423 12.9107C14.1309 12.9103 14.527 12.5137 14.5278 12.024C14.5242 11.6547 14.2962 11.3249 13.9524 11.1917C13.853 11.1555 13.7481 11.1366 13.6423 11.1358C13.2661 11.1359 12.931 11.3742 12.8067 11.7301C12.6824 12.0859 12.796 12.4816 13.09 12.7168Z" fill="#4A4A4A"/>
</svg>
