<svg width="24" height="24" viewBox="0 0 24 24" fill="none" xmlns="http://www.w3.org/2000/svg">
<path d="M13.0843 4.4868C12.3953 4.32453 11.6785 4.32053 10.9877 4.47508C10.2969 4.62964 9.65015 4.93875 9.09598 5.37917C8.54673 5.81462 8.10334 6.36892 7.79913 7.00039C7.49493 7.63185 7.33782 8.32406 7.33961 9.02498C7.33961 9.31431 7.45455 9.59179 7.65913 9.79637C7.86372 10.001 8.1412 10.1159 8.43052 10.1159C8.71985 10.1159 8.99733 10.001 9.20191 9.79637C9.4065 9.59179 9.52143 9.31431 9.52143 9.02498C9.52032 8.59254 9.63227 8.16733 9.84619 7.7915C10.0601 7.41567 10.3685 7.10229 10.7409 6.88243C11.1133 6.66257 11.5367 6.54387 11.9691 6.53811C12.4015 6.53235 12.8279 6.63972 13.206 6.84957C13.5841 7.05943 13.9008 7.36448 14.1246 7.73447C14.3485 8.10446 14.4717 8.52655 14.4822 8.95886C14.4926 9.39118 14.3898 9.8187 14.184 10.199C13.9783 10.5794 13.6766 10.8993 13.3091 11.1272C12.5889 11.5564 11.9904 12.1625 11.5704 12.888C11.1503 13.6135 10.9227 14.4344 10.9091 15.2726C10.9091 15.5619 11.024 15.8394 11.2286 16.044C11.4332 16.2486 11.7107 16.3635 12 16.3635C12.2893 16.3635 12.5668 16.2486 12.7714 16.044C12.976 15.8394 13.0909 15.5619 13.0909 15.2726C13.107 14.8053 13.2418 14.3497 13.4826 13.9489C13.7235 13.5481 14.0625 13.2152 14.4676 12.9817C15.2483 12.4954 15.8678 11.789 16.2479 10.9514C16.6281 10.1138 16.7521 9.18254 16.6042 8.27469C16.4563 7.36685 16.0433 6.52302 15.4169 5.84939C14.7906 5.17577 13.979 4.70244 13.0843 4.48898V4.4868Z" fill="#3030AD"/>
<path d="M12 0C9.62663 0 7.30655 0.703787 5.33316 2.02236C3.35977 3.34094 1.8217 5.21508 0.913451 7.4078C0.00519945 9.60051 -0.232441 12.0133 0.230582 14.3411C0.693605 16.6689 1.83649 18.807 3.51472 20.4853C5.19295 22.1635 7.33115 23.3064 9.65892 23.7694C11.9867 24.2324 14.3995 23.9948 16.5922 23.0865C18.7849 22.1783 20.6591 20.6402 21.9776 18.6668C23.2962 16.6935 24 14.3734 24 12C23.9962 8.81855 22.7308 5.76849 20.4811 3.51886C18.2315 1.26924 15.1814 0.00375324 12 0ZM12 21.8182C10.0582 21.8182 8.15991 21.2424 6.54531 20.1635C4.93072 19.0847 3.6723 17.5513 2.92919 15.7573C2.18607 13.9632 1.99164 11.9891 2.37048 10.0846C2.74931 8.18003 3.6844 6.43059 5.0575 5.0575C6.4306 3.6844 8.18003 2.74931 10.0846 2.37047C11.9891 1.99163 13.9632 2.18607 15.7573 2.92918C17.5513 3.6723 19.0847 4.93072 20.1635 6.54531C21.2424 8.1599 21.8182 10.0581 21.8182 12C21.8153 14.6031 20.78 17.0987 18.9393 18.9393C17.0987 20.78 14.6031 21.8153 12 21.8182Z" fill="#3030AD"/>
<path d="M12 19.6364C12.6025 19.6364 13.0909 19.148 13.0909 18.5455C13.0909 17.943 12.6025 17.4546 12 17.4546C11.3975 17.4546 10.9091 17.943 10.9091 18.5455C10.9091 19.148 11.3975 19.6364 12 19.6364Z" fill="#3030AD"/>
</svg>
