<?xml version="1.0" encoding="UTF-8"?>
<svg width="24px" height="24px" viewBox="0 0 24 24" version="1.1" xmlns="http://www.w3.org/2000/svg" xmlns:xlink="http://www.w3.org/1999/xlink">
    <title>D7D1D535-48B8-4C31-8B59-F2A220806ABE</title>
    <defs>
        <filter id="filter-1">
            <feColorMatrix in="SourceGraphic" type="matrix" values="0 0 0 0 0.290222 0 0 0 0 0.290175 0 0 0 0 0.290237 0 0 0 1.000000 0"></feColorMatrix>
        </filter>
    </defs>
    <g id="Wireframes-2.0" stroke="none" stroke-width="1" fill="none" fill-rule="evenodd">
        <g id="rocket" transform="translate(-624.000000, -99.000000)" filter="url(#filter-1)">
            <g transform="translate(624.000000, 99.000000)">
                <path d="M12.8669531,7.10507813 C11.7703594,8.20171875 11.7703594,9.98596875 12.8669531,11.0826094 C13.41525,11.6308594 14.1354844,11.9050313 14.8556719,11.9050313 C15.5758594,11.9050313 16.2961406,11.6308594 16.8444375,11.0825625 C17.9410312,9.98596875 17.9410312,8.20171875 16.8444375,7.10507813 C15.7478437,6.00853125 13.9635,6.00848438 12.8669531,7.10507813 Z M15.5185781,9.75670313 C15.1530469,10.1222813 14.55825,10.1222813 14.1927187,9.75670313 C13.8271875,9.39117188 13.8271875,8.79646875 14.1927187,8.4309375 C14.3754844,8.248125 14.6155312,8.15676563 14.8556719,8.15676563 C15.0957187,8.15676563 15.3358125,8.248125 15.5185781,8.43089063 C15.8841094,8.79646875 15.8841094,9.39117188 15.5185781,9.75670313 Z" id="Shape" fill="#000000" fill-rule="nonzero"></path>
                <path d="M23.2317656,0.8060625 C22.6602187,0.221015625 21.8662031,-0.0680625 21.054,0.01359375 C19.8874219,0.13040625 18.1072969,0.407015625 16.2514219,1.06115625 C14.1377344,1.80623437 12.3570938,2.87864062 10.9590937,4.24875 C10.956,4.25175 10.9529062,4.25484375 10.9498594,4.2579375 L10.7595469,4.44970312 L0.64884375,7.72232812 C0.338296875,7.822875 0.102328125,8.07773437 0.026015625,8.39517187 C-0.050296875,8.71260937 0.044015625,9.04682812 0.27496875,9.27754687 L4.85128125,13.8493125 C3.8908125,13.9906406 2.96615625,14.4299531 2.22853125,15.167625 C1.47534375,15.9208125 0.894328125,17.4437812 0.45225,19.8235312 C0.14521875,21.4765313 0.023578125,22.9245937 0.0185625,22.9854375 C-0.004125,23.2599844 0.09515625,23.5306875 0.28996875,23.7255469 C0.4665,23.9020781 0.705234375,24.0001406 0.952828125,24.0001406 C0.97846875,24.0001406 1.00429687,23.9990625 1.03007812,23.9969063 C1.09092187,23.9919375 2.53898437,23.8702969 4.19198437,23.5632188 C6.57178125,23.1211406 8.09470312,22.5401719 8.84789062,21.7869375 C9.5866875,21.0481406 10.0263281,20.12175 10.1669062,19.1596406 L14.7376875,23.725875 C14.915625,23.903625 15.1548281,24.0001406 15.4003125,24.0001406 C15.4756406,24.0001406 15.551625,23.9910938 15.6264844,23.9724375 C15.9455156,23.893125 16.1996719,23.6525156 16.2963281,23.3383594 L19.4117344,13.2133594 C19.5639844,12.7184531 19.28625,12.193875 18.7913906,12.041625 C18.7756875,12.0367969 18.7598906,12.0336094 18.7441406,12.029625 C18.4004062,11.8824844 17.98725,11.9496094 17.7084375,12.2315625 L11.8328906,18.1735312 L5.78114062,12.1278281 L11.8610625,6.0015 C11.9220469,5.9533125 11.97675,5.89865625 12.0233437,5.83795312 L12.2759062,5.58342187 C15.0548906,2.86359375 19.0851562,2.09517187 21.2408906,1.87921875 C21.5721094,1.8459375 21.7902656,2.0135625 21.8907187,2.11640625 C22.0666406,2.2965 22.1496562,2.54465625 22.1183906,2.79726562 C21.9370781,4.2639375 21.5057344,6.45089062 20.48025,8.54010937 C20.2521094,9.004875 20.4439687,9.566625 20.9087344,9.7948125 C21.3735938,10.0228594 21.93525,9.831 22.1633906,9.36628125 C23.3037656,7.0430625 23.7802969,4.63678125 23.9792344,3.02728125 C24.0807656,2.20575 23.8083281,1.396125 23.2317656,0.8060625 Z M16.5805781,16.0388906 L14.9619375,21.2994844 L13.1594531,19.4987812 L16.5805781,16.0388906 Z M6.5026875,16.4902031 C6.63890625,16.3556719 6.81914062,16.2816562 7.01076562,16.2816562 C7.15115625,16.2816562 7.28521875,16.321875 7.40057812,16.3960312 L7.61920312,16.6144219 C7.69359375,16.729875 7.73390625,16.864125 7.73390625,17.0047969 C7.73390625,17.1961875 7.66003125,17.3762344 7.52578125,17.5124062 C7.35576562,17.6536875 6.7636875,17.8212187 6.06182812,17.9454844 C6.19021875,17.2469531 6.36089062,16.6585312 6.5026875,16.4902031 Z M6.50203125,19.7705625 C7.33190625,19.6190156 7.86932813,19.4394375 8.230125,19.2649219 C8.10271875,19.7031562 7.86684375,20.1162187 7.52198437,20.4610781 C6.81346875,21.1697344 4.1694375,21.7370156 2.0064375,22.0090312 C2.27845312,19.8459375 2.84573438,17.202 3.55434375,16.4934375 C3.89282813,16.1549531 4.30275,15.9141562 4.74989062,15.7839375 C4.57495312,16.1428125 4.39378125,16.6767656 4.23825,17.5000781 C4.09523437,18.2571094 4.03710938,18.9231094 4.03471875,18.9511406 C4.01114063,19.2256406 4.10953125,19.4966719 4.30373438,19.6921406 C4.48040625,19.8699375 4.72007813,19.9688438 4.96870313,19.9688438 C4.99335937,19.9688438 5.01815625,19.9678594 5.04295312,19.9658906 C5.07107812,19.9636406 5.74101562,19.9095469 6.50203125,19.7705625 Z M4.45467187,10.8026719 L2.6844375,9.03421875 L7.87804687,7.35314062 L4.45467187,10.8026719 Z" id="Shape" fill="#000000" fill-rule="nonzero"></path>
                <circle id="Oval" fill="#000000" fill-rule="nonzero" cx="18.5156719" cy="5.48446875" r="1"></circle>
            </g>
        </g>
    </g>
</svg>