<svg width="24" height="24" viewBox="0 0 24 24" fill="none" xmlns="http://www.w3.org/2000/svg">
<path d="M12 0C9.62663 0 7.30655 0.703787 5.33316 2.02236C3.35977 3.34094 1.8217 5.21508 0.913451 7.4078C0.00519945 9.60051 -0.232441 12.0133 0.230582 14.3411C0.693605 16.6689 1.83649 18.807 3.51472 20.4853C5.19295 22.1635 7.33115 23.3064 9.65892 23.7694C11.9867 24.2324 14.3995 23.9948 16.5922 23.0865C18.7849 22.1783 20.6591 20.6402 21.9776 18.6668C23.2962 16.6935 24 14.3734 24 12C23.9962 8.81855 22.7308 5.76849 20.4811 3.51886C18.2315 1.26924 15.1814 0.00375324 12 0ZM12 21.8182C10.0582 21.8182 8.15991 21.2424 6.54531 20.1635C4.93072 19.0847 3.6723 17.5513 2.92919 15.7573C2.18607 13.9632 1.99164 11.9891 2.37048 10.0846C2.74931 8.18003 3.6844 6.43059 5.0575 5.0575C6.4306 3.6844 8.18003 2.74931 10.0846 2.37047C11.9891 1.99163 13.9632 2.18607 15.7573 2.92918C17.5513 3.6723 19.0847 4.93072 20.1635 6.54531C21.2424 8.1599 21.8182 10.0581 21.8182 12C21.8153 14.6031 20.78 17.0987 18.9393 18.9393C17.0987 20.78 14.6031 21.8153 12 21.8182Z" fill="white"/>
<path d="M15.5925 8.50154L10.9093 13.1848L8.40781 10.6834C8.30718 10.5792 8.1868 10.4961 8.05371 10.4389C7.92061 10.3817 7.77747 10.3516 7.63261 10.3504C7.48776 10.3491 7.34411 10.3767 7.21005 10.4316C7.07598 10.4864 6.95417 10.5674 6.85175 10.6698C6.74932 10.7723 6.66831 10.8941 6.61346 11.0281C6.55861 11.1622 6.53101 11.3059 6.53227 11.4507C6.53353 11.5956 6.56362 11.7387 6.62079 11.8718C6.67797 12.0049 6.76108 12.1253 6.86527 12.2259L10.138 15.4986C10.3426 15.7031 10.62 15.818 10.9093 15.818C11.1985 15.818 11.476 15.7031 11.6805 15.4986L17.1351 10.0441C17.3338 9.83834 17.4438 9.56278 17.4413 9.27674C17.4388 8.99071 17.3241 8.7171 17.1218 8.51483C16.9195 8.31257 16.6459 8.19784 16.3599 8.19535C16.0739 8.19287 15.7983 8.30283 15.5925 8.50154Z" fill="white"/>
</svg>
