<svg width="79" height="32" viewBox="0 0 79 32" fill="none" xmlns="http://www.w3.org/2000/svg">
<rect width="79" height="32" rx="4" fill="currentColor"/>
<path fill-rule="evenodd" clip-rule="evenodd" d="M9 15.6896C9 19.9365 12.4428 23.3792 16.6896 23.3792C20.9345 23.3745 24.3745 19.9345 24.3792 15.6896C24.3792 11.4428 20.9365 8 16.6896 8C12.4428 8 9 11.4428 9 15.6896ZM15.8608 17.0703L20.384 12.9239C20.609 12.7176 20.927 12.6469 21.2182 12.7386C21.5093 12.8302 21.7295 13.0703 21.7957 13.3683C21.862 13.6663 21.7642 13.977 21.5392 14.1833L16.4128 18.8825C16.0756 19.1917 15.5546 19.1804 15.2311 18.8569L12.6679 16.2937C12.4458 16.0792 12.3568 15.7615 12.435 15.4628C12.5131 15.164 12.7464 14.9307 13.0452 14.8526C13.3439 14.7744 13.6616 14.8634 13.8761 15.0856L15.8608 17.0703Z" fill="white"/>
<path d="M37.8 22.16C37.0533 22.16 36.3813 22.0693 35.784 21.888C35.1867 21.696 34.616 21.3653 34.072 20.896C33.9333 20.7787 33.8267 20.6453 33.752 20.496C33.6773 20.3467 33.64 20.1973 33.64 20.048C33.64 19.8027 33.7253 19.5893 33.896 19.408C34.0773 19.216 34.3013 19.12 34.568 19.12C34.7707 19.12 34.952 19.184 35.112 19.312C35.5173 19.6427 35.9173 19.8933 36.312 20.064C36.7173 20.2347 37.2133 20.32 37.8 20.32C38.1947 20.32 38.5573 20.2613 38.888 20.144C39.2187 20.016 39.4853 19.8507 39.688 19.648C39.8907 19.4347 39.992 19.1947 39.992 18.928C39.992 18.608 39.896 18.336 39.704 18.112C39.512 17.888 39.2187 17.7013 38.824 17.552C38.4293 17.392 37.928 17.2693 37.32 17.184C36.744 17.0987 36.2373 16.9707 35.8 16.8C35.3627 16.6187 34.9947 16.3947 34.696 16.128C34.408 15.8507 34.1893 15.5307 34.04 15.168C33.8907 14.7947 33.816 14.3787 33.816 13.92C33.816 13.2267 33.992 12.6347 34.344 12.144C34.7067 11.6533 35.192 11.28 35.8 11.024C36.408 10.768 37.08 10.64 37.816 10.64C38.5093 10.64 39.1493 10.7467 39.736 10.96C40.3333 11.1627 40.8187 11.424 41.192 11.744C41.5013 11.9893 41.656 12.272 41.656 12.592C41.656 12.8267 41.5653 13.04 41.384 13.232C41.2027 13.424 40.9893 13.52 40.744 13.52C40.584 13.52 40.44 13.472 40.312 13.376C40.1413 13.2267 39.912 13.088 39.624 12.96C39.336 12.8213 39.032 12.7093 38.712 12.624C38.392 12.528 38.0933 12.48 37.816 12.48C37.3573 12.48 36.968 12.5387 36.648 12.656C36.3387 12.7733 36.104 12.9333 35.944 13.136C35.784 13.3387 35.704 13.5733 35.704 13.84C35.704 14.16 35.7947 14.4267 35.976 14.64C36.168 14.8427 36.44 15.008 36.792 15.136C37.144 15.2533 37.5653 15.36 38.056 15.456C38.696 15.5733 39.256 15.712 39.736 15.872C40.2267 16.032 40.632 16.24 40.952 16.496C41.272 16.7413 41.512 17.056 41.672 17.44C41.832 17.8133 41.912 18.272 41.912 18.816C41.912 19.5093 41.72 20.1067 41.336 20.608C40.952 21.1093 40.4453 21.4933 39.816 21.76C39.1973 22.0267 38.5253 22.16 37.8 22.16ZM50.5149 13.28C50.7922 13.28 51.0215 13.3707 51.2029 13.552C51.3842 13.7333 51.4749 13.968 51.4749 14.256V21.024C51.4749 21.3013 51.3842 21.536 51.2029 21.728C51.0215 21.9093 50.7922 22 50.5149 22C50.2375 22 50.0082 21.9093 49.8269 21.728C49.6455 21.536 49.5549 21.3013 49.5549 21.024V20.24L49.9069 20.384C49.9069 20.5227 49.8322 20.6933 49.6829 20.896C49.5335 21.088 49.3309 21.28 49.0749 21.472C48.8189 21.664 48.5149 21.8293 48.1629 21.968C47.8215 22.096 47.4482 22.16 47.0429 22.16C46.3069 22.16 45.6402 21.9733 45.0429 21.6C44.4455 21.216 43.9709 20.6933 43.6189 20.032C43.2775 19.36 43.1069 18.592 43.1069 17.728C43.1069 16.8533 43.2775 16.0853 43.6189 15.424C43.9709 14.752 44.4402 14.2293 45.0269 13.856C45.6135 13.472 46.2642 13.28 46.9789 13.28C47.4375 13.28 47.8589 13.3493 48.2429 13.488C48.6269 13.6267 48.9575 13.8027 49.2349 14.016C49.5229 14.2293 49.7415 14.448 49.8909 14.672C50.0509 14.8853 50.1309 15.0667 50.1309 15.216L49.5549 15.424V14.256C49.5549 13.9787 49.6455 13.7493 49.8269 13.568C50.0082 13.376 50.2375 13.28 50.5149 13.28ZM47.2829 20.4C47.7522 20.4 48.1629 20.2827 48.5149 20.048C48.8669 19.8133 49.1389 19.4933 49.3309 19.088C49.5335 18.6827 49.6349 18.2293 49.6349 17.728C49.6349 17.216 49.5335 16.7573 49.3309 16.352C49.1389 15.9467 48.8669 15.6267 48.5149 15.392C48.1629 15.1573 47.7522 15.04 47.2829 15.04C46.8242 15.04 46.4189 15.1573 46.0669 15.392C45.7149 15.6267 45.4375 15.9467 45.2349 16.352C45.0429 16.7573 44.9469 17.216 44.9469 17.728C44.9469 18.2293 45.0429 18.6827 45.2349 19.088C45.4375 19.4933 45.7149 19.8133 46.0669 20.048C46.4189 20.2827 46.8242 20.4 47.2829 20.4ZM53.7521 13.44C53.9548 13.44 54.1415 13.4933 54.3121 13.6C54.4828 13.696 54.6108 13.8453 54.6961 14.048L57.0481 19.424L56.6961 19.584L59.0961 14.064C59.2775 13.6373 59.5601 13.4347 59.9441 13.456C60.2108 13.456 60.4241 13.5413 60.5841 13.712C60.7548 13.872 60.8401 14.0747 60.8401 14.32C60.8401 14.3947 60.8241 14.4747 60.7921 14.56C60.7708 14.6453 60.7441 14.7253 60.7121 14.8L57.7201 21.392C57.5495 21.776 57.2775 21.9787 56.9041 22C56.7015 22.032 56.5041 21.9947 56.3121 21.888C56.1308 21.7813 55.9921 21.616 55.8961 21.392L52.9201 14.8C52.8988 14.7467 52.8721 14.6773 52.8401 14.592C52.8188 14.5067 52.8081 14.4053 52.8081 14.288C52.8081 14.096 52.8935 13.9093 53.0641 13.728C53.2348 13.536 53.4641 13.44 53.7521 13.44ZM66.2264 22.16C65.3197 22.16 64.5304 21.9733 63.8584 21.6C63.197 21.216 62.685 20.6987 62.3224 20.048C61.9704 19.3973 61.7944 18.6613 61.7944 17.84C61.7944 16.88 61.9864 16.064 62.3704 15.392C62.765 14.7093 63.277 14.1867 63.9064 13.824C64.5357 13.4613 65.2024 13.28 65.9064 13.28C66.4504 13.28 66.9624 13.392 67.4424 13.616C67.933 13.84 68.365 14.1493 68.7384 14.544C69.1117 14.928 69.405 15.376 69.6184 15.888C69.8424 16.4 69.9544 16.944 69.9544 17.52C69.9437 17.776 69.8424 17.984 69.6504 18.144C69.4584 18.304 69.2344 18.384 68.9784 18.384H62.8664L62.3864 16.784H68.2584L67.9064 17.104V16.672C67.885 16.3627 67.773 16.0853 67.5704 15.84C67.3784 15.5947 67.133 15.4027 66.8344 15.264C66.5464 15.1147 66.237 15.04 65.9064 15.04C65.5864 15.04 65.2877 15.0827 65.0104 15.168C64.733 15.2533 64.493 15.3973 64.2904 15.6C64.0877 15.8027 63.9277 16.0747 63.8104 16.416C63.693 16.7573 63.6344 17.1893 63.6344 17.712C63.6344 18.288 63.7517 18.7787 63.9864 19.184C64.2317 19.5787 64.541 19.8827 64.9144 20.096C65.2984 20.2987 65.7037 20.4 66.1304 20.4C66.525 20.4 66.8397 20.368 67.0744 20.304C67.309 20.24 67.4957 20.1653 67.6344 20.08C67.7837 19.984 67.917 19.904 68.0344 19.84C68.2264 19.744 68.4077 19.696 68.5784 19.696C68.813 19.696 69.005 19.776 69.1544 19.936C69.3144 20.096 69.3944 20.2827 69.3944 20.496C69.3944 20.784 69.245 21.0453 68.9464 21.28C68.669 21.5147 68.2797 21.7227 67.7784 21.904C67.277 22.0747 66.7597 22.16 66.2264 22.16Z" fill="white"/>
</svg>
