<svg width="16" height="16" viewBox="0 0 16 16" fill="none" xmlns="http://www.w3.org/2000/svg">
<path d="M8 0C6.41775 0 4.87103 0.469192 3.55544 1.34824C2.23985 2.22729 1.21447 3.47672 0.608967 4.93853C0.0034663 6.40034 -0.15496 8.00887 0.153721 9.56072C0.462403 11.1126 1.22433 12.538 2.34315 13.6569C3.46197 14.7757 4.88743 15.5376 6.43928 15.8463C7.99113 16.155 9.59966 15.9965 11.0615 15.391C12.5233 14.7855 13.7727 13.7602 14.6518 12.4446C15.5308 11.129 16 9.58225 16 8C15.9975 5.87904 15.1538 3.84566 13.6541 2.34591C12.1543 0.84616 10.121 0.00250216 8 0ZM8 14.5455C6.70543 14.5455 5.43994 14.1616 4.36354 13.4423C3.28715 12.7231 2.4482 11.7009 1.95279 10.5048C1.45738 9.30881 1.32776 7.99274 1.58032 6.72304C1.83288 5.45335 2.45627 4.28706 3.37167 3.37166C4.28707 2.45627 5.45335 1.83287 6.72305 1.58031C7.99274 1.32776 9.30881 1.45738 10.5048 1.95279C11.7009 2.4482 12.7231 3.28715 13.4423 4.36354C14.1616 5.43993 14.5455 6.70543 14.5455 8C14.5435 9.73537 13.8533 11.3991 12.6262 12.6262C11.3991 13.8533 9.73537 14.5435 8 14.5455Z" fill="#3030AD"/>
<path d="M10.3952 5.66753L7.27301 8.78971L5.60537 7.12208C5.53828 7.05262 5.45803 6.99721 5.3693 6.95909C5.28057 6.92098 5.18514 6.90092 5.08857 6.90008C4.99201 6.89924 4.89624 6.91764 4.80686 6.95421C4.71748 6.99078 4.63628 7.04478 4.56799 7.11306C4.49971 7.18135 4.44571 7.26255 4.40914 7.35193C4.37257 7.44131 4.35417 7.53708 4.35501 7.63364C4.35585 7.73021 4.37591 7.82564 4.41403 7.91437C4.45214 8.0031 4.50755 8.08335 4.57701 8.15044L6.75883 10.3323C6.89521 10.4686 7.08016 10.5452 7.27301 10.5452C7.46585 10.5452 7.65081 10.4686 7.78719 10.3323L11.4236 6.6959C11.556 6.55873 11.6293 6.37502 11.6277 6.18433C11.626 5.99364 11.5495 5.81123 11.4147 5.67639C11.2799 5.54155 11.0974 5.46506 10.9068 5.46341C10.7161 5.46175 10.5324 5.53505 10.3952 5.66753Z" fill="#3030AD"/>
</svg>
