<?xml version="1.0" encoding="UTF-8"?>
<svg width="59px" height="64px" viewBox="0 0 59 64" version="1.1" xmlns="http://www.w3.org/2000/svg" xmlns:xlink="http://www.w3.org/1999/xlink">
    <title>7098A65B-B58A-4D7A-9C39-3F0AF32675FD</title>
    <defs>
        <filter id="filter-1">
            <feColorMatrix in="SourceGraphic" type="matrix" values="0 0 0 0 0.290222 0 0 0 0 0.290175 0 0 0 0 0.290237 0 0 0 1.000000 0"></feColorMatrix>
        </filter>
    </defs>
    <g id="Wireframes-2.0" stroke="none" stroke-width="1" fill="none" fill-rule="evenodd">
        <g id="selection" transform="translate(-501.000000, -186.000000)" filter="url(#filter-1)">
            <g transform="translate(501.000000, 186.000000)">
                <path d="M23.402711,26.6015 L22.3342384,26.99025 C20.6762637,27.59425 19.4407489,29.0495 19.1101498,30.787625 L18.7446983,32.7035 C18.5637152,33.653375 18.812038,34.625875 19.4259367,35.3715 C20.0400844,36.117375 20.9447511,36.545125 21.9081688,36.545125 L31.1991751,36.545125 C32.1551245,36.545125 33.0550612,36.123 33.668462,35.386875 C34.2818629,34.65075 34.5370316,33.686625 34.3684958,32.742125 L34.0291835,30.8365 C33.7145169,29.06975 32.475019,27.59175 30.7943903,26.979125 L29.6624367,26.566875 L29.6624367,24.888 C29.6624367,24.841125 29.6578312,24.795375 29.6512342,24.75025 C30.4798481,23.90175 30.954462,22.745625 30.954462,21.562625 L30.954462,19.056625 C30.954462,16.60725 28.9703692,14.614625 26.5314536,14.614625 C24.0926624,14.614625 22.1085696,16.60725 22.1085696,19.056625 L22.1085696,21.641125 C22.1085696,22.857375 22.6077046,23.968 23.4101793,24.77475 C23.4056983,24.811875 23.402711,24.8495 23.402711,24.887875 L23.402711,26.6015 Z M32.1912215,31.1665 L32.5305338,33.072375 C32.6013586,33.469375 32.4941878,33.87425 32.2365295,34.1835 C31.9789958,34.49275 31.6008481,34.670125 31.1991751,34.670125 L21.9081688,34.670125 C21.5032595,34.670125 21.1229958,34.490375 20.8648397,34.17675 C20.6069325,33.863375 20.5025,33.454875 20.5784283,33.056125 L20.9440042,31.14 C21.1517489,30.047375 21.9284578,29.132625 22.9705422,28.753125 L23.6693312,28.498875 C23.686384,28.5165 23.7034367,28.534125 23.7219831,28.550375 C24.5233376,29.253375 25.5283291,29.605 26.5330717,29.605 C27.537192,29.604875 28.5413122,29.25375 29.3416709,28.551625 C29.3574789,28.537875 29.3741582,28.52225 29.3889705,28.507375 C29.3997996,28.496375 29.4095084,28.4845 29.4198397,28.473125 L30.1574641,28.74175 C31.2141118,29.12675 31.9933101,30.055875 32.1912215,31.1665 Z M23.9755338,19.0565 C23.9755338,17.641125 25.1220506,16.4895 26.5313291,16.4895 C27.7194198,16.4895 28.7178143,17.309125 29.002981,18.414125 C28.88523,18.471875 28.7641181,18.52625 28.6398945,18.576125 C27.4999747,19.034625 26.5802468,18.9745 26.3176097,18.78925 C25.8953987,18.491875 25.3134895,18.594625 25.0172447,19.0185 C24.7212489,19.4425 24.8234409,20.027 25.2455274,20.324375 C25.6998523,20.644375 26.3164895,20.80425 27.0197595,20.80425 C27.6565612,20.80425 28.3645612,20.672 29.0873734,20.41 L29.0873734,21.562375 C29.0873734,22.274 28.794365,22.970875 28.2834051,23.474125 C28.0462848,23.70775 27.7751835,23.88775 27.4835443,24.011875 C27.4636287,24.0195 27.444211,24.0275 27.4250422,24.036375 C27.1268059,24.15425 26.8081561,24.213875 26.4811667,24.2075 C25.0996456,24.18075 23.9756582,23.029375 23.9756582,21.640875 L23.9756582,19.0565 L23.9755338,19.0565 Z M26.4450696,26.082375 C26.4733249,26.082875 26.5014557,26.083125 26.529711,26.083125 C26.9636224,26.083125 27.3889451,26.018125 27.7953481,25.892875 L27.7953481,27.374875 C27.0252363,27.851125 26.0405338,27.851 25.2697996,27.3745 L25.2697996,25.895625 C25.6438397,26.008875 26.0377954,26.0745 26.4450696,26.082375 L26.4450696,26.082375 Z" id="Shape" fill="#000000" fill-rule="nonzero"></path>
                <path d="M58.8990527,11.50675 C58.8990527,5.161875 53.7592068,0 47.4414768,0 C41.1237468,0 35.9839008,5.161875 35.9839008,11.50675 C35.9839008,17.535875 40.6251097,22.496375 46.5076835,22.97525 L46.5076835,29.659375 L46.5076835,29.66 L46.5076835,35.396625 L26.5013312,47.09125 C26.4679726,47.110625 26.4268966,47.110625 26.3936624,47.091625 L24.7897089,46.154 C24.7893354,46.15375 24.7888376,46.153625 24.7883397,46.153375 L23.8350042,45.596125 C23.3892679,45.335375 22.8178143,45.487125 22.558538,45.934625 C22.2991371,46.382125 22.4501224,46.956125 22.8956097,47.2165 L25.4538945,48.712 C25.4548903,48.712625 25.4560105,48.713125 25.4570063,48.71375 L43.6333629,59.33875 C43.7812363,59.425125 43.9426772,59.46625 44.1022511,59.46625 C44.4236392,59.46625 44.7365633,59.299375 44.9098291,59.00025 C45.16923,58.55275 45.0182447,57.97875 44.5727574,57.718375 L28.3029473,48.207875 L47.8859684,36.760625 C47.8862173,36.7605 47.8864662,36.76025 47.8868397,36.760125 L50.9264599,34.98325 L50.9264599,59.8675 C50.9264599,61.1125 49.9178586,62.125375 48.6782363,62.125375 L4.21601055,62.125375 C2.97638819,62.125375 1.96791139,61.1125 1.96791139,59.8675 L1.96791139,34.982875 L19.7943755,45.403625 C20.2398629,45.664125 20.8114409,45.5125 21.0708418,45.065125 C21.3302426,44.617625 21.1792574,44.043625 20.73377,43.78325 L6.59854008,35.52025 L6.59854008,11.60225 C6.59854008,10.179375 7.75115612,9.021875 9.16790295,9.021875 L33.5056519,9.021875 C34.0213418,9.021875 34.4391962,8.60225 34.4391962,8.084375 C34.4391962,7.5665 34.0213418,7.146875 33.5056519,7.146875 L9.16777848,7.146875 C6.72151899,7.146875 4.731327,9.1455 4.731327,11.60225 L4.731327,28.9795 L0.559628692,33.303 C0.527639241,33.33625 0.499508439,33.37175 0.473369198,33.408125 C0.238489451,33.684375 0.100822785,34.038125 0.100822785,34.411125 L0.100822785,59.867125 C0.100822785,62.145875 1.94687553,64 4.21601055,64 L48.6783608,64 C50.9474958,64 52.793673,62.146 52.793673,59.867125 L52.793673,34.399375 C52.793673,33.981625 52.6226477,33.58675 52.3326266,33.300625 C52.3312574,33.29925 52.3301371,33.297625 52.3287679,33.29625 L48.3747722,29.27975 L48.3747722,22.97525 C54.2575949,22.496625 58.8990527,17.536 58.8990527,11.50675 Z M4.73145148,34.42875 L3.03177848,33.43525 L4.73145148,31.67375 L4.73145148,34.42875 Z M37.8509895,11.50675 C37.8509895,6.19575 42.1532595,1.875 47.4414768,1.875 C52.7296941,1.875 57.0320886,6.19575 57.0320886,11.50675 C57.0320886,16.81775 52.7298186,21.138625 47.4414768,21.138625 C42.1532595,21.138625 37.8509895,16.81775 37.8509895,11.50675 Z M49.848403,33.44375 L48.3747722,34.305125 L48.3747722,31.94675 L49.848403,33.44375 Z" id="Shape" fill="#000000" fill-rule="nonzero"></path>
                <path d="M51.8929895,8.035875 C51.5285338,7.669875 50.9374135,7.66975 50.5728333,8.036 L45.6413544,12.98875 L44.3102447,11.651875 C43.9455401,11.285875 43.3545443,11.285875 42.9899641,11.651875 C42.625384,12.018125 42.625384,12.611625 42.9899641,12.97775 L44.9812764,14.9775 C45.1564093,15.15325 45.3937785,15.252 45.6414789,15.252 C45.8891793,15.252 46.1264241,15.15325 46.3016814,14.977375 L51.8933629,9.361625 C52.2576941,8.995625 52.2576941,8.402 51.8929895,8.035875 L51.8929895,8.035875 Z" id="Path" fill="#000000" fill-rule="nonzero"></path>
            </g>
        </g>
    </g>
</svg>