<svg width="24" height="24" viewBox="0 0 24 24" fill="none" xmlns="http://www.w3.org/2000/svg">
<path fill-rule="evenodd" clip-rule="evenodd" d="M2.19701 12.8507C2.15544 12.375 2.14805 11.8956 2.17392 11.4181L0.312692 9.77401C0.0549838 9.54679 -0.0549348 9.19487 0.0263495 8.86143C0.26466 7.89159 0.6406 6.94577 1.14493 6.05167C1.31489 5.75056 1.64095 5.56305 1.98179 5.58153L4.4702 5.66743C4.77409 5.30258 5.11216 4.9599 5.47794 4.64217L5.31445 2.15014C5.29135 1.80561 5.46316 1.47772 5.75782 1.29945C6.62238 0.777584 7.58302 0.376716 8.55658 0.107932C8.88449 0.0174137 9.23734 0.120863 9.47103 0.372098L11.1678 2.20002C11.6417 2.15753 12.1211 2.14921 12.6005 2.17692L14.2446 0.312984C14.4719 0.0552837 14.821 -0.0564789 15.1572 0.027574C16.1271 0.264954 17.072 0.640882 17.9671 1.14428C18.2562 1.30684 18.4529 1.65598 18.4409 1.98757L18.4393 2.0317C18.4094 2.84456 18.3795 3.65655 18.3513 4.46944C18.4262 4.53317 19.3138 5.40511 19.3739 5.47438C20.2052 5.42173 21.0374 5.36816 21.8687 5.31366C22.2086 5.29242 22.5606 5.48454 22.7278 5.7718C22.9873 6.21793 23.2155 6.67237 23.4067 7.12126C23.6163 7.61265 23.766 8.04307 23.8842 8.46888C24.0218 8.83649 23.875 9.16439 23.657 9.45996C23.6487 9.47197 21.8189 11.1687 21.8189 11.1687C21.8272 11.2639 21.8475 12.4997 21.8419 12.6013L23.7041 14.2445C23.9858 14.4939 24.0523 14.892 23.9627 15.243C23.7235 16.1833 23.3614 17.1005 22.8719 17.9678C22.7102 18.2541 22.3592 18.4545 22.0285 18.4416C21.2009 18.4102 20.3742 18.3806 19.5475 18.352C19.4828 18.3499 19.2915 18.5905 19.1816 18.7286C19.1489 18.7698 19.1233 18.8019 19.1106 18.8157C18.9296 19.0106 18.7439 19.2009 18.5425 19.3745C18.5943 20.2058 18.6488 21.038 18.7033 21.8693C18.7245 22.1944 18.5268 22.5648 18.246 22.7283C17.4055 23.2178 16.5003 23.6206 15.5618 23.881C15.1942 23.9836 14.8266 23.9309 14.5652 23.663C14.5467 23.6501 12.8489 21.8194 12.8489 21.8194C12.3751 21.861 11.8939 21.8684 11.4172 21.8425L9.774 23.7046C9.52645 23.9854 9.12372 24.0528 8.77272 23.9623C7.81948 23.7166 6.91057 23.3573 6.05062 22.8733C5.7495 22.7043 5.56754 22.3819 5.58047 22.0365L5.66545 19.5481C5.30059 19.2443 4.9579 18.9071 4.64016 18.5414L2.14805 18.7048C1.78135 18.7252 1.46453 18.5506 1.28903 18.2467C0.783771 17.3739 0.363495 16.4373 0.104863 15.461C0.0171127 15.1312 0.118718 14.7793 0.369037 14.5475L2.19701 12.8507ZM4.87293 7.52952L2.49628 7.44824C2.28568 7.87959 2.10834 8.32202 1.96886 8.77184L3.74418 10.3393C3.96771 10.5369 4.08225 10.8307 4.05177 11.1272C3.98342 11.7774 3.9945 12.436 4.0841 13.0844C4.12474 13.3827 4.01852 13.6829 3.79776 13.888L2.05107 15.5081C2.20625 15.9579 2.39745 16.3985 2.61452 16.8224L4.993 16.6682C5.31352 16.6525 5.59432 16.7818 5.78183 17.0229C6.18548 17.542 6.64732 17.9955 7.15535 18.3723C7.39828 18.5534 7.53868 18.8425 7.5276 19.1464L7.44631 21.5229C7.87675 21.7344 8.31919 21.9109 8.76811 22.0503L10.3365 20.2723C10.5203 20.0636 10.8529 19.9398 11.1253 19.9684C11.7793 20.0368 12.437 20.0248 13.0808 19.9352C13.3653 19.8954 13.6997 20.0211 13.8927 20.2289C13.8955 20.2307 15.5064 21.9672 15.5064 21.9672C15.7161 21.8952 15.935 21.8093 16.1733 21.7077C16.3876 21.6162 16.6037 21.5146 16.8199 21.4038C16.7896 20.8626 16.7529 20.3209 16.7161 19.7795C16.6991 19.528 16.682 19.2767 16.6656 19.0254C16.6379 18.7363 16.7949 18.4102 17.0203 18.2356C17.4988 17.8643 17.9449 17.4053 18.3153 16.9268C18.5139 16.67 18.8132 16.4705 19.1494 16.4871C19.7124 16.5162 20.2769 16.5334 20.8411 16.5506C21.0673 16.5575 21.2935 16.5645 21.5196 16.5721C21.7311 16.1417 21.9075 15.6993 22.047 15.2494L20.2698 13.682C20.0786 13.4428 19.9281 13.1952 19.9632 12.8849C20.0269 12.3187 20.013 11.7165 19.9502 11.1521C19.9105 10.7919 19.9355 10.3966 20.22 10.1324C20.2246 10.1296 21.9666 8.51229 21.9666 8.51229C21.8946 8.30354 21.8087 8.08464 21.708 7.84633C21.6156 7.63112 21.514 7.41499 21.4032 7.19793C21.1574 7.21368 20.9114 7.22828 20.6654 7.24289C20.1182 7.27537 19.5708 7.30786 19.0247 7.3531C18.7273 7.3725 18.4197 7.23395 18.2359 6.99842C17.8987 6.56614 17.4914 6.17082 17.0665 5.82445C16.7626 5.57691 16.4707 5.29334 16.4864 4.86939C16.516 4.07874 16.5437 3.28901 16.5705 2.49836C16.1391 2.28776 15.6957 2.11042 15.2468 1.97095L13.6803 3.74529C13.4826 3.96882 13.1898 4.08335 12.8914 4.05287C12.2375 3.98452 11.5798 3.99653 10.936 4.08612C10.6303 4.12954 10.3374 4.02054 10.1305 3.79979L8.5104 2.05315C8.50301 2.04484 7.18953 2.5002 7.19507 2.61289L7.35117 4.99408C7.37057 5.29981 7.23848 5.59446 6.99648 5.78288C6.47552 6.18837 6.02199 6.6502 5.64605 7.15636C5.46593 7.40021 5.17128 7.53968 4.87293 7.52952Z" fill="currentcolor"/>
<path fill-rule="evenodd" clip-rule="evenodd" d="M16.9091 12.2731C16.9091 14.8296 14.8292 16.9094 12.2727 16.9094C9.71623 16.9094 7.63636 14.8296 7.63636 12.2731C7.63636 9.71659 9.71623 7.63672 12.2727 7.63672C14.8292 7.63672 16.9091 9.71659 16.9091 12.2731ZM15.0545 12.2731C15.0545 10.7394 13.8064 9.49126 12.2727 9.49126C10.739 9.49126 9.49091 10.7394 9.49091 12.2731C9.49091 13.8068 10.739 15.0549 12.2727 15.0549C13.8064 15.0549 15.0545 13.8068 15.0545 12.2731Z" fill="currentcolor"/>
</svg>
