<svg width="17" height="16" viewBox="0 0 17 16" fill="none" xmlns="http://www.w3.org/2000/svg">
<path d="M5.875 3.625L8.5 1L11.125 3.625" stroke="white" stroke-width="1.5" stroke-linecap="round" stroke-linejoin="round"/>
<path d="M8.5 8V1" stroke="white" stroke-width="1.5" stroke-linecap="round" stroke-linejoin="round"/>
<path d="M11.5 6H13C13.1326 6 13.2598 6.05268 13.3536 6.14645C13.4473 6.24021 13.5 6.36739 13.5 6.5V13C13.5 13.1326 13.4473 13.2598 13.3536 13.3536C13.2598 13.4473 13.1326 13.5 13 13.5H4C3.86739 13.5 3.74021 13.4473 3.64645 13.3536C3.55268 13.2598 3.5 13.1326 3.5 13V6.5C3.5 6.36739 3.55268 6.24021 3.64645 6.14645C3.74021 6.05268 3.86739 6 4 6H5.5" stroke="white" stroke-width="1.5" stroke-linecap="round" stroke-linejoin="round"/>
</svg>
