<svg width="16" height="14" viewBox="0 0 16 14" fill="none" xmlns="http://www.w3.org/2000/svg">
<path d="M14.0576 8.09613C12.7362 7.90881 11.8753 7.40299 11.2349 6.57926L11.6856 6.34644C11.9678 6.20049 12.0821 5.84535 11.941 5.55344C11.7993 5.26094 11.4565 5.14276 11.1743 5.28931L10.6247 5.57353C10.4282 5.16876 10.2499 4.72144 10.0814 4.22153L10.543 3.9828C10.8252 3.83685 10.9395 3.48171 10.7984 3.1898C10.6567 2.89789 10.3139 2.77971 10.0317 2.92567L9.72721 3.08344C9.55468 2.49253 9.37873 1.8508 9.12279 0.927208C9.0668 0.72689 8.91369 0.572072 8.71888 0.519481C8.52521 0.46748 8.31726 0.523617 8.1733 0.669572C6.99586 1.86676 4.69127 2.16339 3.26704 0.67489C3.14479 0.548435 2.97225 0.485208 2.80315 0.502935C2.63176 0.520662 2.47694 0.617572 2.38268 0.767072L0.332885 4.0023C-0.201273 4.75512 -0.0813014 5.77858 0.611676 6.38367L8.28641 13.0816C8.59491 13.3517 8.98796 13.5 9.39244 13.5H15.4287C15.7446 13.5 16 13.2353 16 12.9091V10.4479C16 9.26377 15.1648 8.25272 14.0576 8.09613ZM14.8574 12.3182H9.39244C9.25761 12.3182 9.12679 12.2691 9.02338 12.1787L1.34864 5.48017C1.12127 5.28162 1.08071 4.94658 1.27152 4.67594L1.45833 4.38167L9.76606 11.459C9.97058 11.6315 10.2277 11.7273 10.4916 11.7273H14.8574V12.3182ZM14.8574 10.5455H10.4916L2.08789 3.38717L2.9814 1.97666C4.59644 3.19571 6.76735 3.05271 8.25614 2.09248C8.4041 2.62667 8.54635 3.13485 8.69032 3.6188L7.7454 4.10749C7.46318 4.25344 7.34892 4.60858 7.49003 4.90049C7.63286 5.19476 7.97677 5.3094 8.25671 5.16462L9.05195 4.75335C9.2199 5.23849 9.39986 5.68817 9.59867 6.10358L8.88856 6.47113C8.60634 6.61708 8.49208 6.97222 8.63319 7.26413C8.77601 7.5584 9.11993 7.67304 9.39986 7.52826L10.186 7.12172C10.9823 8.26572 12.0964 9.01145 13.9022 9.26672C14.4227 9.34118 14.8574 9.79263 14.8574 10.5455Z" fill="#3030AD"/>
</svg>
