<svg width="16" height="16" viewBox="0 0 16 16" fill="none" xmlns="http://www.w3.org/2000/svg">
<path d="M14.0576 9.09613C12.7362 8.90881 11.8753 8.40299 11.2349 7.57926L11.6856 7.34644C11.9678 7.20049 12.0821 6.84535 11.941 6.55344C11.7993 6.26094 11.4565 6.14276 11.1743 6.28931L10.6247 6.57353C10.4282 6.16876 10.2499 5.72144 10.0814 5.22153L10.543 4.9828C10.8252 4.83685 10.9395 4.48171 10.7984 4.1898C10.6567 3.89789 10.3139 3.77971 10.0317 3.92567L9.72721 4.08344C9.55468 3.49253 9.37873 2.8508 9.12279 1.92721C9.0668 1.72689 8.91369 1.57207 8.71888 1.51948C8.52521 1.46748 8.31726 1.52362 8.1733 1.66957C6.99586 2.86676 4.69127 3.16339 3.26704 1.67489C3.14479 1.54844 2.97225 1.48521 2.80315 1.50294C2.63176 1.52066 2.47694 1.61757 2.38268 1.76707L0.332885 5.0023C-0.201273 5.75512 -0.0813014 6.77858 0.611676 7.38367L8.28641 14.0816C8.59491 14.3517 8.98796 14.5 9.39244 14.5H15.4287C15.7446 14.5 16 14.2353 16 13.9091V11.4479C16 10.2638 15.1648 9.25272 14.0576 9.09613ZM14.8574 13.3182H9.39244C9.25761 13.3182 9.12679 13.2691 9.02338 13.1787L1.34864 6.48017C1.12127 6.28162 1.08071 5.94658 1.27152 5.67594L1.45833 5.38167L9.76606 12.459C9.97058 12.6315 10.2277 12.7273 10.4916 12.7273H14.8574V13.3182ZM14.8574 11.5455H10.4916L2.08789 4.38717L2.9814 2.97666C4.59644 4.19571 6.76735 4.05271 8.25614 3.09248C8.4041 3.62667 8.54635 4.13485 8.69032 4.6188L7.7454 5.10749C7.46318 5.25344 7.34892 5.60858 7.49003 5.90049C7.63286 6.19476 7.97677 6.3094 8.25671 6.16462L9.05195 5.75335C9.2199 6.23849 9.39986 6.68817 9.59867 7.10358L8.88856 7.47113C8.60634 7.61708 8.49208 7.97222 8.63319 8.26413C8.77601 8.5584 9.11993 8.67304 9.39986 8.52826L10.186 8.12172C10.9823 9.26572 12.0964 10.0114 13.9022 10.2667C14.4227 10.3412 14.8574 10.7926 14.8574 11.5455Z" fill="#0B0B28"/>
</svg>
