<svg width="122" height="124" viewBox="0 0 122 124" fill="none" xmlns="http://www.w3.org/2000/svg">
<path d="M14 62C14 71.4935 16.8152 80.7738 22.0895 88.6674C27.3638 96.5609 34.8603 102.713 43.6312 106.346C52.402 109.979 62.0532 110.93 71.3643 109.078C80.6754 107.226 89.2282 102.654 95.9411 95.9411C102.654 89.2282 107.226 80.6754 109.078 71.3643C110.93 62.0532 109.979 52.402 106.346 43.6312C102.713 34.8603 96.5609 27.3638 88.6674 22.0895C80.7738 16.8152 71.4935 14 62 14" stroke="#3030AD" stroke-width="3" stroke-linecap="round"/>
<path d="M119.956 46.4709C116.884 35.0083 110.483 24.714 101.561 16.8896C92.6388 9.06524 81.5969 4.06225 69.8316 2.51331C58.0662 0.964369 46.1058 2.93905 35.4627 8.18763C24.8196 13.4362 15.9719 21.723 10.0385 32C4.10504 42.277 1.35234 54.0827 2.12846 65.9242C2.90459 77.7656 7.1747 89.111 14.3988 98.5257C21.6229 107.94 31.4765 115.001 42.7136 118.816C53.9507 122.63 66.0666 123.027 77.5291 119.956" stroke="#EBEBF9" stroke-width="3" stroke-linecap="round"/>
<path fill-rule="evenodd" clip-rule="evenodd" d="M74.1339 59.081V54.0794V47.7138C74.1339 45.9588 72.6685 44.531 70.8672 44.531C70.296 44.531 69.7677 44.6875 69.3001 44.9384C68.8801 43.6526 67.6575 42.7123 66.2005 42.7123C65.6293 42.7123 65.1011 42.8687 64.6335 43.1197C64.2135 41.8338 62.9908 40.8936 61.5339 40.8936C60.0769 40.8936 58.8543 41.8338 58.4343 43.1197C57.9667 42.8687 57.4384 42.7123 56.8672 42.7123C55.0659 42.7123 53.6005 44.14 53.6005 45.8951V47.351C51.4735 47.7739 49.8672 49.6099 49.8672 51.806V59.081C49.8672 62.2247 51.6788 65.0392 54.5339 66.4142V70.9028H53.6005C53.0844 70.9028 52.6672 71.3102 52.6672 71.8122V89.0902C52.6672 89.5922 53.0844 89.9996 53.6005 89.9996H70.4005C70.9167 89.9996 71.3339 89.5922 71.3339 89.0902V71.8122C71.3339 71.3102 70.9167 70.9028 70.4005 70.9028H69.4672V66.4151C72.3223 65.0392 74.1339 62.2247 74.1339 59.081ZM70.867 46.3501C71.6389 46.3501 72.267 46.9621 72.267 47.7142V54.0798C72.267 54.8318 71.6389 55.4438 70.867 55.4438C70.0952 55.4438 69.467 54.8318 69.467 54.0798V47.7142C69.467 46.9621 70.0952 46.3501 70.867 46.3501ZM67.6005 45.8948C67.6005 45.1428 66.9724 44.5308 66.2005 44.5308C65.4287 44.5308 64.8005 45.1428 64.8005 45.8948V54.0792C64.8005 54.8312 65.4287 55.4432 66.2005 55.4432C66.9724 55.4432 67.6005 54.8312 67.6005 54.0792V47.7136V45.8948ZM60.1338 44.0761C60.1338 43.324 60.7619 42.712 61.5338 42.712C62.3057 42.712 62.9338 43.324 62.9338 44.0761V45.8948V54.0791C62.9338 54.8312 62.3057 55.4432 61.5338 55.4432C60.7619 55.4432 60.1338 54.8312 60.1338 54.0791V53.3053C61.2333 52.7924 62.0005 51.7066 62.0005 50.4417C62.0005 49.1767 61.2333 48.0909 60.1338 47.5781V45.8948V44.0761ZM56.8671 55.4433C57.6389 55.4433 58.2671 54.8312 58.2671 54.0792V53.6245H56.4004V55.3614C56.5488 55.4132 56.7056 55.4433 56.8671 55.4433ZM56.867 44.5308C57.6389 44.5308 58.267 45.1428 58.267 45.8948V47.2589H55.467V45.8948C55.467 45.1428 56.0952 44.5308 56.867 44.5308ZM69.467 74.5399V72.7212H54.5337V74.5399H69.467ZM54.5337 88.1807V76.3589H69.467V88.1807H54.5337ZM56.4006 65.8269V70.903H67.6006V65.8269C67.6006 65.4568 67.8311 65.123 68.1839 64.9839C70.6638 64.0063 72.2672 61.6892 72.2672 59.0811V56.9432C71.8416 57.1415 71.3703 57.2624 70.8672 57.2624C69.9526 57.2624 69.1275 56.8923 68.5339 56.3003C67.9403 56.8923 67.1152 57.2624 66.2006 57.2624C65.2859 57.2624 64.4608 56.8923 63.8672 56.3003C63.2736 56.8923 62.4486 57.2624 61.5339 57.2624C60.6192 57.2624 59.7942 56.8923 59.2006 56.3003C58.607 56.8923 57.7819 57.2624 56.8672 57.2624C56.7095 57.2624 56.5546 57.2469 56.4006 57.226V57.327C59.5627 57.7698 62.0006 60.4261 62.0006 63.628H60.1339C60.1339 61.1209 58.0404 59.0811 55.4672 59.0811C54.9511 59.0811 54.5339 58.6737 54.5339 58.1718V52.7155C54.5339 52.2136 54.9511 51.8062 55.4672 51.8062H58.7339C59.5058 51.8062 60.1339 51.1942 60.1339 50.4421C60.1339 49.6901 59.5058 49.0781 58.7339 49.0781H54.5339C52.9902 49.0781 51.7339 50.3021 51.7339 51.8062V59.0811C51.7339 61.6883 53.3374 64.0063 55.8172 64.9839C56.17 65.123 56.4006 65.4568 56.4006 65.8269Z" fill="#3030AD"/>
<path d="M42.3999 61.8095H44.2666C44.2666 54.9656 41.7531 48.5272 37.1882 43.6803L36.5535 43.0073L35.1787 44.2377L35.8124 44.9106C39.9994 49.3556 42.3999 55.5148 42.3999 61.8095Z" fill="#AFAFE9"/>
<path d="M88.1866 44.9106L88.8213 44.2377L87.4465 43.0073L86.8109 43.6803C82.2469 48.5272 79.7334 54.9656 79.7334 61.8095H81.6001C81.6001 55.5148 84.0006 49.3556 88.1866 44.9106Z" fill="#3030AD"/>
<path d="M47.9995 51.05C47.9995 45.7975 49.9539 40.6595 53.3615 36.9547L51.9708 35.7407C48.2067 39.8347 46.1328 45.2718 46.1328 51.05V51.8066H47.9995V51.05Z" fill="#AFAFE9"/>
<path d="M76.0007 51.8066H77.8673V51.05C77.8673 45.2718 75.7935 39.8347 72.0293 35.7407L70.6387 36.9547C74.0463 40.6595 76.0007 45.7975 76.0007 51.05V51.8066Z" fill="#3030AD"/>
<path d="M42.4003 49.0783H44.267V48.7173C44.267 43.4093 42.5935 38.3195 39.4258 34L37.9082 35.0567C40.8463 39.0661 42.4003 43.7903 42.4003 48.7173V49.0783Z" fill="#3030AD"/>
<path d="M81.6001 48.7173C81.6001 43.7904 83.1541 39.0671 86.0922 35.0577L84.5737 34.001C81.4069 38.3196 79.7334 43.4084 79.7334 48.7173V49.0784H81.6001V48.7173Z" fill="#AFAFE9"/>
<path d="M35.8672 53.625H37.7339V55.4437H35.8672V53.625Z" fill="#3030AD"/>
<path d="M37.7334 55.4438H39.6001V57.2626H37.7334V55.4438Z" fill="#3030AD"/>
<path d="M35.8672 57.2627H37.7339V59.0814H35.8672V57.2627Z" fill="#3030AD"/>
<path d="M34 55.4438H35.8667V57.2626H34V55.4438Z" fill="#3030AD"/>
<path d="M86.2666 53.625H88.1333V55.4437H86.2666V53.625Z" fill="#3030AD"/>
<path d="M88.1328 55.4438H89.9995V57.2626H88.1328V55.4438Z" fill="#3030AD"/>
<path d="M86.2666 57.2627H88.1333V59.0814H86.2666V57.2627Z" fill="#3030AD"/>
<path d="M84.4004 55.4438H86.2671V57.2626H84.4004V55.4438Z" fill="#3030AD"/>
<path d="M76 62.7192H77.8667V64.538H76V62.7192Z" fill="#3030AD"/>
<path d="M77.8672 64.5376H79.7339V66.3563H77.8672V64.5376Z" fill="#3030AD"/>
<path d="M76 66.356H77.8667V68.1747H76V66.356Z" fill="#3030AD"/>
<path d="M74.1328 64.5376H75.9995V66.3563H74.1328V64.5376Z" fill="#3030AD"/>
<path d="M46.1328 62.7192H47.9995V64.538H46.1328V62.7192Z" fill="#3030AD"/>
<path d="M48 64.5376H49.8667V66.3563H48V64.5376Z" fill="#3030AD"/>
<path d="M46.1328 66.356H47.9995V68.1747H46.1328V66.356Z" fill="#3030AD"/>
<path d="M44.2666 64.5376H46.1333V66.3563H44.2666V64.5376Z" fill="#3030AD"/>
<path d="M64.7998 36.3467H66.6665V38.1654H64.7998V36.3467Z" fill="#3030AD"/>
<path d="M54.5332 38.166H56.3999V39.9848H54.5332V38.166Z" fill="#3030AD"/>
<path d="M42.2388 69.773C39.9344 72.0183 38.666 75.0028 38.666 78.1783H40.5327C40.5327 75.4884 41.6069 72.9604 43.5585 71.0598L43.9925 70.6378L42.6728 69.3511L42.2388 69.773Z" fill="#3030AD"/>
<path d="M81.3266 69.3501L80.0068 70.6369L80.4408 71.0588C82.3924 72.9603 83.4667 75.4884 83.4667 78.1783H85.3334C85.3334 75.0027 84.065 72.0182 81.7606 69.773L81.3266 69.3501Z" fill="#AFAFE9"/>
</svg>
