<svg width="24" height="24" viewBox="0 0 24 24" fill="none" xmlns="http://www.w3.org/2000/svg">
<path fill-rule="evenodd" clip-rule="evenodd" d="M1.09091 0H22.9091C23.5116 0 24 0.488417 24 1.09091V22.9091C24 23.5116 23.5116 24 22.9091 24H1.09091C0.488419 24 1.90735e-06 23.5116 1.90735e-06 22.9091V1.09091C1.90735e-06 0.488417 0.488419 0 1.09091 0ZM2.18164 21.8182H21.818V2.18182H2.18164V21.8182Z" fill="#EBEBF9"/>
<path d="M6.5455 18.5454C7.14799 18.5454 7.63641 18.057 7.63641 17.4545V9.81817C7.63641 9.21568 7.14799 8.72726 6.5455 8.72726C5.94301 8.72726 5.45459 9.21568 5.45459 9.81817V17.4545C5.45459 18.057 5.94301 18.5454 6.5455 18.5454Z" fill="#EBEBF9"/>
<path d="M12.0001 18.5455C12.6026 18.5455 13.091 18.057 13.091 17.4545V6.54545C13.091 5.94296 12.6026 5.45454 12.0001 5.45454C11.3976 5.45454 10.9092 5.94296 10.9092 6.54545V17.4545C10.9092 18.057 11.3976 18.5455 12.0001 18.5455Z" fill="#EBEBF9"/>
<path d="M17.4547 18.5454C18.0572 18.5454 18.5456 18.057 18.5456 17.4545V9.81817C18.5456 9.21568 18.0572 8.72726 17.4547 8.72726C16.8522 8.72726 16.3638 9.21568 16.3638 9.81817V17.4545C16.3638 18.057 16.8522 18.5454 17.4547 18.5454Z" fill="#EBEBF9"/>
</svg>
