<?xml version="1.0" encoding="UTF-8"?>
<svg width="24px" height="24px" viewBox="0 0 24 24" version="1.1" xmlns="http://www.w3.org/2000/svg" xmlns:xlink="http://www.w3.org/1999/xlink">
    <title>4A08207C-D9C7-4A73-AA87-3BD29CA4BDB4</title>
    <defs>
        <filter id="filter-1">
            <feColorMatrix in="SourceGraphic" type="matrix" values="0 0 0 0 0.290222 0 0 0 0 0.290175 0 0 0 0 0.290237 0 0 0 1.000000 0"></feColorMatrix>
        </filter>
    </defs>
    <g id="Wireframes-2.0" stroke="none" stroke-width="1" fill="none" fill-rule="evenodd">
        <g id="task-board" transform="translate(-165.000000, -139.000000)" filter="url(#filter-1)">
            <g transform="translate(165.000000, 139.000000)">
                <path d="M23.2968281,11.296875 L21.8183438,11.296875 C21.4730625,6.42825 17.5717031,2.52689063 12.703125,2.18160937 L12.703125,0.703125 C12.703125,0.3148125 12.3883125,0 12,0 C11.6116875,0 11.296875,0.3148125 11.296875,0.703125 L11.296875,2.18160937 C6.42825,2.5269375 2.5269375,6.42825 2.18160937,11.296875 L0.703125,11.296875 C0.3148125,11.296875 0,11.6116875 0,12 C0,12.3883125 0.3148125,12.703125 0.703125,12.703125 L2.18165625,12.703125 C2.5269375,17.5717031 6.42825,21.4730156 11.296875,21.8183437 L11.296875,23.296875 C11.296875,23.6851875 11.6116875,24 12,24 C12.3883125,24 12.703125,23.6851875 12.703125,23.296875 L12.703125,21.8183906 C17.5717031,21.4730156 21.4730156,17.5717031 21.8183438,12.703125 L23.2968281,12.703125 C23.6851406,12.703125 23.9999531,12.3883125 23.9999531,12 C23.9999531,11.6116875 23.6851406,11.296875 23.2968281,11.296875 Z M12.703125,20.4079219 L12.703125,18.328125 C12.703125,17.9398125 12.3883125,17.625 12,17.625 C11.6116875,17.625 11.296875,17.9398125 11.296875,18.328125 L11.296875,20.4079219 C7.204125,20.0685937 3.93135937,16.7958281 3.59203125,12.703125 L5.67178125,12.703125 C6.06009375,12.703125 6.37490625,12.3883125 6.37490625,12 C6.37490625,11.6116875 6.06009375,11.296875 5.67178125,11.296875 L3.59203125,11.296875 C3.9313125,7.204125 7.20407813,3.9313125 11.296875,3.59203125 L11.296875,5.67182812 C11.296875,6.06014062 11.6116875,6.37495312 12,6.37495312 C12.3883125,6.37495312 12.703125,6.06014062 12.703125,5.67182812 L12.703125,3.59203125 C16.795875,3.9313125 20.0686875,7.204125 20.4079688,11.296875 L18.328125,11.296875 C17.9398125,11.296875 17.625,11.6116875 17.625,12 C17.625,12.3883125 17.9398125,12.703125 18.328125,12.703125 L20.4079688,12.703125 C20.0686406,16.795875 16.7958281,20.0686406 12.703125,20.4079219 Z" id="Shape" fill="#000000" fill-rule="nonzero"></path>
                <path d="M15.6358594,10.0637812 L13.6654219,9.58153125 L12.5978438,7.85653125 C12.4696875,7.6494375 12.2434688,7.5234375 11.9999531,7.5234375 C11.7564375,7.5234375 11.5302188,7.6494375 11.4020625,7.85653125 L10.3345313,9.58153125 L8.36404688,10.0637813 C8.12751563,10.1216719 7.93776563,10.297875 7.86248438,10.5294844 C7.78725,10.7610938 7.83717188,11.0151563 7.99453125,11.2010625 L9.30520313,12.7493906 L9.15492188,14.7724688 C9.136875,15.0153281 9.24576563,15.2502656 9.44282813,15.3934219 C9.63989063,15.5365313 9.89690625,15.5675156 10.1223281,15.4753594 L11.9999063,14.7072656 L13.8775313,15.4753594 C13.9633594,15.5104688 14.0537344,15.5277188 14.1436875,15.5277188 C14.2899844,15.5277188 14.4350156,15.4820625 14.5570313,15.3934219 C14.7540469,15.2502656 14.8629844,15.015375 14.8449375,14.7724688 L14.6946563,12.7494375 L16.0053281,11.2011094 C16.1626875,11.01525 16.2126094,10.7611875 16.137375,10.5295312 C16.0621875,10.297875 15.8724375,10.1216719 15.6358594,10.0637812 Z M13.4355469,12.0603281 C13.3164375,12.201 13.257375,12.382875 13.2710156,12.5667187 L13.3584375,13.7435156 L12.2661563,13.2967031 C12.1808438,13.2618281 12.090375,13.2443437 11.9999531,13.2443437 C11.9095313,13.2443437 11.8190625,13.2618281 11.7337031,13.2967031 L10.6415156,13.7435156 L10.7289375,12.5666719 C10.7425781,12.3828281 10.6835156,12.201 10.5644063,12.0602812 L9.8019375,11.1595781 L10.9482188,10.8790312 C11.1272813,10.8352031 11.2819688,10.7228437 11.3789531,10.5660937 L12,9.56264062 L12.6210469,10.5660937 C12.7180313,10.7228437 12.8727188,10.83525 13.0517813,10.8790312 L14.1980156,11.1595781 L13.4355469,12.0603281 Z" id="Shape" fill="#000000" fill-rule="nonzero"></path>
            </g>
        </g>
    </g>
</svg>