<svg width="16" height="16" viewBox="0 0 16 16" fill="none" xmlns="http://www.w3.org/2000/svg">
<path fill-rule="evenodd" clip-rule="evenodd" d="M14.5456 7.53125H15.5312C15.7901 7.53125 16 7.74113 16 8C16 8.25887 15.7901 8.46875 15.5312 8.46875H14.5456C14.3153 11.7145 11.7145 14.3153 8.46875 14.5456V15.5312C8.46875 15.7901 8.25887 16 8 16C7.74113 16 7.53125 15.7901 7.53125 15.5312V14.5456C4.2855 14.3153 1.68463 11.7145 1.45444 8.46875H0.46875C0.209875 8.46875 0 8.25887 0 8C0 7.74113 0.209875 7.53125 0.46875 7.53125H1.45441C1.68463 4.2855 4.2855 1.68463 7.53125 1.45441V0.46875C7.53125 0.209875 7.74113 0 8 0C8.25887 0 8.46875 0.209875 8.46875 0.46875V1.45441C11.7145 1.68459 14.3154 4.2855 14.5456 7.53125ZM8.46875 12.2188V13.6053C11.1972 13.3791 13.3791 11.1972 13.6053 8.46875H12.2188C11.9599 8.46875 11.75 8.25887 11.75 8C11.75 7.74112 11.9599 7.53125 12.2188 7.53125H13.6053C13.3791 4.80275 11.1972 2.62087 8.46875 2.39469V3.78122C8.46875 4.04009 8.25887 4.24997 8 4.24997C7.74112 4.24997 7.53125 4.04009 7.53125 3.78122V2.39469C4.80272 2.62087 2.62087 4.80275 2.39469 7.53125H3.78119C4.04006 7.53125 4.24994 7.74112 4.24994 8C4.24994 8.25887 4.04006 8.46875 3.78119 8.46875H2.39469C2.62091 11.1972 4.80275 13.3791 7.53125 13.6053V12.2188C7.53125 11.9599 7.74112 11.75 8 11.75C8.25887 11.75 8.46875 11.9599 8.46875 12.2188Z" fill="currentColor"/>
<path fill-rule="evenodd" clip-rule="evenodd" d="M9.11032 6.38769L10.4239 6.70919C10.5817 6.74778 10.7082 6.86525 10.7583 7.01969C10.8084 7.17412 10.7752 7.3435 10.6703 7.46741L9.79648 8.49962L9.89666 9.84831C9.90869 10.0103 9.83607 10.1668 9.70473 10.2623C9.62338 10.3214 9.52669 10.3518 9.42916 10.3518C9.36919 10.3518 9.30894 10.3403 9.25173 10.3169L7.99998 9.80484L6.74826 10.3169C6.59798 10.3783 6.42663 10.3577 6.29526 10.2623C6.16388 10.1668 6.09129 10.0102 6.10332 9.84831L6.20351 8.49959L5.32973 7.46738C5.22482 7.34344 5.19154 7.17406 5.24169 7.01966C5.29188 6.86525 5.41838 6.74778 5.57607 6.70919L6.88973 6.38769L7.60141 5.23769C7.68685 5.09962 7.83766 5.01562 8.00001 5.01562C8.16235 5.01562 8.31316 5.09962 8.3986 5.23769L9.11032 6.38769ZM8.84738 8.37781C8.83829 8.25525 8.87766 8.134 8.95707 8.04022L9.46538 7.43972L8.70123 7.25269C8.58185 7.2235 8.47873 7.14856 8.41407 7.04406L8.00004 6.37509L7.58601 7.04406C7.52135 7.14856 7.41823 7.22347 7.29885 7.25269L6.53466 7.43972L7.04298 8.04019C7.12238 8.134 7.16176 8.25522 7.15266 8.37778L7.09438 9.16234L7.82251 8.86447C7.87941 8.84122 7.93973 8.82956 8.00001 8.82956C8.06029 8.82956 8.1206 8.84122 8.17748 8.86447L8.90566 9.16234L8.84738 8.37781Z" fill="currentColor"/>
</svg>
