<?xml version="1.0" encoding="UTF-8"?>
<svg width="20px" height="22px" viewBox="0 0 20 22" version="1.1" xmlns="http://www.w3.org/2000/svg" xmlns:xlink="http://www.w3.org/1999/xlink">
    <title>811B0D04-3102-449C-B478-A804FA34708E</title>
    <defs>
        <filter id="filter-1">
            <feColorMatrix in="SourceGraphic" type="matrix" values="0 0 0 0 0.290222 0 0 0 0 0.290175 0 0 0 0 0.290237 0 0 0 1.000000 0"></feColorMatrix>
        </filter>
    </defs>
    <g id="Wireframes-2.0" stroke="none" stroke-width="1" fill="none" fill-rule="evenodd">
        <g id="6.1-Components---Create-Blueprint-Component" transform="translate(-628.000000, -387.000000)">
            <g id="003-text" transform="translate(618.000000, 378.000000)" filter="url(#filter-1)">
                <g transform="translate(11.000000, 10.000000)">
                    <path d="M17.248227,0 L0.907801418,0 C0.406436539,0 0,0.406436539 0,0.907801418 L0,4.53900709 C0,5.04037197 0.406436539,5.44680851 0.907801418,5.44680851 C1.4091663,5.44680851 1.81560284,5.04037197 1.81560284,4.53900709 L1.81560284,1.81560284 L8.17021277,1.81560284 L8.17021277,18.1560284 L5.44680851,18.1560284 C4.94544363,18.1560284 4.53900709,18.5624649 4.53900709,19.0638298 C4.53900709,19.5651947 4.94544363,19.9716312 5.44680851,19.9716312 L12.7092199,19.9716312 C13.2105847,19.9716312 13.6170213,19.5651947 13.6170213,19.0638298 C13.6170213,18.5624649 13.2105847,18.1560284 12.7092199,18.1560284 L9.9858156,18.1560284 L9.9858156,1.81560284 L16.3404255,1.81560284 L16.3404255,4.53900709 C16.3404255,5.04037197 16.7468621,5.44680851 17.248227,5.44680851 C17.7495918,5.44680851 18.1560284,5.04037197 18.1560284,4.53900709 L18.1560284,0.907801418 C18.1560284,0.406436539 17.7495918,0 17.248227,0 Z" id="Path" stroke="#979797" stroke-width="0.3" fill="#000000" fill-rule="nonzero"></path>
                </g>
            </g>
        </g>
    </g>
</svg>