<svg width="16" height="16" viewBox="0 0 16 16" fill="none" xmlns="http://www.w3.org/2000/svg">
<path d="M8.72338 2.99136C8.26404 2.88319 7.78615 2.88051 7.32563 2.98355C6.8651 3.08659 6.43392 3.29266 6.06447 3.58627C5.69831 3.87658 5.40272 4.24611 5.19991 4.66709C4.99711 5.08806 4.89237 5.54954 4.89356 6.01682C4.89356 6.2097 4.97019 6.39469 5.10658 6.53108C5.24297 6.66747 5.42795 6.74409 5.62084 6.74409C5.81372 6.74409 5.99871 6.66747 6.1351 6.53108C6.27149 6.39469 6.34811 6.2097 6.34811 6.01682C6.34737 5.72853 6.422 5.44505 6.56461 5.19449C6.70722 4.94394 6.91285 4.73502 7.1611 4.58845C7.40936 4.44188 7.69161 4.36275 7.97988 4.3589C8.26815 4.35506 8.55241 4.42664 8.80449 4.56654C9.05656 4.70645 9.26768 4.90981 9.41692 5.15648C9.56615 5.40314 9.64832 5.68453 9.65526 5.97274C9.6622 6.26095 9.59369 6.54597 9.45651 6.79953C9.31932 7.05309 9.11824 7.26639 8.8732 7.41827C8.3931 7.7044 7.9941 8.10849 7.71407 8.59217C7.43404 9.07586 7.28228 9.62309 7.2732 10.1819C7.2732 10.3748 7.34982 10.5598 7.48621 10.6962C7.6226 10.8326 7.80759 10.9092 8.00047 10.9092C8.19336 10.9092 8.37834 10.8326 8.51473 10.6962C8.65112 10.5598 8.72775 10.3748 8.72775 10.1819C8.73846 9.87035 8.82834 9.56665 8.98892 9.29944C9.14949 9.03223 9.37548 8.81032 9.64556 8.65464C10.166 8.33041 10.579 7.85947 10.8324 7.3011C11.0859 6.74272 11.1685 6.12186 11.07 5.51662C10.9714 4.91139 10.696 4.34884 10.2784 3.89976C9.8609 3.45067 9.31985 3.13513 8.72338 2.99282V2.99136Z" fill="#3030AD"/>
<path d="M8 0C6.41775 0 4.87103 0.469192 3.55544 1.34824C2.23985 2.22729 1.21447 3.47672 0.608967 4.93853C0.0034663 6.40034 -0.15496 8.00887 0.153721 9.56072C0.462403 11.1126 1.22433 12.538 2.34315 13.6569C3.46197 14.7757 4.88743 15.5376 6.43928 15.8463C7.99113 16.155 9.59966 15.9965 11.0615 15.391C12.5233 14.7855 13.7727 13.7602 14.6518 12.4446C15.5308 11.129 16 9.58225 16 8C15.9975 5.87904 15.1538 3.84566 13.6541 2.34591C12.1543 0.84616 10.121 0.00250216 8 0ZM8 14.5455C6.70543 14.5455 5.43994 14.1616 4.36354 13.4423C3.28715 12.7231 2.4482 11.7009 1.95279 10.5048C1.45738 9.30881 1.32776 7.99274 1.58032 6.72304C1.83288 5.45335 2.45627 4.28706 3.37167 3.37166C4.28707 2.45627 5.45335 1.83287 6.72305 1.58031C7.99274 1.32776 9.30881 1.45738 10.5048 1.95279C11.7009 2.4482 12.7231 3.28715 13.4423 4.36354C14.1616 5.43993 14.5455 6.70543 14.5455 8C14.5435 9.73537 13.8533 11.3991 12.6262 12.6262C11.3991 13.8533 9.73537 14.5435 8 14.5455Z" fill="#3030AD"/>
<path d="M7.99973 13.0908C8.4014 13.0908 8.72701 12.7652 8.72701 12.3635C8.72701 11.9618 8.4014 11.6362 7.99973 11.6362C7.59807 11.6362 7.27246 11.9618 7.27246 12.3635C7.27246 12.7652 7.59807 13.0908 7.99973 13.0908Z" fill="#3030AD"/>
</svg>
