<svg width="16" height="16" viewBox="0 0 16 16" fill="none" xmlns="http://www.w3.org/2000/svg">
<g opacity="0.3">
<path d="M8.72314 2.99136C8.26379 2.88319 7.78591 2.88051 7.32538 2.98355C6.86486 3.08659 6.43368 3.29266 6.06423 3.58627C5.69807 3.87658 5.40247 4.24611 5.19967 4.66709C4.99686 5.08806 4.89212 5.54954 4.89332 6.01682C4.89332 6.2097 4.96994 6.39469 5.10633 6.53108C5.24272 6.66747 5.42771 6.74409 5.62059 6.74409C5.81348 6.74409 5.99846 6.66747 6.13485 6.53108C6.27124 6.39469 6.34787 6.2097 6.34787 6.01682C6.34713 5.72853 6.42176 5.44505 6.56437 5.19449C6.70698 4.94394 6.9126 4.73502 7.16086 4.58845C7.40911 4.44188 7.69137 4.36275 7.97964 4.3589C8.2679 4.35506 8.55217 4.42664 8.80424 4.56654C9.05631 4.70645 9.26744 4.90981 9.41667 5.15648C9.56591 5.40314 9.64807 5.68453 9.65502 5.97274C9.66196 6.26095 9.59344 6.54597 9.45626 6.79953C9.31908 7.05309 9.118 7.26639 8.87296 7.41827C8.39286 7.7044 7.99385 8.10849 7.71383 8.59217C7.4338 9.07586 7.28204 9.62309 7.27296 10.1819C7.27296 10.3748 7.34958 10.5598 7.48597 10.6962C7.62236 10.8326 7.80734 10.9092 8.00023 10.9092C8.19311 10.9092 8.3781 10.8326 8.51449 10.6962C8.65088 10.5598 8.7275 10.3748 8.7275 10.1819C8.73821 9.87035 8.82809 9.56665 8.98867 9.29944C9.14925 9.03223 9.37523 8.81032 9.64532 8.65464C10.1658 8.33041 10.5787 7.85947 10.8322 7.3011C11.0857 6.74272 11.1683 6.12186 11.0697 5.51662C10.9711 4.91139 10.6957 4.34884 10.2782 3.89976C9.86065 3.45067 9.3196 3.13513 8.72314 2.99282V2.99136Z" fill="#0B0B28"/>
<path d="M8 0C6.41775 0 4.87103 0.469192 3.55544 1.34824C2.23985 2.22729 1.21447 3.47672 0.608967 4.93853C0.0034663 6.40034 -0.15496 8.00887 0.153721 9.56072C0.462403 11.1126 1.22433 12.538 2.34315 13.6569C3.46197 14.7757 4.88743 15.5376 6.43928 15.8463C7.99113 16.155 9.59966 15.9965 11.0615 15.391C12.5233 14.7855 13.7727 13.7602 14.6518 12.4446C15.5308 11.129 16 9.58225 16 8C15.9975 5.87904 15.1538 3.84566 13.6541 2.34591C12.1543 0.84616 10.121 0.00250216 8 0ZM8 14.5455C6.70543 14.5455 5.43994 14.1616 4.36354 13.4423C3.28715 12.7231 2.4482 11.7009 1.95279 10.5048C1.45738 9.30881 1.32776 7.99274 1.58032 6.72304C1.83288 5.45335 2.45627 4.28706 3.37167 3.37166C4.28707 2.45627 5.45335 1.83287 6.72305 1.58031C7.99274 1.32776 9.30881 1.45738 10.5048 1.95279C11.7009 2.4482 12.7231 3.28715 13.4423 4.36354C14.1616 5.43993 14.5455 6.70543 14.5455 8C14.5435 9.73537 13.8533 11.3991 12.6262 12.6262C11.3991 13.8533 9.73537 14.5435 8 14.5455Z" fill="#0B0B28"/>
<path d="M7.99998 13.0908C8.40164 13.0908 8.72725 12.7652 8.72725 12.3635C8.72725 11.9618 8.40164 11.6362 7.99998 11.6362C7.59832 11.6362 7.27271 11.9618 7.27271 12.3635C7.27271 12.7652 7.59832 13.0908 7.99998 13.0908Z" fill="#0B0B28"/>
</g>
</svg>
