<?xml version="1.0" encoding="UTF-8"?>
<svg width="26px" height="24px" viewBox="0 0 26 24" version="1.1" xmlns="http://www.w3.org/2000/svg" xmlns:xlink="http://www.w3.org/1999/xlink">
    <title>3D59C280-0FBC-4B39-A1EF-BB93AEA52995</title>
    <defs>
        <filter id="filter-1">
            <feColorMatrix in="SourceGraphic" type="matrix" values="0 0 0 0 0.290222 0 0 0 0 0.290175 0 0 0 0 0.290237 0 0 0 1.000000 0"></feColorMatrix>
        </filter>
    </defs>
    <g id="Wireframes-2.0" stroke="none" stroke-width="1" fill="none" fill-rule="evenodd">
        <g id="tracker" transform="translate(-27.000000, -543.000000)" filter="url(#filter-1)">
            <g transform="translate(27.000000, 543.000000)">
                <path d="M20.5861429,8.76457143 C20.6101429,8.512 20.625,8.25828571 20.625,8.00000012 C20.6249999,3.58172205 17.043278,1.19209287e-07 12.625,1.19209287e-07 C8.20672205,1.19209287e-07 4.62500007,3.58172205 4.625,8.00000012 C4.625,8.25828571 4.63985714,8.512 4.66385714,8.76457143 C1.92625089,10.0424613 0.143237146,12.7548568 0.0556558879,15.7747608 C-0.0319253703,18.7946648 1.5908976,21.605834 4.2498439,23.0402312 C6.9087902,24.4746283 10.1493211,24.2870476 12.625,22.5554286 C15.1006789,24.2870476 18.3412098,24.4746283 21.0001561,23.0402312 C23.6591024,21.605834 25.2819254,18.7946648 25.1943441,15.7747608 C25.1067629,12.7548568 23.3237491,10.0424613 20.5861429,8.76457143 Z M6.91071429,8 C6.91071429,4.84408714 9.46908714,2.28571429 12.625,2.28571429 C15.7809129,2.28571429 18.3392857,4.84408714 18.3392857,8 C18.3392857,8.03085714 18.3301429,8.05942857 18.3301429,8.09028571 C16.3246545,7.78214741 14.2780416,8.26797199 12.625,9.44457143 C10.9719584,8.26797199 8.9253455,7.78214741 6.91985714,8.09028571 C6.91985714,8.05942857 6.91071429,8.03085714 6.91071429,8 Z M13.7678571,16 C13.7641499,17.2249235 13.3631205,18.4155799 12.625,19.3931429 C11.8868795,18.4155799 11.4858501,17.2249235 11.4821429,16 C11.4821429,15.9691429 11.4912857,15.9405714 11.4912857,15.9097143 C12.2423022,16.0300904 13.0076978,16.0300904 13.7587143,15.9097143 C13.7587143,15.9405714 13.7678571,15.9691429 13.7678571,16 Z M12.625,13.7142857 C12.4159933,13.7049491 12.2076698,13.6839641 12.001,13.6514286 C12.1708805,13.2818376 12.3800878,12.9316261 12.625,12.6068571 C12.8699122,12.9316261 13.0791195,13.2818376 13.249,13.6514286 C13.0423302,13.6839641 12.8340067,13.7049491 12.625,13.7142857 Z M9.80671429,12.9405714 C8.76154107,12.3479662 7.92975071,11.4409948 7.42957143,10.3485714 C7.63624127,10.3160359 7.8445647,10.2950509 8.05357143,10.2857143 C9.0570071,10.2917726 10.040759,10.5647302 10.9038571,11.0765714 C10.4558899,11.6456756 10.0868398,12.2726763 9.80671429,12.9405714 L9.80671429,12.9405714 Z M14.3461429,11.0765714 C15.209241,10.5647302 16.1929929,10.2917726 17.1964286,10.2857143 C17.4054353,10.2950509 17.6137587,10.3160359 17.8204286,10.3485714 C17.3202493,11.4409948 16.4884589,12.3479662 15.4432857,12.9405714 C15.1631602,12.2726763 14.7941101,11.6456756 14.3461429,11.0765714 L14.3461429,11.0765714 Z M2.33928571,16 C2.34637923,13.9523109 3.45206602,12.066011 5.23528571,11.0594286 C6.00475007,12.8992165 7.4303143,14.3875056 9.23528571,15.2354286 C9.21128571,15.488 9.19642857,15.7417143 9.19642857,16 C9.19695047,17.7862466 9.79834522,19.5203889 10.9038571,20.9234286 C10.040759,21.4352698 9.0570071,21.7082274 8.05357143,21.7142857 C4.89922497,21.7105073 2.34306413,19.1543465 2.33928571,16 Z M17.1964286,21.7143218 C16.1929929,21.7082274 15.209241,21.4352698 14.3461429,20.9234286 C15.4516548,19.5203889 16.0530495,17.7862466 16.0535714,16 C16.0535714,15.7417143 16.0387143,15.488 16.0147143,15.2354286 C17.8196857,14.3875056 19.2452499,12.8992165 20.0147143,11.0594286 C22.2721194,12.3329028 23.384885,14.9700486 22.7221188,17.4757133 C22.0593526,19.981378 19.7882484,21.7234661 17.1964286,21.7143218 L17.1964286,21.7143218 Z" id="Shape" fill="#000000" fill-rule="nonzero"></path>
            </g>
        </g>
    </g>
</svg>