<?xml version="1.0" encoding="UTF-8"?>
<svg width="20px" height="20px" viewBox="0 0 20 20" version="1.1" xmlns="http://www.w3.org/2000/svg" xmlns:xlink="http://www.w3.org/1999/xlink">
    <title>AEE7BE6A-C640-488A-86DB-9895C93ABE83</title>
    <defs>
        <filter id="filter-1">
            <feColorMatrix in="SourceGraphic" type="matrix" values="0 0 0 0 0.290222 0 0 0 0 0.290175 0 0 0 0 0.290237 0 0 0 1.000000 0"></feColorMatrix>
        </filter>
    </defs>
    <g id="Wireframes-2.0" stroke="none" stroke-width="1" fill="none" fill-rule="evenodd">
        <g id="2.2-Onboarding---Company-Information" transform="translate(-425.000000, -271.000000)">
            <g id="Group" transform="translate(355.000000, 215.000000)">
                <g id="001-ui-2" transform="translate(61.000000, 56.000000)" filter="url(#filter-1)">
                    <g transform="translate(9.000000, 0.000000)">
                        <path d="M19.0638298,13.6170213 C18.5624649,13.6170213 18.1560284,14.0234578 18.1560284,14.5248227 L18.1560284,18.1560284 L1.81560284,18.1560284 L1.81560284,14.5248227 C1.81560284,14.0234578 1.4091663,13.6170213 0.907801418,13.6170213 C0.406436539,13.6170213 0,14.0234578 0,14.5248227 L0,19.0638298 C0,19.5651947 0.406436539,19.9716312 0.907801418,19.9716312 L19.0638298,19.9716312 C19.5651947,19.9716312 19.9716312,19.5651947 19.9716312,19.0638298 L19.9716312,14.5248227 C19.9716312,14.0234578 19.5651947,13.6170213 19.0638298,13.6170213 Z" id="Path" fill="#000000" fill-rule="nonzero"></path>
                        <path d="M5.1808227,6.99642553 L9.07801418,3.09923404 L9.07801418,14.5248227 C9.07801418,15.0261876 9.48445072,15.4326241 9.9858156,15.4326241 C10.4871805,15.4326241 10.893617,15.0261876 10.893617,14.5248227 L10.893617,3.09923404 L14.7908085,6.99642553 C15.1470106,7.34045704 15.7132117,7.33553691 16.0633814,6.98536722 C16.4135511,6.63519753 16.4184712,6.06899644 16.0744397,5.71279433 L10.6276312,0.265985816 C10.2731349,-0.0884034617 9.69849632,-0.0884034617 9.344,0.265985816 L3.89719149,5.71279433 C3.55315998,6.06899644 3.55808011,6.63519753 3.9082498,6.98536722 C4.25841949,7.33553691 4.82462058,7.34045704 5.1808227,6.99642553 Z" id="Path" fill="#000000" fill-rule="nonzero"></path>
                    </g>
                </g>
            </g>
        </g>
    </g>
</svg>