<svg width="24" height="24" viewBox="0 0 24 24" fill="none" xmlns="http://www.w3.org/2000/svg">
<path d="M23.6283 18.605L14.6694 2.55158C14.4079 2.08211 14.0217 1.69022 13.5514 1.41717C13.0811 1.14411 12.5442 1 11.9972 1C11.4501 1 10.9132 1.14411 10.443 1.41717C9.97268 1.69022 9.58646 2.08211 9.32494 2.55158L0.370695 18.604C0.118489 19.0565 -0.00907565 19.5652 0.000502213 20.0804C0.0100801 20.5955 0.156472 21.0994 0.425331 21.5426C0.69419 21.9858 1.07629 22.3531 1.53418 22.6086C1.99208 22.8641 2.51005 22.999 3.03734 23H20.957C21.4849 22.9999 22.0038 22.8657 22.4626 22.6104C22.9214 22.3552 23.3043 21.9877 23.5738 21.5441C23.8432 21.1004 23.9899 20.596 23.9995 20.0802C24.0091 19.5644 23.8811 19.0551 23.6283 18.6022V18.605ZM21.9745 20.618C21.8718 20.7923 21.7233 20.9367 21.5445 21.0364C21.3657 21.1361 21.1629 21.1874 20.957 21.1851H3.03734C2.83219 21.1849 2.63061 21.1326 2.45237 21.0333C2.27413 20.934 2.12535 20.7912 2.0206 20.6189C1.91585 20.4465 1.85873 20.2505 1.85484 20.0501C1.85095 19.8497 1.90042 19.6517 1.9984 19.4756L10.9582 3.42586C11.06 3.2434 11.2101 3.0911 11.393 2.98499C11.5758 2.87888 11.7845 2.82288 11.9972 2.82288C12.2098 2.82288 12.4185 2.87888 12.6014 2.98499C12.7842 3.0911 12.9344 3.2434 13.0361 3.42586L21.9959 19.4756C22.0966 19.6507 22.1477 19.8488 22.144 20.0496C22.1402 20.2504 22.0817 20.4466 21.9745 20.618Z" fill="#EB5757"/>
<path d="M11.9965 7.45923C11.7498 7.45923 11.5133 7.55498 11.3388 7.72542C11.1644 7.89585 11.0664 8.12701 11.0664 8.36805V14.7298C11.0664 14.9708 11.1644 15.202 11.3388 15.3724C11.5133 15.5428 11.7498 15.6386 11.9965 15.6386C12.2432 15.6386 12.4798 15.5428 12.6542 15.3724C12.8286 15.202 12.9266 14.9708 12.9266 14.7298V8.36805C12.9266 8.12701 12.8286 7.89585 12.6542 7.72542C12.4798 7.55498 12.2432 7.45923 11.9965 7.45923Z" fill="#EB5757"/>
<path d="M11.9965 18.365C12.5102 18.365 12.9266 17.9581 12.9266 17.4562C12.9266 16.9543 12.5102 16.5474 11.9965 16.5474C11.4828 16.5474 11.0664 16.9543 11.0664 17.4562C11.0664 17.9581 11.4828 18.365 11.9965 18.365Z" fill="#EB5757"/>
</svg>
